<?xml version="1.0" encoding="UTF-8" standalone="no"?>
<!DOCTYPE svg PUBLIC "-//W3C//DTD SVG 1.1//EN"
 "http://www.w3.org/Graphics/SVG/1.1/DTD/svg11.dtd">
<!-- Generated by graphviz version 2.44.0 (0)
 -->
<!-- Pages: 1 -->
<svg width="2746pt" height="450pt"
 viewBox="0.00 0.00 2746.09 449.50" xmlns="http://www.w3.org/2000/svg" xmlns:xlink="http://www.w3.org/1999/xlink">
<g id="graph0" class="graph" transform="scale(1 1) rotate(0) translate(4 445.5)">
<polygon fill="white" stroke="transparent" points="-4,4 -4,-445.5 2742.09,-445.5 2742.09,4 -4,4"/>
<!-- step2_current -->
<g id="node1" class="node">
<title>step2_current</title>
<ellipse fill="#eef3ff" stroke="black" cx="154.86" cy="-145" rx="154.71" ry="37.45"/>
<text text-anchor="middle" x="154.86" y="-156.3" font-family="Times-Roman" font-size="14.00">Seattle&#39;s $15 Minimum Wage</text>
<text text-anchor="middle" x="154.86" y="-141.3" font-family="Times-Roman" font-size="14.00">Experiment is Working</text>
<text text-anchor="middle" x="154.86" y="-126.3" font-family="Times-Roman" font-size="14.00">EHFT4U2&#45;yFI</text>
</g>
<!-- step2_opt1 -->
<g id="node2" class="node">
<title>step2_opt1</title>
<path fill="#ffffff" stroke="black" d="M559.21,-267.5C559.21,-267.5 389.21,-267.5 389.21,-267.5 383.21,-267.5 377.21,-261.5 377.21,-255.5 377.21,-255.5 377.21,-226.5 377.21,-226.5 377.21,-220.5 383.21,-214.5 389.21,-214.5 389.21,-214.5 559.21,-214.5 559.21,-214.5 565.21,-214.5 571.21,-220.5 571.21,-226.5 571.21,-226.5 571.21,-255.5 571.21,-255.5 571.21,-261.5 565.21,-267.5 559.21,-267.5"/>
<text text-anchor="middle" x="474.21" y="-252.3" font-family="Times-Roman" font-size="14.00">If a Business Won&#39;t pay a</text>
<text text-anchor="middle" x="474.21" y="-237.3" font-family="Times-Roman" font-size="14.00">Living Wage &#45; it Shouldn&#39;t</text>
<text text-anchor="middle" x="474.21" y="-222.3" font-family="Times-Roman" font-size="14.00">Exist &#45;kLvKWycyJI</text>
</g>
<!-- step2_current&#45;&gt;step2_opt1 -->
<g id="edge1" class="edge">
<title>step2_current&#45;&gt;step2_opt1</title>
<path fill="none" stroke="#888888" d="M251.95,-174.4C283.98,-184.18 319.88,-195.09 352.71,-205 359.68,-207.1 366.88,-209.27 374.13,-211.45"/>
<polygon fill="#888888" stroke="#888888" points="373.45,-214.9 384.03,-214.42 375.46,-208.19 373.45,-214.9"/>
<text text-anchor="middle" x="331.21" y="-201" font-family="Times-Roman" font-size="10.00">1</text>
</g>
<!-- step2_opt2 -->
<g id="node3" class="node">
<title>step2_opt2</title>
<path fill="#d7f5d0" stroke="#2d9c4a" stroke-width="2" d="M583.71,-196C583.71,-196 364.71,-196 364.71,-196 358.71,-196 352.71,-190 352.71,-184 352.71,-184 352.71,-170 352.71,-170 352.71,-164 358.71,-158 364.71,-158 364.71,-158 583.71,-158 583.71,-158 589.71,-158 595.71,-164 595.71,-170 595.71,-170 595.71,-184 595.71,-184 595.71,-190 589.71,-196 583.71,-196"/>
<text text-anchor="middle" x="474.21" y="-180.8" font-family="Times-Roman" font-size="14.00">Price Floors: The Minimum Wage</text>
<text text-anchor="middle" x="474.21" y="-165.8" font-family="Times-Roman" font-size="14.00">65kfAswiHLk</text>
</g>
<!-- step2_current&#45;&gt;step2_opt2 -->
<g id="edge2" class="edge">
<title>step2_current&#45;&gt;step2_opt2</title>
<path fill="none" stroke="#2d9c4a" stroke-width="2.5" d="M298.29,-159.36C313.02,-160.85 327.93,-162.35 342.52,-163.82"/>
<polygon fill="#2d9c4a" stroke="#2d9c4a" stroke-width="2.5" points="342.26,-167.31 352.56,-164.83 342.97,-160.35 342.26,-167.31"/>
<text text-anchor="middle" x="331.21" y="-165" font-family="Times-Roman" font-size="10.00">2</text>
</g>
<!-- step2_opt3 -->
<g id="node4" class="node">
<title>step2_opt3</title>
<path fill="#ffffff" stroke="black" d="M583.21,-139.5C583.21,-139.5 365.21,-139.5 365.21,-139.5 359.21,-139.5 353.21,-133.5 353.21,-127.5 353.21,-127.5 353.21,-98.5 353.21,-98.5 353.21,-92.5 359.21,-86.5 365.21,-86.5 365.21,-86.5 583.21,-86.5 583.21,-86.5 589.21,-86.5 595.21,-92.5 595.21,-98.5 595.21,-98.5 595.21,-127.5 595.21,-127.5 595.21,-133.5 589.21,-139.5 583.21,-139.5"/>
<text text-anchor="middle" x="474.21" y="-124.3" font-family="Times-Roman" font-size="14.00">If Walmart Paid Its Employees</text>
<text text-anchor="middle" x="474.21" y="-109.3" font-family="Times-Roman" font-size="14.00">a Living Wage, How Much Would</text>
<text text-anchor="middle" x="474.21" y="-94.3" font-family="Times-Roman" font-size="14.00">Prices Go Up? vAcaeLmybCY</text>
</g>
<!-- step2_current&#45;&gt;step2_opt3 -->
<g id="edge3" class="edge">
<title>step2_current&#45;&gt;step2_opt3</title>
<path fill="none" stroke="#888888" d="M298.29,-130.64C313.15,-129.14 328.2,-127.62 342.92,-126.14"/>
<polygon fill="#888888" stroke="#888888" points="343.45,-129.6 353.05,-125.12 342.75,-122.64 343.45,-129.6"/>
<text text-anchor="middle" x="331.21" y="-130" font-family="Times-Roman" font-size="10.00">3</text>
</g>
<!-- step2_opt4 -->
<g id="node5" class="node">
<title>step2_opt4</title>
<path fill="#ffffff" stroke="black" d="M582.21,-68C582.21,-68 366.21,-68 366.21,-68 360.21,-68 354.21,-62 354.21,-56 354.21,-56 354.21,-12 354.21,-12 354.21,-6 360.21,0 366.21,0 366.21,0 582.21,0 582.21,0 588.21,0 594.21,-6 594.21,-12 594.21,-12 594.21,-56 594.21,-56 594.21,-62 588.21,-68 582.21,-68"/>
<text text-anchor="middle" x="474.21" y="-52.8" font-family="Times-Roman" font-size="14.00">Restaurants eliminating</text>
<text text-anchor="middle" x="474.21" y="-37.8" font-family="Times-Roman" font-size="14.00">employees after minimum wage</text>
<text text-anchor="middle" x="474.21" y="-22.8" font-family="Times-Roman" font-size="14.00">increase in 18 states</text>
<text text-anchor="middle" x="474.21" y="-7.8" font-family="Times-Roman" font-size="14.00">p4i4qEnCNk8</text>
</g>
<!-- step2_current&#45;&gt;step2_opt4 -->
<g id="edge4" class="edge">
<title>step2_current&#45;&gt;step2_opt4</title>
<path fill="none" stroke="#888888" d="M243.84,-114.23C281.79,-100.95 326.53,-85.3 366.37,-71.37"/>
<polygon fill="#888888" stroke="#888888" points="367.57,-74.66 375.85,-68.05 365.26,-68.05 367.57,-74.66"/>
<text text-anchor="middle" x="331.21" y="-85" font-family="Times-Roman" font-size="10.00">4</text>
</g>
<!-- step3_current -->
<g id="node6" class="node">
<title>step3_current</title>
<ellipse fill="#eef3ff" stroke="black" cx="845.54" cy="-177" rx="171.65" ry="26.74"/>
<text text-anchor="middle" x="845.54" y="-180.8" font-family="Times-Roman" font-size="14.00">Price Floors: The Minimum Wage</text>
<text text-anchor="middle" x="845.54" y="-165.8" font-family="Times-Roman" font-size="14.00">65kfAswiHLk</text>
</g>
<!-- step2_opt2&#45;&gt;step3_current -->
<g id="edge17" class="edge">
<title>step2_opt2&#45;&gt;step3_current</title>
<path fill="none" stroke="#2d9c4a" stroke-width="2.5" stroke-dasharray="5,2" d="M595.89,-177C617.52,-177 640.49,-177 663.38,-177"/>
<polygon fill="#2d9c4a" stroke="#2d9c4a" stroke-width="2.5" points="663.54,-180.5 673.54,-177 663.54,-173.5 663.54,-180.5"/>
<text text-anchor="middle" x="634.71" y="-180" font-family="Times-Roman" font-size="10.00">selected</text>
</g>
<!-- step3_opt1 -->
<g id="node7" class="node">
<title>step3_opt1</title>
<path fill="#d7f5d0" stroke="#2d9c4a" stroke-width="2" d="M1297.87,-314C1297.87,-314 1076.87,-314 1076.87,-314 1070.87,-314 1064.87,-308 1064.87,-302 1064.87,-302 1064.87,-258 1064.87,-258 1064.87,-252 1070.87,-246 1076.87,-246 1076.87,-246 1297.87,-246 1297.87,-246 1303.87,-246 1309.87,-252 1309.87,-258 1309.87,-258 1309.87,-302 1309.87,-302 1309.87,-308 1303.87,-314 1297.87,-314"/>
<text text-anchor="middle" x="1187.37" y="-298.8" font-family="Times-Roman" font-size="14.00">The 5 Biggest Myths</text>
<text text-anchor="middle" x="1187.37" y="-283.8" font-family="Times-Roman" font-size="14.00">Republicans Use to Avoid</text>
<text text-anchor="middle" x="1187.37" y="-268.8" font-family="Times-Roman" font-size="14.00">Raising the Minimum Wage |</text>
<text text-anchor="middle" x="1187.37" y="-253.8" font-family="Times-Roman" font-size="14.00">Opinions | NowThis DPn6T0zT6jc</text>
</g>
<!-- step3_current&#45;&gt;step3_opt1 -->
<g id="edge5" class="edge">
<title>step3_current&#45;&gt;step3_opt1</title>
<path fill="none" stroke="#2d9c4a" stroke-width="2.5" d="M925.36,-200.89C966.63,-213.4 1018.1,-229 1064.39,-243.03"/>
<polygon fill="#2d9c4a" stroke="#2d9c4a" stroke-width="2.5" points="1063.6,-246.45 1074.18,-246 1065.63,-239.75 1063.6,-246.45"/>
<text text-anchor="middle" x="1038.87" y="-237" font-family="Times-Roman" font-size="10.00">1</text>
</g>
<!-- step3_opt2 -->
<g id="node8" class="node">
<title>step3_opt2</title>
<path fill="#ffffff" stroke="black" d="M1302.37,-228C1302.37,-228 1072.37,-228 1072.37,-228 1066.37,-228 1060.37,-222 1060.37,-216 1060.37,-216 1060.37,-202 1060.37,-202 1060.37,-196 1066.37,-190 1072.37,-190 1072.37,-190 1302.37,-190 1302.37,-190 1308.37,-190 1314.37,-196 1314.37,-202 1314.37,-202 1314.37,-216 1314.37,-216 1314.37,-222 1308.37,-228 1302.37,-228"/>
<text text-anchor="middle" x="1187.37" y="-212.8" font-family="Times-Roman" font-size="14.00">Republicans Block Minimum Wage</text>
<text text-anchor="middle" x="1187.37" y="-197.8" font-family="Times-Roman" font-size="14.00">Increase WNf3qOJimiA</text>
</g>
<!-- step3_current&#45;&gt;step3_opt2 -->
<g id="edge6" class="edge">
<title>step3_current&#45;&gt;step3_opt2</title>
<path fill="none" stroke="#888888" d="M993.12,-190.8C1012.08,-192.59 1031.43,-194.41 1050.21,-196.18"/>
<polygon fill="#888888" stroke="#888888" points="1049.99,-199.67 1060.28,-197.13 1050.65,-192.7 1049.99,-199.67"/>
<text text-anchor="middle" x="1038.87" y="-197" font-family="Times-Roman" font-size="10.00">2</text>
</g>
<!-- step3_opt3 -->
<g id="node9" class="node">
<title>step3_opt3</title>
<path fill="#ffffff" stroke="black" d="M1278.37,-171.5C1278.37,-171.5 1096.37,-171.5 1096.37,-171.5 1090.37,-171.5 1084.37,-165.5 1084.37,-159.5 1084.37,-159.5 1084.37,-130.5 1084.37,-130.5 1084.37,-124.5 1090.37,-118.5 1096.37,-118.5 1096.37,-118.5 1278.37,-118.5 1278.37,-118.5 1284.37,-118.5 1290.37,-124.5 1290.37,-130.5 1290.37,-130.5 1290.37,-159.5 1290.37,-159.5 1290.37,-165.5 1284.37,-171.5 1278.37,-171.5"/>
<text text-anchor="middle" x="1187.37" y="-156.3" font-family="Times-Roman" font-size="14.00">Caller: Increasing Minimum</text>
<text text-anchor="middle" x="1187.37" y="-141.3" font-family="Times-Roman" font-size="14.00">Wage will Bring Inflation</text>
<text text-anchor="middle" x="1187.37" y="-126.3" font-family="Times-Roman" font-size="14.00">v8bnRfvMVMg</text>
</g>
<!-- step3_current&#45;&gt;step3_opt3 -->
<g id="edge7" class="edge">
<title>step3_current&#45;&gt;step3_opt3</title>
<path fill="none" stroke="#888888" d="M993.12,-163.2C1020.24,-160.64 1048.17,-158.01 1074.07,-155.57"/>
<polygon fill="#888888" stroke="#888888" points="1074.64,-159.04 1084.27,-154.61 1073.98,-152.07 1074.64,-159.04"/>
<text text-anchor="middle" x="1038.87" y="-162" font-family="Times-Roman" font-size="10.00">3</text>
</g>
<!-- step3_opt4 -->
<g id="node10" class="node">
<title>step3_opt4</title>
<path fill="#ffffff" stroke="black" d="M1284.37,-100C1284.37,-100 1090.37,-100 1090.37,-100 1084.37,-100 1078.37,-94 1078.37,-88 1078.37,-88 1078.37,-74 1078.37,-74 1078.37,-68 1084.37,-62 1090.37,-62 1090.37,-62 1284.37,-62 1284.37,-62 1290.37,-62 1296.37,-68 1296.37,-74 1296.37,-74 1296.37,-88 1296.37,-88 1296.37,-94 1290.37,-100 1284.37,-100"/>
<text text-anchor="middle" x="1187.37" y="-84.8" font-family="Times-Roman" font-size="14.00">Milton Friedman on Minimum</text>
<text text-anchor="middle" x="1187.37" y="-69.8" font-family="Times-Roman" font-size="14.00">Wage ca8Z__o52sk</text>
</g>
<!-- step3_current&#45;&gt;step3_opt4 -->
<g id="edge8" class="edge">
<title>step3_current&#45;&gt;step3_opt4</title>
<path fill="none" stroke="#888888" d="M919.36,-152.64C960.52,-139.27 1013.06,-122.83 1060.37,-110 1069.87,-107.42 1079.82,-104.87 1089.78,-102.42"/>
<polygon fill="#888888" stroke="#888888" points="1090.84,-105.77 1099.73,-100.01 1089.18,-98.97 1090.84,-105.77"/>
<text text-anchor="middle" x="1038.87" y="-119" font-family="Times-Roman" font-size="10.00">4</text>
</g>
<!-- step4_current -->
<g id="node11" class="node">
<title>step4_current</title>
<ellipse fill="#eef3ff" stroke="black" cx="1565.61" cy="-280" rx="173.48" ry="48.17"/>
<text text-anchor="middle" x="1565.61" y="-298.8" font-family="Times-Roman" font-size="14.00">The 5 Biggest Myths</text>
<text text-anchor="middle" x="1565.61" y="-283.8" font-family="Times-Roman" font-size="14.00">Republicans Use to Avoid</text>
<text text-anchor="middle" x="1565.61" y="-268.8" font-family="Times-Roman" font-size="14.00">Raising the Minimum Wage |</text>
<text text-anchor="middle" x="1565.61" y="-253.8" font-family="Times-Roman" font-size="14.00">Opinions | NowThis DPn6T0zT6jc</text>
</g>
<!-- step3_opt1&#45;&gt;step4_current -->
<g id="edge18" class="edge">
<title>step3_opt1&#45;&gt;step4_current</title>
<path fill="none" stroke="#2d9c4a" stroke-width="2.5" stroke-dasharray="5,2" d="M1310,-280C1333.02,-280 1357.57,-280 1381.99,-280"/>
<polygon fill="#2d9c4a" stroke="#2d9c4a" stroke-width="2.5" points="1382.07,-283.5 1392.07,-280 1382.07,-276.5 1382.07,-283.5"/>
<text text-anchor="middle" x="1353.37" y="-283" font-family="Times-Roman" font-size="10.00">selected</text>
</g>
<!-- step4_opt1 -->
<g id="node12" class="node">
<title>step4_opt1</title>
<path fill="#ffffff" stroke="black" d="M2004.85,-387C2004.85,-387 1800.85,-387 1800.85,-387 1794.85,-387 1788.85,-381 1788.85,-375 1788.85,-375 1788.85,-361 1788.85,-361 1788.85,-355 1794.85,-349 1800.85,-349 1800.85,-349 2004.85,-349 2004.85,-349 2010.85,-349 2016.85,-355 2016.85,-361 2016.85,-361 2016.85,-375 2016.85,-375 2016.85,-381 2010.85,-387 2004.85,-387"/>
<text text-anchor="middle" x="1902.85" y="-371.8" font-family="Times-Roman" font-size="14.00">Should We Raise the Minimum</text>
<text text-anchor="middle" x="1902.85" y="-356.8" font-family="Times-Roman" font-size="14.00">Wage? ZI9aDHLptMk</text>
</g>
<!-- step4_current&#45;&gt;step4_opt1 -->
<g id="edge9" class="edge">
<title>step4_current&#45;&gt;step4_opt1</title>
<path fill="none" stroke="#888888" d="M1686.75,-314.47C1717.67,-323.07 1750.94,-332.09 1781.85,-340 1790.45,-342.2 1799.41,-344.42 1808.4,-346.6"/>
<polygon fill="#888888" stroke="#888888" points="1807.6,-350.01 1818.14,-348.95 1809.24,-343.21 1807.6,-350.01"/>
<text text-anchor="middle" x="1760.35" y="-336" font-family="Times-Roman" font-size="10.00">1</text>
</g>
<!-- step4_opt2 -->
<g id="node13" class="node">
<title>step4_opt2</title>
<path fill="#d7f5d0" stroke="#2d9c4a" stroke-width="2" d="M2011.85,-331C2011.85,-331 1793.85,-331 1793.85,-331 1787.85,-331 1781.85,-325 1781.85,-319 1781.85,-319 1781.85,-305 1781.85,-305 1781.85,-299 1787.85,-293 1793.85,-293 1793.85,-293 2011.85,-293 2011.85,-293 2017.85,-293 2023.85,-299 2023.85,-305 2023.85,-305 2023.85,-319 2023.85,-319 2023.85,-325 2017.85,-331 2011.85,-331"/>
<text text-anchor="middle" x="1902.85" y="-315.8" font-family="Times-Roman" font-size="14.00">Who Does a $15 Minimum Wage</text>
<text text-anchor="middle" x="1902.85" y="-300.8" font-family="Times-Roman" font-size="14.00">Help? HwcHRyvrNCE</text>
</g>
<!-- step4_current&#45;&gt;step4_opt2 -->
<g id="edge10" class="edge">
<title>step4_current&#45;&gt;step4_opt2</title>
<path fill="none" stroke="#2d9c4a" stroke-width="2.5" d="M1729.81,-295.58C1743.74,-296.91 1757.72,-298.24 1771.34,-299.54"/>
<polygon fill="#2d9c4a" stroke="#2d9c4a" stroke-width="2.5" points="1771.41,-303.06 1781.69,-300.53 1772.07,-296.1 1771.41,-303.06"/>
<text text-anchor="middle" x="1760.35" y="-301" font-family="Times-Roman" font-size="10.00">2</text>
</g>
<!-- step4_opt3 -->
<g id="node14" class="node">
<title>step4_opt3</title>
<path fill="#ffffff" stroke="black" d="M1996.35,-274.5C1996.35,-274.5 1809.35,-274.5 1809.35,-274.5 1803.35,-274.5 1797.35,-268.5 1797.35,-262.5 1797.35,-262.5 1797.35,-233.5 1797.35,-233.5 1797.35,-227.5 1803.35,-221.5 1809.35,-221.5 1809.35,-221.5 1996.35,-221.5 1996.35,-221.5 2002.35,-221.5 2008.35,-227.5 2008.35,-233.5 2008.35,-233.5 2008.35,-262.5 2008.35,-262.5 2008.35,-268.5 2002.35,-274.5 1996.35,-274.5"/>
<text text-anchor="middle" x="1902.85" y="-259.3" font-family="Times-Roman" font-size="14.00">Malcolm Kenyatta Confronts</text>
<text text-anchor="middle" x="1902.85" y="-244.3" font-family="Times-Roman" font-size="14.00">Minimum Wage Opposers</text>
<text text-anchor="middle" x="1902.85" y="-229.3" font-family="Times-Roman" font-size="14.00">OlU6ZU1l4Io</text>
</g>
<!-- step4_current&#45;&gt;step4_opt3 -->
<g id="edge11" class="edge">
<title>step4_current&#45;&gt;step4_opt3</title>
<path fill="none" stroke="#888888" d="M1729.81,-264.42C1749.06,-262.58 1768.38,-260.74 1786.77,-258.98"/>
<polygon fill="#888888" stroke="#888888" points="1787.26,-262.45 1796.88,-258.02 1786.6,-255.49 1787.26,-262.45"/>
<text text-anchor="middle" x="1760.35" y="-264" font-family="Times-Roman" font-size="10.00">3</text>
</g>
<!-- step4_opt4 -->
<g id="node15" class="node">
<title>step4_opt4</title>
<path fill="#ffffff" stroke="black" d="M2011.85,-203C2011.85,-203 1793.85,-203 1793.85,-203 1787.85,-203 1781.85,-197 1781.85,-191 1781.85,-191 1781.85,-177 1781.85,-177 1781.85,-171 1787.85,-165 1793.85,-165 1793.85,-165 2011.85,-165 2011.85,-165 2017.85,-165 2023.85,-171 2023.85,-177 2023.85,-177 2023.85,-191 2023.85,-191 2023.85,-197 2017.85,-203 2011.85,-203"/>
<text text-anchor="middle" x="1902.85" y="-187.8" font-family="Times-Roman" font-size="14.00">The Cruelty of the $15 Minimum</text>
<text text-anchor="middle" x="1902.85" y="-172.8" font-family="Times-Roman" font-size="14.00">Wage kBjsQL7ZFvc</text>
</g>
<!-- step4_current&#45;&gt;step4_opt4 -->
<g id="edge12" class="edge">
<title>step4_current&#45;&gt;step4_opt4</title>
<path fill="none" stroke="#888888" d="M1678.75,-243.59C1711.83,-233.26 1748.18,-222.3 1781.85,-213 1790.97,-210.48 1800.52,-207.97 1810.07,-205.53"/>
<polygon fill="#888888" stroke="#888888" points="1811.17,-208.87 1820.01,-203.03 1809.46,-202.08 1811.17,-208.87"/>
<text text-anchor="middle" x="1760.35" y="-222" font-family="Times-Roman" font-size="10.00">4</text>
</g>
<!-- step5_current -->
<g id="node16" class="node">
<title>step5_current</title>
<ellipse fill="#eef3ff" stroke="black" cx="2272.97" cy="-312" rx="171.24" ry="26.74"/>
<text text-anchor="middle" x="2272.97" y="-315.8" font-family="Times-Roman" font-size="14.00">Who Does a $15 Minimum Wage</text>
<text text-anchor="middle" x="2272.97" y="-300.8" font-family="Times-Roman" font-size="14.00">Help? HwcHRyvrNCE</text>
</g>
<!-- step4_opt2&#45;&gt;step5_current -->
<g id="edge19" class="edge">
<title>step4_opt2&#45;&gt;step5_current</title>
<path fill="none" stroke="#2d9c4a" stroke-width="2.5" stroke-dasharray="5,2" d="M2023.88,-312C2045.53,-312 2068.54,-312 2091.48,-312"/>
<polygon fill="#2d9c4a" stroke="#2d9c4a" stroke-width="2.5" points="2091.65,-315.5 2101.65,-312 2091.65,-308.5 2091.65,-315.5"/>
<text text-anchor="middle" x="2062.85" y="-315" font-family="Times-Roman" font-size="10.00">selected</text>
</g>
<!-- step5_opt1 -->
<g id="node17" class="node">
<title>step5_opt1</title>
<path fill="#ffffff" stroke="black" d="M2722.09,-441.5C2722.09,-441.5 2503.09,-441.5 2503.09,-441.5 2497.09,-441.5 2491.09,-435.5 2491.09,-429.5 2491.09,-429.5 2491.09,-400.5 2491.09,-400.5 2491.09,-394.5 2497.09,-388.5 2503.09,-388.5 2503.09,-388.5 2722.09,-388.5 2722.09,-388.5 2728.09,-388.5 2734.09,-394.5 2734.09,-400.5 2734.09,-400.5 2734.09,-429.5 2734.09,-429.5 2734.09,-435.5 2728.09,-441.5 2722.09,-441.5"/>
<text text-anchor="middle" x="2612.59" y="-426.3" font-family="Times-Roman" font-size="14.00">Amazon hikes minimum wage to</text>
<text text-anchor="middle" x="2612.59" y="-411.3" font-family="Times-Roman" font-size="14.00">$15 for all employees</text>
<text text-anchor="middle" x="2612.59" y="-396.3" font-family="Times-Roman" font-size="14.00">3G4miqoxoK0</text>
</g>
<!-- step5_current&#45;&gt;step5_opt1 -->
<g id="edge13" class="edge">
<title>step5_current&#45;&gt;step5_opt1</title>
<path fill="none" stroke="#888888" d="M2347.75,-336.24C2388.69,-349.51 2440.59,-366.05 2487.09,-380 2493.37,-381.89 2499.85,-383.8 2506.38,-385.7"/>
<polygon fill="#888888" stroke="#888888" points="2505.41,-389.07 2515.99,-388.49 2507.36,-382.34 2505.41,-389.07"/>
<text text-anchor="middle" x="2465.59" y="-375" font-family="Times-Roman" font-size="10.00">1</text>
</g>
<!-- step5_opt2 -->
<g id="node18" class="node">
<title>step5_opt2</title>
<path fill="#d7f5d0" stroke="#2d9c4a" stroke-width="2" d="M2697.59,-370.5C2697.59,-370.5 2527.59,-370.5 2527.59,-370.5 2521.59,-370.5 2515.59,-364.5 2515.59,-358.5 2515.59,-358.5 2515.59,-329.5 2515.59,-329.5 2515.59,-323.5 2521.59,-317.5 2527.59,-317.5 2527.59,-317.5 2697.59,-317.5 2697.59,-317.5 2703.59,-317.5 2709.59,-323.5 2709.59,-329.5 2709.59,-329.5 2709.59,-358.5 2709.59,-358.5 2709.59,-364.5 2703.59,-370.5 2697.59,-370.5"/>
<text text-anchor="middle" x="2612.59" y="-355.3" font-family="Times-Roman" font-size="14.00">If a Business Won&#39;t pay a</text>
<text text-anchor="middle" x="2612.59" y="-340.3" font-family="Times-Roman" font-size="14.00">Living Wage &#45; it Shouldn&#39;t</text>
<text text-anchor="middle" x="2612.59" y="-325.3" font-family="Times-Roman" font-size="14.00">Exist &#45;kLvKWycyJI</text>
</g>
<!-- step5_current&#45;&gt;step5_opt2 -->
<g id="edge14" class="edge">
<title>step5_current&#45;&gt;step5_opt2</title>
<path fill="none" stroke="#2d9c4a" stroke-width="2.5" d="M2420.09,-325.85C2448.69,-328.56 2478.18,-331.36 2505.19,-333.92"/>
<polygon fill="#2d9c4a" stroke="#2d9c4a" stroke-width="2.5" points="2505.12,-337.42 2515.41,-334.88 2505.79,-330.46 2505.12,-337.42"/>
<text text-anchor="middle" x="2465.59" y="-332" font-family="Times-Roman" font-size="10.00">2</text>
</g>
<!-- step5_opt3 -->
<g id="node19" class="node">
<title>step5_opt3</title>
<path fill="#ffffff" stroke="black" d="M2717.59,-299C2717.59,-299 2507.59,-299 2507.59,-299 2501.59,-299 2495.59,-293 2495.59,-287 2495.59,-287 2495.59,-273 2495.59,-273 2495.59,-267 2501.59,-261 2507.59,-261 2507.59,-261 2717.59,-261 2717.59,-261 2723.59,-261 2729.59,-267 2729.59,-273 2729.59,-273 2729.59,-287 2729.59,-287 2729.59,-293 2723.59,-299 2717.59,-299"/>
<text text-anchor="middle" x="2612.59" y="-283.8" font-family="Times-Roman" font-size="14.00">A $15 Minimum Wage Will Hurt</text>
<text text-anchor="middle" x="2612.59" y="-268.8" font-family="Times-Roman" font-size="14.00">Workers BSco6eBKOm8</text>
</g>
<!-- step5_current&#45;&gt;step5_opt3 -->
<g id="edge15" class="edge">
<title>step5_current&#45;&gt;step5_opt3</title>
<path fill="none" stroke="#888888" d="M2420.09,-298.15C2441.86,-296.09 2464.14,-293.98 2485.45,-291.96"/>
<polygon fill="#888888" stroke="#888888" points="2485.87,-295.43 2495.5,-291 2485.21,-288.46 2485.87,-295.43"/>
<text text-anchor="middle" x="2465.59" y="-297" font-family="Times-Roman" font-size="10.00">3</text>
</g>
<!-- step5_opt4 -->
<g id="node20" class="node">
<title>step5_opt4</title>
<path fill="#ffffff" stroke="black" d="M2726.09,-243C2726.09,-243 2499.09,-243 2499.09,-243 2493.09,-243 2487.09,-237 2487.09,-231 2487.09,-231 2487.09,-217 2487.09,-217 2487.09,-211 2493.09,-205 2499.09,-205 2499.09,-205 2726.09,-205 2726.09,-205 2732.09,-205 2738.09,-211 2738.09,-217 2738.09,-217 2738.09,-231 2738.09,-231 2738.09,-237 2732.09,-243 2726.09,-243"/>
<text text-anchor="middle" x="2612.59" y="-227.8" font-family="Times-Roman" font-size="14.00">What&#39;s the Right Minimum Wage?</text>
<text text-anchor="middle" x="2612.59" y="-212.8" font-family="Times-Roman" font-size="14.00">4j01L69eXdI</text>
</g>
<!-- step5_current&#45;&gt;step5_opt4 -->
<g id="edge16" class="edge">
<title>step5_current&#45;&gt;step5_opt4</title>
<path fill="none" stroke="#888888" d="M2354.15,-288.34C2393.99,-276.86 2442.93,-263.17 2487.09,-252 2495.84,-249.79 2504.96,-247.57 2514.12,-245.4"/>
<polygon fill="#888888" stroke="#888888" points="2515.1,-248.76 2524.04,-243.07 2513.51,-241.95 2515.1,-248.76"/>
<text text-anchor="middle" x="2465.59" y="-260" font-family="Times-Roman" font-size="10.00">4</text>
</g>
</g>
</svg>
