<?xml version="1.0" encoding="UTF-8" standalone="no"?>
<!DOCTYPE svg PUBLIC "-//W3C//DTD SVG 1.1//EN"
 "http://www.w3.org/Graphics/SVG/1.1/DTD/svg11.dtd">
<!-- Generated by graphviz version 2.44.0 (0)
 -->
<!-- Pages: 1 -->
<svg width="11682pt" height="555pt"
 viewBox="0.00 0.00 11682.10 555.00" xmlns="http://www.w3.org/2000/svg" xmlns:xlink="http://www.w3.org/1999/xlink">
<g id="graph0" class="graph" transform="scale(1 1) rotate(0) translate(4 551)">
<polygon fill="white" stroke="transparent" points="-4,4 -4,-551 11678.1,-551 11678.1,4 -4,4"/>
<!-- opinion_initial -->
<g id="node1" class="node">
<title>opinion_initial</title>
<polygon fill="#fbeaea" stroke="#bf616a" stroke-width="2" points="228,-163 0,-163 0,-127 228,-127 228,-163"/>
<text text-anchor="middle" x="114" y="-141.3" font-family="Helvetica" font-size="14.00">Initial Minimum wage support: 0.05</text>
</g>
<!-- step1_current -->
<g id="node3" class="node">
<title>step1_current</title>
<ellipse fill="#eef3ff" stroke="black" cx="414.2" cy="-145" rx="149.4" ry="26.74"/>
<text text-anchor="middle" x="414.2" y="-148.8" font-family="Times-Roman" font-size="14.00">Raise The Minimum Wage &#45;&#45;</text>
<text text-anchor="middle" x="414.2" y="-133.8" font-family="Times-Roman" font-size="14.00">Robert Reich &amp; MoveOn.org</text>
</g>
<!-- opinion_initial&#45;&gt;step1_current -->
<g id="edge20" class="edge">
<title>opinion_initial&#45;&gt;step1_current</title>
<path fill="none" stroke="#bf616a" stroke-width="2.5" d="M228.16,-145C236.9,-145 245.81,-145 254.77,-145"/>
<polygon fill="#bf616a" stroke="#bf616a" stroke-width="2.5" points="254.9,-148.5 264.9,-145 254.9,-141.5 254.9,-148.5"/>
</g>
<!-- opinion_final -->
<g id="node2" class="node">
<title>opinion_final</title>
<polygon fill="#fbeaea" stroke="#bf616a" stroke-width="2" points="11674.1,-355 11408.1,-355 11408.1,-319 11674.1,-319 11674.1,-355"/>
<text text-anchor="middle" x="11541.1" y="-333.3" font-family="Helvetica" font-size="14.00">Final Minimum wage support: 0.2 (+0.15)</text>
</g>
<!-- step1_opt1 -->
<g id="node4" class="node">
<title>step1_opt1</title>
<path fill="#d7f5d0" stroke="#2d9c4a" stroke-width="2" d="M1740.4,-252C1740.4,-252 1539.4,-252 1539.4,-252 1533.4,-252 1527.4,-246 1527.4,-240 1527.4,-240 1527.4,-226 1527.4,-226 1527.4,-220 1533.4,-214 1539.4,-214 1539.4,-214 1740.4,-214 1740.4,-214 1746.4,-214 1752.4,-220 1752.4,-226 1752.4,-226 1752.4,-240 1752.4,-240 1752.4,-246 1746.4,-252 1740.4,-252"/>
<text text-anchor="middle" x="1639.9" y="-236.8" font-family="Times-Roman" font-size="14.00">Stossel: Minimum Wage Hurts</text>
<text text-anchor="middle" x="1639.9" y="-221.8" font-family="Times-Roman" font-size="14.00">Beginners</text>
</g>
<!-- step1_current&#45;&gt;step1_opt1 -->
<g id="edge1" class="edge">
<title>step1_current&#45;&gt;step1_opt1</title>
<path fill="none" stroke="#2d9c4a" stroke-width="2.5" d="M477.43,-169.34C514.3,-182.54 562.3,-197.63 606.4,-205 931.76,-259.38 1322.67,-250.06 1516.92,-240.51"/>
<polygon fill="#2d9c4a" stroke="#2d9c4a" stroke-width="2.5" points="1517.34,-244 1527.15,-240 1516.99,-237.01 1517.34,-244"/>
<text text-anchor="middle" x="584.9" y="-204" font-family="Times-Roman" font-size="10.00">1</text>
</g>
<!-- step1_opt2 -->
<g id="node5" class="node">
<title>step1_opt2</title>
<path fill="#ffffff" stroke="black" d="M1750.9,-196C1750.9,-196 1528.9,-196 1528.9,-196 1522.9,-196 1516.9,-190 1516.9,-184 1516.9,-184 1516.9,-170 1516.9,-170 1516.9,-164 1522.9,-158 1528.9,-158 1528.9,-158 1750.9,-158 1750.9,-158 1756.9,-158 1762.9,-164 1762.9,-170 1762.9,-170 1762.9,-184 1762.9,-184 1762.9,-190 1756.9,-196 1750.9,-196"/>
<text text-anchor="middle" x="1639.9" y="-180.8" font-family="Times-Roman" font-size="14.00">Caller: Minimum Wage Should be</text>
<text text-anchor="middle" x="1639.9" y="-165.8" font-family="Times-Roman" font-size="14.00">set by Supply &amp; Demand</text>
</g>
<!-- step1_current&#45;&gt;step1_opt2 -->
<g id="edge2" class="edge">
<title>step1_current&#45;&gt;step1_opt2</title>
<path fill="none" stroke="#888888" d="M561.89,-148.84C802.21,-155.12 1276.06,-167.51 1506.64,-173.54"/>
<polygon fill="#888888" stroke="#888888" points="1506.67,-177.04 1516.76,-173.81 1506.85,-170.05 1506.67,-177.04"/>
<text text-anchor="middle" x="584.9" y="-153" font-family="Times-Roman" font-size="10.00">2</text>
</g>
<!-- step1_opt3 -->
<g id="node6" class="node">
<title>step1_opt3</title>
<path fill="#ffffff" stroke="black" d="M2661.4,-139.5C2661.4,-139.5 618.4,-139.5 618.4,-139.5 612.4,-139.5 606.4,-133.5 606.4,-127.5 606.4,-127.5 606.4,-98.5 606.4,-98.5 606.4,-92.5 612.4,-86.5 618.4,-86.5 618.4,-86.5 2661.4,-86.5 2661.4,-86.5 2667.4,-86.5 2673.4,-92.5 2673.4,-98.5 2673.4,-98.5 2673.4,-127.5 2673.4,-127.5 2673.4,-133.5 2667.4,-139.5 2661.4,-139.5"/>
<text text-anchor="middle" x="1639.9" y="-124.3" font-family="Times-Roman" font-size="14.00">Fast Food CEO After Minimum</text>
<text text-anchor="middle" x="1639.9" y="-109.3" font-family="Times-Roman" font-size="14.00">Wage Increase: &quot;&quot;&quot;&quot;&quot;&quot;&quot;&quot;&quot;&quot;&quot;&quot;&quot;&quot;&quot;&quot;&quot;&quot;&quot;&quot;&quot;&quot;&quot;&quot;&quot;&quot;&quot;&quot;&quot;&quot;&quot;&quot;&quot;&quot;&quot;&quot;&quot;&quot;&quot;&quot;&quot;&quot;&quot;&quot;&quot;&quot;&quot;&quot;&quot;&quot;&quot;&quot;&quot;&quot;&quot;&quot;&quot;&quot;&quot;&quot;&quot;&quot;&quot;&quot;&quot;&quot;&quot;&quot;&quot;&quot;&quot;&quot;&quot;&quot;&quot;&quot;&quot;&quot;&quot;&quot;&quot;&quot;&quot;&quot;&quot;&quot;&quot;&quot;&quot;&quot;&quot;&quot;&quot;&quot;&quot;&quot;&quot;&quot;&quot;&quot;&quot;&quot;&quot;&quot;&quot;&quot;&quot;&quot;&quot;&quot;&quot;&quot;&quot;&quot;&quot;&quot;&quot;&quot;&quot;&quot;&quot;&quot;&quot;&quot;&quot;&quot;&quot;&quot;&quot;&quot;&quot;&quot;&quot;&quot;&quot;&quot;&quot;&quot;&quot;&quot;&quot;&quot;&quot;&quot;&quot;&quot;&quot;&quot;&quot;&quot;&quot;&quot;&quot;&quot;&quot;&quot;&quot;&quot;&quot;&quot;&quot;&quot;&quot;&quot;&quot;&quot;&quot;&quot;&quot;&quot;&quot;&quot;&quot;&quot;&quot;&quot;&quot;&quot;&quot;&quot;&quot;&quot;&quot;&quot;&quot;&quot;&quot;&quot;&quot;&quot;&quot;&quot;&quot;&quot;&quot;&quot;&quot;&quot;&quot;&quot;&quot;&quot;&quot;&quot;&quot;&quot;&quot;&quot;&quot;&quot;&quot;&quot;&quot;&quot;&quot;&quot;&quot;&quot;&quot;&quot;&quot;&quot;&quot;&quot;&quot;&quot;&quot;&quot;&quot;&quot;&quot;&quot;&quot;&quot;&quot;&quot;&quot;&quot;&quot;&quot;&quot;&quot;&quot;&quot;&quot;&quot;&quot;&quot;&quot;&quot;&quot;&quot;&quot;&quot;&quot;&quot;I was stunned by the business</text>
<text text-anchor="middle" x="1639.9" y="-94.3" font-family="Times-Roman" font-size="14.00">&quot;&quot;&quot;&quot;&quot;&quot;&quot;&quot;&quot;&quot;&quot;&quot;&quot;&quot;&quot;&quot;&quot;&quot;&quot;&quot;&quot;&quot;&quot;&quot;&quot;&quot;&quot;&quot;&quot;&quot;&quot;&quot;&quot;&quot;&quot;&quot;&quot;&quot;&quot;&quot;&quot;&quot;&quot;&quot;&quot;&quot;&quot;&quot;&quot;&quot;&quot;&quot;&quot;&quot;&quot;&quot;&quot;&quot;&quot;&quot;&quot;&quot;&quot;&quot;&quot;&quot;&quot;&quot;&quot;&quot;&quot;&quot;&quot;&quot;&quot;&quot;&quot;&quot;&quot;&quot;&quot;&quot;&quot;&quot;&quot;&quot;&quot;&quot;&quot;&quot;&quot;&quot;&quot;&quot;&quot;&quot;&quot;&quot;&quot;&quot;&quot;&quot;&quot;&quot;&quot;&quot;&quot;&quot;&quot;&quot;&quot;&quot;&quot;&quot;&quot;&quot;&quot;&quot;&quot;&quot;&quot;&quot;&quot;&quot;&quot;&quot;&quot;&quot;&quot;&quot;&quot;&quot;&quot;&quot;&quot;&quot;&quot;&quot;&quot;&quot;&quot;&quot;&quot;&quot;&quot;&quot;&quot;&quot;&quot;&quot;&quot;&quot;&quot;&quot;&quot;&quot;&quot;&quot;&quot;&quot;&quot;&quot;&quot;&quot;&quot;&quot;&quot;&quot;&quot;&quot;&quot;&quot;&quot;&quot;&quot;&quot;&quot;&quot;&quot;&quot;&quot;&quot;&quot;&quot;&quot;&quot;&quot;&quot;&quot;&quot;&quot;&quot;&quot;&quot;&quot;&quot;&quot;&quot;&quot;&quot;&quot;&quot;&quot;&quot;&quot;&quot;&quot;&quot;&quot;&quot;&quot;&quot;&quot;&quot;&quot;&quot;&quot;&quot;&quot;&quot;&quot;&quot;&quot;&quot;&quot;&quot;&quot;&quot;&quot;&quot;&quot;&quot;&quot;&quot;&quot;&quot;&quot;&quot;&quot;&quot;&quot;&quot;&quot;&quot;&quot;&quot;&quot;&quot;&quot;&quot;&quot;&quot;&quot;&quot;&quot;&quot;</text>
</g>
<!-- step1_current&#45;&gt;step1_opt3 -->
<g id="edge3" class="edge">
<title>step1_current&#45;&gt;step1_opt3</title>
<path fill="none" stroke="#888888" d="M555.28,-136.18C564.12,-135.74 572.88,-135.34 581.4,-135 586.3,-134.8 591.22,-134.6 596.14,-134.41"/>
<polygon fill="#888888" stroke="#888888" points="596.42,-137.9 606.27,-134.01 596.15,-130.91 596.42,-137.9"/>
<text text-anchor="middle" x="584.9" y="-138" font-family="Times-Roman" font-size="10.00">3</text>
</g>
<!-- step1_opt4 -->
<g id="node7" class="node">
<title>step1_opt4</title>
<path fill="#ffffff" stroke="black" d="M1735.4,-68C1735.4,-68 1544.4,-68 1544.4,-68 1538.4,-68 1532.4,-62 1532.4,-56 1532.4,-56 1532.4,-12 1532.4,-12 1532.4,-6 1538.4,0 1544.4,0 1544.4,0 1735.4,0 1735.4,0 1741.4,0 1747.4,-6 1747.4,-12 1747.4,-12 1747.4,-56 1747.4,-56 1747.4,-62 1741.4,-68 1735.4,-68"/>
<text text-anchor="middle" x="1639.9" y="-52.8" font-family="Times-Roman" font-size="14.00">The 5 Biggest Myths</text>
<text text-anchor="middle" x="1639.9" y="-37.8" font-family="Times-Roman" font-size="14.00">Republicans Use to Avoid</text>
<text text-anchor="middle" x="1639.9" y="-22.8" font-family="Times-Roman" font-size="14.00">Raising the Minimum Wage |</text>
<text text-anchor="middle" x="1639.9" y="-7.8" font-family="Times-Roman" font-size="14.00">Opinions | NowThis</text>
</g>
<!-- step1_current&#45;&gt;step1_opt4 -->
<g id="edge4" class="edge">
<title>step1_current&#45;&gt;step1_opt4</title>
<path fill="none" stroke="#888888" d="M471.26,-120.03C508.72,-104.61 559.53,-86.09 606.4,-77 933.42,-13.54 1329.23,-19.52 1522,-27.59"/>
<polygon fill="#888888" stroke="#888888" points="1522.01,-31.09 1532.15,-28.02 1522.31,-24.1 1522.01,-31.09"/>
<text text-anchor="middle" x="584.9" y="-85" font-family="Times-Roman" font-size="10.00">4</text>
</g>
<!-- step2_current -->
<g id="node8" class="node">
<title>step2_current</title>
<ellipse fill="#eef3ff" stroke="black" cx="2910.5" cy="-233" rx="159.2" ry="26.74"/>
<text text-anchor="middle" x="2910.5" y="-236.8" font-family="Times-Roman" font-size="14.00">Stossel: Minimum Wage Hurts</text>
<text text-anchor="middle" x="2910.5" y="-221.8" font-family="Times-Roman" font-size="14.00">Beginners</text>
</g>
<!-- step1_opt1&#45;&gt;step2_current -->
<g id="edge17" class="edge">
<title>step1_opt1&#45;&gt;step2_current</title>
<path fill="none" stroke="#2d9c4a" stroke-width="2.5" stroke-dasharray="5,2" d="M1752.64,-233C1975.84,-233 2477.92,-233 2741.18,-233"/>
<polygon fill="#2d9c4a" stroke="#2d9c4a" stroke-width="2.5" points="2741.21,-236.5 2751.21,-233 2741.21,-229.5 2741.21,-236.5"/>
<text text-anchor="middle" x="2712.4" y="-236" font-family="Times-Roman" font-size="10.00">selected</text>
</g>
<!-- step2_opt1 -->
<g id="node9" class="node">
<title>step2_opt1</title>
<path fill="#d7f5d0" stroke="#2d9c4a" stroke-width="2" d="M3341.6,-348C3341.6,-348 3135.6,-348 3135.6,-348 3129.6,-348 3123.6,-342 3123.6,-336 3123.6,-336 3123.6,-322 3123.6,-322 3123.6,-316 3129.6,-310 3135.6,-310 3135.6,-310 3341.6,-310 3341.6,-310 3347.6,-310 3353.6,-316 3353.6,-322 3353.6,-322 3353.6,-336 3353.6,-336 3353.6,-342 3347.6,-348 3341.6,-348"/>
<text text-anchor="middle" x="3238.6" y="-332.8" font-family="Times-Roman" font-size="14.00">What the US gets wrong about</text>
<text text-anchor="middle" x="3238.6" y="-317.8" font-family="Times-Roman" font-size="14.00">minimum wage</text>
</g>
<!-- step2_current&#45;&gt;step2_opt1 -->
<g id="edge5" class="edge">
<title>step2_current&#45;&gt;step2_opt1</title>
<path fill="none" stroke="#2d9c4a" stroke-width="2.5" d="M2977.98,-257.45C3016.9,-271.27 3067.17,-288.27 3112.6,-301 3120.6,-303.24 3128.93,-305.43 3137.32,-307.52"/>
<polygon fill="#2d9c4a" stroke="#2d9c4a" stroke-width="2.5" points="3136.64,-310.96 3147.19,-309.94 3138.31,-304.16 3136.64,-310.96"/>
<text text-anchor="middle" x="3091.1" y="-297" font-family="Times-Roman" font-size="10.00">1</text>
</g>
<!-- step2_opt2 -->
<g id="node10" class="node">
<title>step2_opt2</title>
<path fill="#ffffff" stroke="black" d="M3352.6,-291.5C3352.6,-291.5 3124.6,-291.5 3124.6,-291.5 3118.6,-291.5 3112.6,-285.5 3112.6,-279.5 3112.6,-279.5 3112.6,-250.5 3112.6,-250.5 3112.6,-244.5 3118.6,-238.5 3124.6,-238.5 3124.6,-238.5 3352.6,-238.5 3352.6,-238.5 3358.6,-238.5 3364.6,-244.5 3364.6,-250.5 3364.6,-250.5 3364.6,-279.5 3364.6,-279.5 3364.6,-285.5 3358.6,-291.5 3352.6,-291.5"/>
<text text-anchor="middle" x="3238.6" y="-276.3" font-family="Times-Roman" font-size="14.00">What They DONT TELL YOU About</text>
<text text-anchor="middle" x="3238.6" y="-261.3" font-family="Times-Roman" font-size="14.00">Minimum Wage... | Thomas</text>
<text text-anchor="middle" x="3238.6" y="-246.3" font-family="Times-Roman" font-size="14.00">Sowell</text>
</g>
<!-- step2_current&#45;&gt;step2_opt2 -->
<g id="edge6" class="edge">
<title>step2_current&#45;&gt;step2_opt2</title>
<path fill="none" stroke="#888888" d="M3048.38,-246.43C3066.15,-248.18 3084.35,-249.96 3102.11,-251.7"/>
<polygon fill="#888888" stroke="#888888" points="3102.21,-255.23 3112.5,-252.72 3102.89,-248.26 3102.21,-255.23"/>
<text text-anchor="middle" x="3091.1" y="-254" font-family="Times-Roman" font-size="10.00">2</text>
</g>
<!-- step2_opt3 -->
<g id="node11" class="node">
<title>step2_opt3</title>
<path fill="#ffffff" stroke="black" d="M3335.6,-220C3335.6,-220 3141.6,-220 3141.6,-220 3135.6,-220 3129.6,-214 3129.6,-208 3129.6,-208 3129.6,-194 3129.6,-194 3129.6,-188 3135.6,-182 3141.6,-182 3141.6,-182 3335.6,-182 3335.6,-182 3341.6,-182 3347.6,-188 3347.6,-194 3347.6,-194 3347.6,-208 3347.6,-208 3347.6,-214 3341.6,-220 3335.6,-220"/>
<text text-anchor="middle" x="3238.6" y="-204.8" font-family="Times-Roman" font-size="14.00">Here’s the Truth About a $15</text>
<text text-anchor="middle" x="3238.6" y="-189.8" font-family="Times-Roman" font-size="14.00">Minimum Wage</text>
</g>
<!-- step2_current&#45;&gt;step2_opt3 -->
<g id="edge7" class="edge">
<title>step2_current&#45;&gt;step2_opt3</title>
<path fill="none" stroke="#888888" d="M3048.38,-219.57C3071.99,-217.25 3096.35,-214.86 3119.41,-212.6"/>
<polygon fill="#888888" stroke="#888888" points="3119.95,-216.06 3129.56,-211.6 3119.26,-209.1 3119.95,-216.06"/>
<text text-anchor="middle" x="3091.1" y="-219" font-family="Times-Roman" font-size="10.00">3</text>
</g>
<!-- step2_opt4 -->
<g id="node12" class="node">
<title>step2_opt4</title>
<path fill="#ffffff" stroke="black" d="M3329.6,-164C3329.6,-164 3147.6,-164 3147.6,-164 3141.6,-164 3135.6,-158 3135.6,-152 3135.6,-152 3135.6,-138 3135.6,-138 3135.6,-132 3141.6,-126 3147.6,-126 3147.6,-126 3329.6,-126 3329.6,-126 3335.6,-126 3341.6,-132 3341.6,-138 3341.6,-138 3341.6,-152 3341.6,-152 3341.6,-158 3335.6,-164 3329.6,-164"/>
<text text-anchor="middle" x="3238.6" y="-148.8" font-family="Times-Roman" font-size="14.00">Gutfeld: Seattle&#39;s minimum</text>
<text text-anchor="middle" x="3238.6" y="-133.8" font-family="Times-Roman" font-size="14.00">wage hike failures</text>
</g>
<!-- step2_current&#45;&gt;step2_opt4 -->
<g id="edge8" class="edge">
<title>step2_current&#45;&gt;step2_opt4</title>
<path fill="none" stroke="#888888" d="M2986.59,-209.24C3024.24,-197.68 3070.64,-183.94 3112.6,-173 3121.21,-170.75 3130.18,-168.52 3139.2,-166.36"/>
<polygon fill="#888888" stroke="#888888" points="3140.05,-169.76 3148.98,-164.05 3138.44,-162.95 3140.05,-169.76"/>
<text text-anchor="middle" x="3091.1" y="-182" font-family="Times-Roman" font-size="10.00">4</text>
</g>
<!-- step3_current -->
<g id="node13" class="node">
<title>step3_current</title>
<ellipse fill="#eef3ff" stroke="black" cx="3605.23" cy="-329" rx="162.77" ry="26.74"/>
<text text-anchor="middle" x="3605.23" y="-332.8" font-family="Times-Roman" font-size="14.00">What the US gets wrong about</text>
<text text-anchor="middle" x="3605.23" y="-317.8" font-family="Times-Roman" font-size="14.00">minimum wage</text>
</g>
<!-- step2_opt1&#45;&gt;step3_current -->
<g id="edge18" class="edge">
<title>step2_opt1&#45;&gt;step3_current</title>
<path fill="none" stroke="#2d9c4a" stroke-width="2.5" stroke-dasharray="5,2" d="M3353.97,-329C3378.88,-329 3405.76,-329 3432.35,-329"/>
<polygon fill="#2d9c4a" stroke="#2d9c4a" stroke-width="2.5" points="3432.52,-332.5 3442.52,-329 3432.52,-325.5 3432.52,-332.5"/>
<text text-anchor="middle" x="3403.6" y="-332" font-family="Times-Roman" font-size="10.00">selected</text>
</g>
<!-- step3_opt1 -->
<g id="node14" class="node">
<title>step3_opt1</title>
<path fill="#d7f5d0" stroke="#2d9c4a" stroke-width="2" d="M4939.87,-474C4939.87,-474 4748.87,-474 4748.87,-474 4742.87,-474 4736.87,-468 4736.87,-462 4736.87,-462 4736.87,-418 4736.87,-418 4736.87,-412 4742.87,-406 4748.87,-406 4748.87,-406 4939.87,-406 4939.87,-406 4945.87,-406 4951.87,-412 4951.87,-418 4951.87,-418 4951.87,-462 4951.87,-462 4951.87,-468 4945.87,-474 4939.87,-474"/>
<text text-anchor="middle" x="4844.37" y="-458.8" font-family="Times-Roman" font-size="14.00">The 5 Biggest Myths</text>
<text text-anchor="middle" x="4844.37" y="-443.8" font-family="Times-Roman" font-size="14.00">Republicans Use to Avoid</text>
<text text-anchor="middle" x="4844.37" y="-428.8" font-family="Times-Roman" font-size="14.00">Raising the Minimum Wage |</text>
<text text-anchor="middle" x="4844.37" y="-413.8" font-family="Times-Roman" font-size="14.00">Opinions | NowThis</text>
</g>
<!-- step3_current&#45;&gt;step3_opt1 -->
<g id="edge9" class="edge">
<title>step3_current&#45;&gt;step3_opt1</title>
<path fill="none" stroke="#2d9c4a" stroke-width="2.5" d="M3666.4,-353.94C3706.56,-369.34 3760.97,-387.86 3810.87,-397 4138.53,-457.04 4534.05,-452.61 4726.61,-445.64"/>
<polygon fill="#2d9c4a" stroke="#2d9c4a" stroke-width="2.5" points="4726.89,-449.13 4736.75,-445.26 4726.63,-442.14 4726.89,-449.13"/>
<text text-anchor="middle" x="3789.37" y="-395" font-family="Times-Roman" font-size="10.00">1</text>
</g>
<!-- step3_opt2 -->
<g id="node15" class="node">
<title>step3_opt2</title>
<path fill="#ffffff" stroke="black" d="M5865.87,-387.5C5865.87,-387.5 3822.87,-387.5 3822.87,-387.5 3816.87,-387.5 3810.87,-381.5 3810.87,-375.5 3810.87,-375.5 3810.87,-346.5 3810.87,-346.5 3810.87,-340.5 3816.87,-334.5 3822.87,-334.5 3822.87,-334.5 5865.87,-334.5 5865.87,-334.5 5871.87,-334.5 5877.87,-340.5 5877.87,-346.5 5877.87,-346.5 5877.87,-375.5 5877.87,-375.5 5877.87,-381.5 5871.87,-387.5 5865.87,-387.5"/>
<text text-anchor="middle" x="4844.37" y="-372.3" font-family="Times-Roman" font-size="14.00">Fast Food CEO After Minimum</text>
<text text-anchor="middle" x="4844.37" y="-357.3" font-family="Times-Roman" font-size="14.00">Wage Increase: &quot;&quot;&quot;&quot;&quot;&quot;&quot;&quot;&quot;&quot;&quot;&quot;&quot;&quot;&quot;&quot;&quot;&quot;&quot;&quot;&quot;&quot;&quot;&quot;&quot;&quot;&quot;&quot;&quot;&quot;&quot;&quot;&quot;&quot;&quot;&quot;&quot;&quot;&quot;&quot;&quot;&quot;&quot;&quot;&quot;&quot;&quot;&quot;&quot;&quot;&quot;&quot;&quot;&quot;&quot;&quot;&quot;&quot;&quot;&quot;&quot;&quot;&quot;&quot;&quot;&quot;&quot;&quot;&quot;&quot;&quot;&quot;&quot;&quot;&quot;&quot;&quot;&quot;&quot;&quot;&quot;&quot;&quot;&quot;&quot;&quot;&quot;&quot;&quot;&quot;&quot;&quot;&quot;&quot;&quot;&quot;&quot;&quot;&quot;&quot;&quot;&quot;&quot;&quot;&quot;&quot;&quot;&quot;&quot;&quot;&quot;&quot;&quot;&quot;&quot;&quot;&quot;&quot;&quot;&quot;&quot;&quot;&quot;&quot;&quot;&quot;&quot;&quot;&quot;&quot;&quot;&quot;&quot;&quot;&quot;&quot;&quot;&quot;&quot;&quot;&quot;&quot;&quot;&quot;&quot;&quot;&quot;&quot;&quot;&quot;&quot;&quot;&quot;&quot;&quot;&quot;&quot;&quot;&quot;&quot;&quot;&quot;&quot;&quot;&quot;&quot;&quot;&quot;&quot;&quot;&quot;&quot;&quot;&quot;&quot;&quot;&quot;&quot;&quot;&quot;&quot;&quot;&quot;&quot;&quot;&quot;&quot;&quot;&quot;&quot;&quot;&quot;&quot;&quot;&quot;&quot;&quot;&quot;&quot;&quot;&quot;&quot;&quot;&quot;&quot;&quot;&quot;&quot;&quot;&quot;&quot;&quot;&quot;&quot;&quot;&quot;&quot;&quot;&quot;&quot;&quot;&quot;&quot;&quot;&quot;&quot;&quot;&quot;&quot;&quot;&quot;&quot;&quot;&quot;&quot;&quot;&quot;&quot;&quot;&quot;&quot;&quot;&quot;&quot;&quot;&quot;&quot;&quot;&quot;&quot;&quot;&quot;&quot;&quot;&quot;&quot;I was stunned by the business</text>
<text text-anchor="middle" x="4844.37" y="-342.3" font-family="Times-Roman" font-size="14.00">&quot;&quot;&quot;&quot;&quot;&quot;&quot;&quot;&quot;&quot;&quot;&quot;&quot;&quot;&quot;&quot;&quot;&quot;&quot;&quot;&quot;&quot;&quot;&quot;&quot;&quot;&quot;&quot;&quot;&quot;&quot;&quot;&quot;&quot;&quot;&quot;&quot;&quot;&quot;&quot;&quot;&quot;&quot;&quot;&quot;&quot;&quot;&quot;&quot;&quot;&quot;&quot;&quot;&quot;&quot;&quot;&quot;&quot;&quot;&quot;&quot;&quot;&quot;&quot;&quot;&quot;&quot;&quot;&quot;&quot;&quot;&quot;&quot;&quot;&quot;&quot;&quot;&quot;&quot;&quot;&quot;&quot;&quot;&quot;&quot;&quot;&quot;&quot;&quot;&quot;&quot;&quot;&quot;&quot;&quot;&quot;&quot;&quot;&quot;&quot;&quot;&quot;&quot;&quot;&quot;&quot;&quot;&quot;&quot;&quot;&quot;&quot;&quot;&quot;&quot;&quot;&quot;&quot;&quot;&quot;&quot;&quot;&quot;&quot;&quot;&quot;&quot;&quot;&quot;&quot;&quot;&quot;&quot;&quot;&quot;&quot;&quot;&quot;&quot;&quot;&quot;&quot;&quot;&quot;&quot;&quot;&quot;&quot;&quot;&quot;&quot;&quot;&quot;&quot;&quot;&quot;&quot;&quot;&quot;&quot;&quot;&quot;&quot;&quot;&quot;&quot;&quot;&quot;&quot;&quot;&quot;&quot;&quot;&quot;&quot;&quot;&quot;&quot;&quot;&quot;&quot;&quot;&quot;&quot;&quot;&quot;&quot;&quot;&quot;&quot;&quot;&quot;&quot;&quot;&quot;&quot;&quot;&quot;&quot;&quot;&quot;&quot;&quot;&quot;&quot;&quot;&quot;&quot;&quot;&quot;&quot;&quot;&quot;&quot;&quot;&quot;&quot;&quot;&quot;&quot;&quot;&quot;&quot;&quot;&quot;&quot;&quot;&quot;&quot;&quot;&quot;&quot;&quot;&quot;&quot;&quot;&quot;&quot;&quot;&quot;&quot;&quot;&quot;&quot;&quot;&quot;&quot;&quot;&quot;&quot;&quot;&quot;&quot;&quot;&quot;&quot;</text>
</g>
<!-- step3_current&#45;&gt;step3_opt2 -->
<g id="edge10" class="edge">
<title>step3_current&#45;&gt;step3_opt2</title>
<path fill="none" stroke="#888888" d="M3766.06,-333.13C3779.53,-333.48 3793.66,-333.85 3808.38,-334.23"/>
<polygon fill="#888888" stroke="#888888" points="3808.57,-337.73 3818.66,-334.49 3808.75,-330.74 3808.57,-337.73"/>
<text text-anchor="middle" x="3789.37" y="-336" font-family="Times-Roman" font-size="10.00">2</text>
</g>
<!-- step3_opt3 -->
<g id="node16" class="node">
<title>step3_opt3</title>
<path fill="#ffffff" stroke="black" d="M4941.37,-316C4941.37,-316 4747.37,-316 4747.37,-316 4741.37,-316 4735.37,-310 4735.37,-304 4735.37,-304 4735.37,-290 4735.37,-290 4735.37,-284 4741.37,-278 4747.37,-278 4747.37,-278 4941.37,-278 4941.37,-278 4947.37,-278 4953.37,-284 4953.37,-290 4953.37,-290 4953.37,-304 4953.37,-304 4953.37,-310 4947.37,-316 4941.37,-316"/>
<text text-anchor="middle" x="4844.37" y="-300.8" font-family="Times-Roman" font-size="14.00">Milton Friedman on Minimum</text>
<text text-anchor="middle" x="4844.37" y="-285.8" font-family="Times-Roman" font-size="14.00">Wage</text>
</g>
<!-- step3_current&#45;&gt;step3_opt3 -->
<g id="edge11" class="edge">
<title>step3_current&#45;&gt;step3_opt3</title>
<path fill="none" stroke="#888888" d="M3757.15,-319.31C3766.86,-318.82 3776.5,-318.38 3785.87,-318 4126.72,-304.19 4529.75,-299.36 4725.23,-297.76"/>
<polygon fill="#888888" stroke="#888888" points="4725.26,-301.26 4735.23,-297.67 4725.21,-294.26 4725.26,-301.26"/>
<text text-anchor="middle" x="3789.37" y="-321" font-family="Times-Roman" font-size="10.00">3</text>
</g>
<!-- step3_opt4 -->
<g id="node17" class="node">
<title>step3_opt4</title>
<path fill="#ffffff" stroke="black" d="M4951.87,-260C4951.87,-260 4736.87,-260 4736.87,-260 4730.87,-260 4724.87,-254 4724.87,-248 4724.87,-248 4724.87,-234 4724.87,-234 4724.87,-228 4730.87,-222 4736.87,-222 4736.87,-222 4951.87,-222 4951.87,-222 4957.87,-222 4963.87,-228 4963.87,-234 4963.87,-234 4963.87,-248 4963.87,-248 4963.87,-254 4957.87,-260 4951.87,-260"/>
<text text-anchor="middle" x="4844.37" y="-244.8" font-family="Times-Roman" font-size="14.00">Walmart CEO: Federal minimum</text>
<text text-anchor="middle" x="4844.37" y="-229.8" font-family="Times-Roman" font-size="14.00">wage should be raised</text>
</g>
<!-- step3_current&#45;&gt;step3_opt4 -->
<g id="edge12" class="edge">
<title>step3_current&#45;&gt;step3_opt4</title>
<path fill="none" stroke="#888888" d="M3673.44,-304.53C3712.9,-291.37 3764.05,-276.37 3810.87,-269 4132.97,-218.29 4518.42,-225.49 4714.72,-233.92"/>
<polygon fill="#888888" stroke="#888888" points="4714.64,-237.42 4724.78,-234.36 4714.94,-230.43 4714.64,-237.42"/>
<text text-anchor="middle" x="3789.37" y="-276" font-family="Times-Roman" font-size="10.00">4</text>
</g>
<!-- step4_current -->
<g id="node18" class="node">
<title>step4_current</title>
<ellipse fill="#eef3ff" stroke="black" cx="6107.89" cy="-440" rx="152.06" ry="48.17"/>
<text text-anchor="middle" x="6107.89" y="-458.8" font-family="Times-Roman" font-size="14.00">The 5 Biggest Myths</text>
<text text-anchor="middle" x="6107.89" y="-443.8" font-family="Times-Roman" font-size="14.00">Republicans Use to Avoid</text>
<text text-anchor="middle" x="6107.89" y="-428.8" font-family="Times-Roman" font-size="14.00">Raising the Minimum Wage |</text>
<text text-anchor="middle" x="6107.89" y="-413.8" font-family="Times-Roman" font-size="14.00">Opinions | NowThis</text>
</g>
<!-- step3_opt1&#45;&gt;step4_current -->
<g id="edge19" class="edge">
<title>step3_opt1&#45;&gt;step4_current</title>
<path fill="none" stroke="#2d9c4a" stroke-width="2.5" stroke-dasharray="5,2" d="M4952.11,-440C5173.42,-440 5683.41,-440 5945.28,-440"/>
<polygon fill="#2d9c4a" stroke="#2d9c4a" stroke-width="2.5" points="5945.64,-443.5 5955.64,-440 5945.64,-436.5 5945.64,-443.5"/>
<text text-anchor="middle" x="5916.87" y="-443" font-family="Times-Roman" font-size="10.00">selected</text>
</g>
<!-- step4_opt1 -->
<g id="node19" class="node">
<title>step4_opt1</title>
<path fill="#ffffff" stroke="black" d="M7438.42,-547C7438.42,-547 7234.42,-547 7234.42,-547 7228.42,-547 7222.42,-541 7222.42,-535 7222.42,-535 7222.42,-521 7222.42,-521 7222.42,-515 7228.42,-509 7234.42,-509 7234.42,-509 7438.42,-509 7438.42,-509 7444.42,-509 7450.42,-515 7450.42,-521 7450.42,-521 7450.42,-535 7450.42,-535 7450.42,-541 7444.42,-547 7438.42,-547"/>
<text text-anchor="middle" x="7336.42" y="-531.8" font-family="Times-Roman" font-size="14.00">Should We Raise the Minimum</text>
<text text-anchor="middle" x="7336.42" y="-516.8" font-family="Times-Roman" font-size="14.00">Wage?</text>
</g>
<!-- step4_current&#45;&gt;step4_opt1 -->
<g id="edge13" class="edge">
<title>step4_current&#45;&gt;step4_opt1</title>
<path fill="none" stroke="#888888" d="M6207.85,-476.29C6237.97,-485.79 6271.44,-494.81 6302.92,-500 6627.53,-553.55 7017.17,-544.73 7211.91,-535.43"/>
<polygon fill="#888888" stroke="#888888" points="7212.35,-538.91 7222.17,-534.93 7212.01,-531.92 7212.35,-538.91"/>
<text text-anchor="middle" x="6281.42" y="-498" font-family="Times-Roman" font-size="10.00">1</text>
</g>
<!-- step4_opt2 -->
<g id="node20" class="node">
<title>step4_opt2</title>
<path fill="#ffffff" stroke="black" d="M7445.42,-491C7445.42,-491 7227.42,-491 7227.42,-491 7221.42,-491 7215.42,-485 7215.42,-479 7215.42,-479 7215.42,-465 7215.42,-465 7215.42,-459 7221.42,-453 7227.42,-453 7227.42,-453 7445.42,-453 7445.42,-453 7451.42,-453 7457.42,-459 7457.42,-465 7457.42,-465 7457.42,-479 7457.42,-479 7457.42,-485 7451.42,-491 7445.42,-491"/>
<text text-anchor="middle" x="7336.42" y="-475.8" font-family="Times-Roman" font-size="14.00">Why Raising the Minimum Wage</text>
<text text-anchor="middle" x="7336.42" y="-460.8" font-family="Times-Roman" font-size="14.00">Doesn&#39;t Cause Inflation</text>
</g>
<!-- step4_current&#45;&gt;step4_opt2 -->
<g id="edge14" class="edge">
<title>step4_current&#45;&gt;step4_opt2</title>
<path fill="none" stroke="#888888" d="M6259.6,-443.93C6502.39,-450.27 6976.01,-462.62 7205.11,-468.6"/>
<polygon fill="#888888" stroke="#888888" points="7205.08,-472.1 7215.16,-468.86 7205.26,-465.1 7205.08,-472.1"/>
<text text-anchor="middle" x="6281.42" y="-447" font-family="Times-Roman" font-size="10.00">2</text>
</g>
<!-- step4_opt3 -->
<g id="node21" class="node">
<title>step4_opt3</title>
<path fill="#ffffff" stroke="black" d="M7451.42,-434.5C7451.42,-434.5 7221.42,-434.5 7221.42,-434.5 7215.42,-434.5 7209.42,-428.5 7209.42,-422.5 7209.42,-422.5 7209.42,-393.5 7209.42,-393.5 7209.42,-387.5 7215.42,-381.5 7221.42,-381.5 7221.42,-381.5 7451.42,-381.5 7451.42,-381.5 7457.42,-381.5 7463.42,-387.5 7463.42,-393.5 7463.42,-393.5 7463.42,-422.5 7463.42,-422.5 7463.42,-428.5 7457.42,-434.5 7451.42,-434.5"/>
<text text-anchor="middle" x="7336.42" y="-419.3" font-family="Times-Roman" font-size="14.00">SOMEONE GIVE HIM A RAISE: Ben</text>
<text text-anchor="middle" x="7336.42" y="-404.3" font-family="Times-Roman" font-size="14.00">Shapiro kills the minimum wage</text>
<text text-anchor="middle" x="7336.42" y="-389.3" font-family="Times-Roman" font-size="14.00">argument for good</text>
</g>
<!-- step4_current&#45;&gt;step4_opt3 -->
<g id="edge15" class="edge">
<title>step4_current&#45;&gt;step4_opt3</title>
<path fill="none" stroke="#888888" d="M6256.83,-429.99C6263.96,-429.63 6271.02,-429.29 6277.92,-429 6608.54,-414.97 6997.71,-410.28 7199.17,-408.74"/>
<polygon fill="#888888" stroke="#888888" points="7199.23,-412.24 7209.21,-408.67 7199.18,-405.24 7199.23,-412.24"/>
<text text-anchor="middle" x="6281.42" y="-432" font-family="Times-Roman" font-size="10.00">3</text>
</g>
<!-- step4_opt4 -->
<g id="node22" class="node">
<title>step4_opt4</title>
<path fill="#d7f5d0" stroke="#2d9c4a" stroke-width="2" d="M8357.92,-363.5C8357.92,-363.5 6314.92,-363.5 6314.92,-363.5 6308.92,-363.5 6302.92,-357.5 6302.92,-351.5 6302.92,-351.5 6302.92,-322.5 6302.92,-322.5 6302.92,-316.5 6308.92,-310.5 6314.92,-310.5 6314.92,-310.5 8357.92,-310.5 8357.92,-310.5 8363.92,-310.5 8369.92,-316.5 8369.92,-322.5 8369.92,-322.5 8369.92,-351.5 8369.92,-351.5 8369.92,-357.5 8363.92,-363.5 8357.92,-363.5"/>
<text text-anchor="middle" x="7336.42" y="-348.3" font-family="Times-Roman" font-size="14.00">Fast Food CEO After Minimum</text>
<text text-anchor="middle" x="7336.42" y="-333.3" font-family="Times-Roman" font-size="14.00">Wage Increase: &quot;&quot;&quot;&quot;&quot;&quot;&quot;&quot;&quot;&quot;&quot;&quot;&quot;&quot;&quot;&quot;&quot;&quot;&quot;&quot;&quot;&quot;&quot;&quot;&quot;&quot;&quot;&quot;&quot;&quot;&quot;&quot;&quot;&quot;&quot;&quot;&quot;&quot;&quot;&quot;&quot;&quot;&quot;&quot;&quot;&quot;&quot;&quot;&quot;&quot;&quot;&quot;&quot;&quot;&quot;&quot;&quot;&quot;&quot;&quot;&quot;&quot;&quot;&quot;&quot;&quot;&quot;&quot;&quot;&quot;&quot;&quot;&quot;&quot;&quot;&quot;&quot;&quot;&quot;&quot;&quot;&quot;&quot;&quot;&quot;&quot;&quot;&quot;&quot;&quot;&quot;&quot;&quot;&quot;&quot;&quot;&quot;&quot;&quot;&quot;&quot;&quot;&quot;&quot;&quot;&quot;&quot;&quot;&quot;&quot;&quot;&quot;&quot;&quot;&quot;&quot;&quot;&quot;&quot;&quot;&quot;&quot;&quot;&quot;&quot;&quot;&quot;&quot;&quot;&quot;&quot;&quot;&quot;&quot;&quot;&quot;&quot;&quot;&quot;&quot;&quot;&quot;&quot;&quot;&quot;&quot;&quot;&quot;&quot;&quot;&quot;&quot;&quot;&quot;&quot;&quot;&quot;&quot;&quot;&quot;&quot;&quot;&quot;&quot;&quot;&quot;&quot;&quot;&quot;&quot;&quot;&quot;&quot;&quot;&quot;&quot;&quot;&quot;&quot;&quot;&quot;&quot;&quot;&quot;&quot;&quot;&quot;&quot;&quot;&quot;&quot;&quot;&quot;&quot;&quot;&quot;&quot;&quot;&quot;&quot;&quot;&quot;&quot;&quot;&quot;&quot;&quot;&quot;&quot;&quot;&quot;&quot;&quot;&quot;&quot;&quot;&quot;&quot;&quot;&quot;&quot;&quot;&quot;&quot;&quot;&quot;&quot;&quot;&quot;&quot;&quot;&quot;&quot;&quot;&quot;&quot;&quot;&quot;&quot;&quot;&quot;&quot;&quot;&quot;&quot;&quot;&quot;&quot;&quot;&quot;&quot;&quot;&quot;&quot;&quot;&quot;I was stunned by the business</text>
<text text-anchor="middle" x="7336.42" y="-318.3" font-family="Times-Roman" font-size="14.00">&quot;&quot;&quot;&quot;&quot;&quot;&quot;&quot;&quot;&quot;&quot;&quot;&quot;&quot;&quot;&quot;&quot;&quot;&quot;&quot;&quot;&quot;&quot;&quot;&quot;&quot;&quot;&quot;&quot;&quot;&quot;&quot;&quot;&quot;&quot;&quot;&quot;&quot;&quot;&quot;&quot;&quot;&quot;&quot;&quot;&quot;&quot;&quot;&quot;&quot;&quot;&quot;&quot;&quot;&quot;&quot;&quot;&quot;&quot;&quot;&quot;&quot;&quot;&quot;&quot;&quot;&quot;&quot;&quot;&quot;&quot;&quot;&quot;&quot;&quot;&quot;&quot;&quot;&quot;&quot;&quot;&quot;&quot;&quot;&quot;&quot;&quot;&quot;&quot;&quot;&quot;&quot;&quot;&quot;&quot;&quot;&quot;&quot;&quot;&quot;&quot;&quot;&quot;&quot;&quot;&quot;&quot;&quot;&quot;&quot;&quot;&quot;&quot;&quot;&quot;&quot;&quot;&quot;&quot;&quot;&quot;&quot;&quot;&quot;&quot;&quot;&quot;&quot;&quot;&quot;&quot;&quot;&quot;&quot;&quot;&quot;&quot;&quot;&quot;&quot;&quot;&quot;&quot;&quot;&quot;&quot;&quot;&quot;&quot;&quot;&quot;&quot;&quot;&quot;&quot;&quot;&quot;&quot;&quot;&quot;&quot;&quot;&quot;&quot;&quot;&quot;&quot;&quot;&quot;&quot;&quot;&quot;&quot;&quot;&quot;&quot;&quot;&quot;&quot;&quot;&quot;&quot;&quot;&quot;&quot;&quot;&quot;&quot;&quot;&quot;&quot;&quot;&quot;&quot;&quot;&quot;&quot;&quot;&quot;&quot;&quot;&quot;&quot;&quot;&quot;&quot;&quot;&quot;&quot;&quot;&quot;&quot;&quot;&quot;&quot;&quot;&quot;&quot;&quot;&quot;&quot;&quot;&quot;&quot;&quot;&quot;&quot;&quot;&quot;&quot;&quot;&quot;&quot;&quot;&quot;&quot;&quot;&quot;&quot;&quot;&quot;&quot;&quot;&quot;&quot;&quot;&quot;&quot;&quot;&quot;&quot;&quot;&quot;&quot;&quot;&quot;</text>
</g>
<!-- step4_current&#45;&gt;step4_opt4 -->
<g id="edge16" class="edge">
<title>step4_current&#45;&gt;step4_opt4</title>
<path fill="none" stroke="#2d9c4a" stroke-width="2.5" d="M6201.13,-401.87C6232.85,-390.46 6268.94,-379.31 6302.92,-373 6317.75,-370.25 6332.72,-367.63 6347.8,-365.16"/>
<polygon fill="#2d9c4a" stroke="#2d9c4a" stroke-width="2.5" points="6348.41,-368.6 6357.73,-363.55 6347.3,-361.69 6348.41,-368.6"/>
<text text-anchor="middle" x="6281.42" y="-380" font-family="Times-Roman" font-size="10.00">4</text>
</g>
<!-- step4_selected -->
<g id="node23" class="node">
<title>step4_selected</title>
<ellipse fill="#eef3ff" stroke="black" cx="9909.51" cy="-337" rx="1461.68" ry="37.45"/>
<text text-anchor="middle" x="9909.51" y="-348.3" font-family="Times-Roman" font-size="14.00">Fast Food CEO After Minimum</text>
<text text-anchor="middle" x="9909.51" y="-333.3" font-family="Times-Roman" font-size="14.00">Wage Increase: &quot;&quot;&quot;&quot;&quot;&quot;&quot;&quot;&quot;&quot;&quot;&quot;&quot;&quot;&quot;&quot;&quot;&quot;&quot;&quot;&quot;&quot;&quot;&quot;&quot;&quot;&quot;&quot;&quot;&quot;&quot;&quot;&quot;&quot;&quot;&quot;&quot;&quot;&quot;&quot;&quot;&quot;&quot;&quot;&quot;&quot;&quot;&quot;&quot;&quot;&quot;&quot;&quot;&quot;&quot;&quot;&quot;&quot;&quot;&quot;&quot;&quot;&quot;&quot;&quot;&quot;&quot;&quot;&quot;&quot;&quot;&quot;&quot;&quot;&quot;&quot;&quot;&quot;&quot;&quot;&quot;&quot;&quot;&quot;&quot;&quot;&quot;&quot;&quot;&quot;&quot;&quot;&quot;&quot;&quot;&quot;&quot;&quot;&quot;&quot;&quot;&quot;&quot;&quot;&quot;&quot;&quot;&quot;&quot;&quot;&quot;&quot;&quot;&quot;&quot;&quot;&quot;&quot;&quot;&quot;&quot;&quot;&quot;&quot;&quot;&quot;&quot;&quot;&quot;&quot;&quot;&quot;&quot;&quot;&quot;&quot;&quot;&quot;&quot;&quot;&quot;&quot;&quot;&quot;&quot;&quot;&quot;&quot;&quot;&quot;&quot;&quot;&quot;&quot;&quot;&quot;&quot;&quot;&quot;&quot;&quot;&quot;&quot;&quot;&quot;&quot;&quot;&quot;&quot;&quot;&quot;&quot;&quot;&quot;&quot;&quot;&quot;&quot;&quot;&quot;&quot;&quot;&quot;&quot;&quot;&quot;&quot;&quot;&quot;&quot;&quot;&quot;&quot;&quot;&quot;&quot;&quot;&quot;&quot;&quot;&quot;&quot;&quot;&quot;&quot;&quot;&quot;&quot;&quot;&quot;&quot;&quot;&quot;&quot;&quot;&quot;&quot;&quot;&quot;&quot;&quot;&quot;&quot;&quot;&quot;&quot;&quot;&quot;&quot;&quot;&quot;&quot;&quot;&quot;&quot;&quot;&quot;&quot;&quot;&quot;&quot;&quot;&quot;&quot;&quot;&quot;&quot;&quot;&quot;&quot;&quot;&quot;&quot;&quot;&quot;&quot;I was stunned by the business</text>
<text text-anchor="middle" x="9909.51" y="-318.3" font-family="Times-Roman" font-size="14.00">&quot;&quot;&quot;&quot;&quot;&quot;&quot;&quot;&quot;&quot;&quot;&quot;&quot;&quot;&quot;&quot;&quot;&quot;&quot;&quot;&quot;&quot;&quot;&quot;&quot;&quot;&quot;&quot;&quot;&quot;&quot;&quot;&quot;&quot;&quot;&quot;&quot;&quot;&quot;&quot;&quot;&quot;&quot;&quot;&quot;&quot;&quot;&quot;&quot;&quot;&quot;&quot;&quot;&quot;&quot;&quot;&quot;&quot;&quot;&quot;&quot;&quot;&quot;&quot;&quot;&quot;&quot;&quot;&quot;&quot;&quot;&quot;&quot;&quot;&quot;&quot;&quot;&quot;&quot;&quot;&quot;&quot;&quot;&quot;&quot;&quot;&quot;&quot;&quot;&quot;&quot;&quot;&quot;&quot;&quot;&quot;&quot;&quot;&quot;&quot;&quot;&quot;&quot;&quot;&quot;&quot;&quot;&quot;&quot;&quot;&quot;&quot;&quot;&quot;&quot;&quot;&quot;&quot;&quot;&quot;&quot;&quot;&quot;&quot;&quot;&quot;&quot;&quot;&quot;&quot;&quot;&quot;&quot;&quot;&quot;&quot;&quot;&quot;&quot;&quot;&quot;&quot;&quot;&quot;&quot;&quot;&quot;&quot;&quot;&quot;&quot;&quot;&quot;&quot;&quot;&quot;&quot;&quot;&quot;&quot;&quot;&quot;&quot;&quot;&quot;&quot;&quot;&quot;&quot;&quot;&quot;&quot;&quot;&quot;&quot;&quot;&quot;&quot;&quot;&quot;&quot;&quot;&quot;&quot;&quot;&quot;&quot;&quot;&quot;&quot;&quot;&quot;&quot;&quot;&quot;&quot;&quot;&quot;&quot;&quot;&quot;&quot;&quot;&quot;&quot;&quot;&quot;&quot;&quot;&quot;&quot;&quot;&quot;&quot;&quot;&quot;&quot;&quot;&quot;&quot;&quot;&quot;&quot;&quot;&quot;&quot;&quot;&quot;&quot;&quot;&quot;&quot;&quot;&quot;&quot;&quot;&quot;&quot;&quot;&quot;&quot;&quot;&quot;&quot;&quot;&quot;&quot;&quot;&quot;&quot;&quot;&quot;&quot;&quot;&quot;&quot;</text>
</g>
<!-- step4_opt4&#45;&gt;step4_selected -->
<g id="edge21" class="edge">
<title>step4_opt4&#45;&gt;step4_selected</title>
<path fill="none" stroke="#2d9c4a" stroke-width="2.5" stroke-dasharray="5,2" d="M8370.22,-337C8392.64,-337 8415.17,-337 8437.78,-337"/>
<polygon fill="#2d9c4a" stroke="#2d9c4a" stroke-width="2.5" points="8437.83,-340.5 8447.83,-337 8437.83,-333.5 8437.83,-340.5"/>
<text text-anchor="middle" x="8408.92" y="-340" font-family="Times-Roman" font-size="10.00">selected</text>
</g>
<!-- step4_selected&#45;&gt;opinion_final -->
<g id="edge22" class="edge">
<title>step4_selected&#45;&gt;opinion_final</title>
<path fill="none" stroke="#bf616a" stroke-width="2.5" d="M11371.46,-337C11380.54,-337 11389.33,-337 11397.79,-337"/>
<polygon fill="#bf616a" stroke="#bf616a" stroke-width="2.5" points="11397.96,-340.5 11407.96,-337 11397.96,-333.5 11397.96,-340.5"/>
</g>
</g>
</svg>
