<?xml version="1.0" encoding="UTF-8" standalone="no"?>
<!DOCTYPE svg PUBLIC "-//W3C//DTD SVG 1.1//EN"
 "http://www.w3.org/Graphics/SVG/1.1/DTD/svg11.dtd">
<!-- Generated by graphviz version 2.44.0 (0)
 -->
<!-- Pages: 1 -->
<svg width="3603pt" height="411pt"
 viewBox="0.00 0.00 3603.24 410.50" xmlns="http://www.w3.org/2000/svg" xmlns:xlink="http://www.w3.org/1999/xlink">
<g id="graph0" class="graph" transform="scale(1 1) rotate(0) translate(4 406.5)">
<polygon fill="white" stroke="transparent" points="-4,4 -4,-406.5 3599.24,-406.5 3599.24,4 -4,4"/>
<!-- opinion_initial -->
<g id="node1" class="node">
<title>opinion_initial</title>
<polygon fill="#fbeaea" stroke="#bf616a" stroke-width="2" points="228,-146.5 0,-146.5 0,-110.5 228,-110.5 228,-146.5"/>
<text text-anchor="middle" x="114" y="-124.8" font-family="Helvetica" font-size="14.00">Initial Minimum wage support: 0.07</text>
</g>
<!-- step1_current -->
<g id="node3" class="node">
<title>step1_current</title>
<ellipse fill="#eef3ff" stroke="black" cx="419.86" cy="-128.5" rx="154.71" ry="26.74"/>
<text text-anchor="middle" x="419.86" y="-132.3" font-family="Times-Roman" font-size="14.00">Seattle&#39;s $15 Minimum Wage</text>
<text text-anchor="middle" x="419.86" y="-117.3" font-family="Times-Roman" font-size="14.00">Experiment is Working</text>
</g>
<!-- opinion_initial&#45;&gt;step1_current -->
<g id="edge20" class="edge">
<title>opinion_initial&#45;&gt;step1_current</title>
<path fill="none" stroke="#bf616a" stroke-width="2.5" d="M228.14,-128.5C236.85,-128.5 245.74,-128.5 254.68,-128.5"/>
<polygon fill="#bf616a" stroke="#bf616a" stroke-width="2.5" points="254.79,-132 264.79,-128.5 254.79,-125 254.79,-132"/>
</g>
<!-- opinion_final -->
<g id="node2" class="node">
<title>opinion_final</title>
<polygon fill="#fbeaea" stroke="#bf616a" stroke-width="2" points="3595.24,-337.5 3322.24,-337.5 3322.24,-301.5 3595.24,-301.5 3595.24,-337.5"/>
<text text-anchor="middle" x="3458.74" y="-315.8" font-family="Helvetica" font-size="14.00">Final Minimum wage support: 0.09 (+0.02)</text>
</g>
<!-- step1_opt1 -->
<g id="node4" class="node">
<title>step1_opt1</title>
<path fill="#ffffff" stroke="black" d="M824.21,-250C824.21,-250 654.21,-250 654.21,-250 648.21,-250 642.21,-244 642.21,-238 642.21,-238 642.21,-209 642.21,-209 642.21,-203 648.21,-197 654.21,-197 654.21,-197 824.21,-197 824.21,-197 830.21,-197 836.21,-203 836.21,-209 836.21,-209 836.21,-238 836.21,-238 836.21,-244 830.21,-250 824.21,-250"/>
<text text-anchor="middle" x="739.21" y="-234.8" font-family="Times-Roman" font-size="14.00">If a Business Won&#39;t pay a</text>
<text text-anchor="middle" x="739.21" y="-219.8" font-family="Times-Roman" font-size="14.00">Living Wage &#45; it Shouldn&#39;t</text>
<text text-anchor="middle" x="739.21" y="-204.8" font-family="Times-Roman" font-size="14.00">Exist</text>
</g>
<!-- step1_current&#45;&gt;step1_opt1 -->
<g id="edge1" class="edge">
<title>step1_current&#45;&gt;step1_opt1</title>
<path fill="none" stroke="#888888" d="M498.45,-151.77C534.69,-162.64 578.4,-175.74 617.71,-187.5 624.76,-189.61 632.04,-191.79 639.37,-193.98"/>
<polygon fill="#888888" stroke="#888888" points="638.79,-197.46 649.37,-196.97 640.79,-190.75 638.79,-197.46"/>
<text text-anchor="middle" x="596.21" y="-183.5" font-family="Times-Roman" font-size="10.00">1</text>
</g>
<!-- step1_opt2 -->
<g id="node5" class="node">
<title>step1_opt2</title>
<path fill="#d7f5d0" stroke="#2d9c4a" stroke-width="2" d="M848.71,-178.5C848.71,-178.5 629.71,-178.5 629.71,-178.5 623.71,-178.5 617.71,-172.5 617.71,-166.5 617.71,-166.5 617.71,-154.5 617.71,-154.5 617.71,-148.5 623.71,-142.5 629.71,-142.5 629.71,-142.5 848.71,-142.5 848.71,-142.5 854.71,-142.5 860.71,-148.5 860.71,-154.5 860.71,-154.5 860.71,-166.5 860.71,-166.5 860.71,-172.5 854.71,-178.5 848.71,-178.5"/>
<text text-anchor="middle" x="739.21" y="-156.8" font-family="Times-Roman" font-size="14.00">Price Floors: The Minimum Wage</text>
</g>
<!-- step1_current&#45;&gt;step1_opt2 -->
<g id="edge2" class="edge">
<title>step1_current&#45;&gt;step1_opt2</title>
<path fill="none" stroke="#2d9c4a" stroke-width="2.5" d="M554.06,-141.93C571.65,-143.7 589.66,-145.52 607.2,-147.29"/>
<polygon fill="#2d9c4a" stroke="#2d9c4a" stroke-width="2.5" points="607.17,-150.8 617.47,-148.33 607.88,-143.84 607.17,-150.8"/>
<text text-anchor="middle" x="596.21" y="-148.5" font-family="Times-Roman" font-size="10.00">2</text>
</g>
<!-- step1_opt3 -->
<g id="node6" class="node">
<title>step1_opt3</title>
<path fill="#ffffff" stroke="black" d="M848.21,-124C848.21,-124 630.21,-124 630.21,-124 624.21,-124 618.21,-118 618.21,-112 618.21,-112 618.21,-83 618.21,-83 618.21,-77 624.21,-71 630.21,-71 630.21,-71 848.21,-71 848.21,-71 854.21,-71 860.21,-77 860.21,-83 860.21,-83 860.21,-112 860.21,-112 860.21,-118 854.21,-124 848.21,-124"/>
<text text-anchor="middle" x="739.21" y="-108.8" font-family="Times-Roman" font-size="14.00">If Walmart Paid Its Employees</text>
<text text-anchor="middle" x="739.21" y="-93.8" font-family="Times-Roman" font-size="14.00">a Living Wage, How Much Would</text>
<text text-anchor="middle" x="739.21" y="-78.8" font-family="Times-Roman" font-size="14.00">Prices Go Up?</text>
</g>
<!-- step1_current&#45;&gt;step1_opt3 -->
<g id="edge3" class="edge">
<title>step1_current&#45;&gt;step1_opt3</title>
<path fill="none" stroke="#888888" d="M555.44,-115.35C572.81,-113.66 590.58,-111.92 607.88,-110.23"/>
<polygon fill="#888888" stroke="#888888" points="608.39,-113.7 618,-109.24 607.71,-106.73 608.39,-113.7"/>
<text text-anchor="middle" x="596.21" y="-113.5" font-family="Times-Roman" font-size="10.00">3</text>
</g>
<!-- step1_opt4 -->
<g id="node7" class="node">
<title>step1_opt4</title>
<path fill="#ffffff" stroke="black" d="M847.21,-53C847.21,-53 631.21,-53 631.21,-53 625.21,-53 619.21,-47 619.21,-41 619.21,-41 619.21,-12 619.21,-12 619.21,-6 625.21,0 631.21,0 631.21,0 847.21,0 847.21,0 853.21,0 859.21,-6 859.21,-12 859.21,-12 859.21,-41 859.21,-41 859.21,-47 853.21,-53 847.21,-53"/>
<text text-anchor="middle" x="739.21" y="-37.8" font-family="Times-Roman" font-size="14.00">Restaurants eliminating</text>
<text text-anchor="middle" x="739.21" y="-22.8" font-family="Times-Roman" font-size="14.00">employees after minimum wage</text>
<text text-anchor="middle" x="739.21" y="-7.8" font-family="Times-Roman" font-size="14.00">increase in 18 states</text>
</g>
<!-- step1_current&#45;&gt;step1_opt4 -->
<g id="edge4" class="edge">
<title>step1_current&#45;&gt;step1_opt4</title>
<path fill="none" stroke="#888888" d="M490.37,-104.57C527.97,-91.78 575.28,-75.95 617.71,-62.5 624.51,-60.35 631.53,-58.16 638.62,-55.97"/>
<polygon fill="#888888" stroke="#888888" points="639.76,-59.28 648.29,-53.01 637.71,-52.59 639.76,-59.28"/>
<text text-anchor="middle" x="596.21" y="-71.5" font-family="Times-Roman" font-size="10.00">4</text>
</g>
<!-- step2_current -->
<g id="node8" class="node">
<title>step2_current</title>
<ellipse fill="#eef3ff" stroke="black" cx="1096.65" cy="-160.5" rx="157.87" ry="18"/>
<text text-anchor="middle" x="1096.65" y="-156.8" font-family="Times-Roman" font-size="14.00">Price Floors: The Minimum Wage</text>
</g>
<!-- step1_opt2&#45;&gt;step2_current -->
<g id="edge17" class="edge">
<title>step1_opt2&#45;&gt;step2_current</title>
<path fill="none" stroke="#2d9c4a" stroke-width="2.5" stroke-dasharray="5,2" d="M861.04,-160.5C882.78,-160.5 905.79,-160.5 928.56,-160.5"/>
<polygon fill="#2d9c4a" stroke="#2d9c4a" stroke-width="2.5" points="928.65,-164 938.65,-160.5 928.65,-157 928.65,-164"/>
<text text-anchor="middle" x="899.71" y="-163.5" font-family="Times-Roman" font-size="10.00">selected</text>
</g>
<!-- step2_opt1 -->
<g id="node9" class="node">
<title>step2_opt1</title>
<path fill="#d7f5d0" stroke="#2d9c4a" stroke-width="2" d="M1520.08,-293.5C1520.08,-293.5 1329.08,-293.5 1329.08,-293.5 1323.08,-293.5 1317.08,-287.5 1317.08,-281.5 1317.08,-281.5 1317.08,-237.5 1317.08,-237.5 1317.08,-231.5 1323.08,-225.5 1329.08,-225.5 1329.08,-225.5 1520.08,-225.5 1520.08,-225.5 1526.08,-225.5 1532.08,-231.5 1532.08,-237.5 1532.08,-237.5 1532.08,-281.5 1532.08,-281.5 1532.08,-287.5 1526.08,-293.5 1520.08,-293.5"/>
<text text-anchor="middle" x="1424.58" y="-278.3" font-family="Times-Roman" font-size="14.00">The 5 Biggest Myths</text>
<text text-anchor="middle" x="1424.58" y="-263.3" font-family="Times-Roman" font-size="14.00">Republicans Use to Avoid</text>
<text text-anchor="middle" x="1424.58" y="-248.3" font-family="Times-Roman" font-size="14.00">Raising the Minimum Wage |</text>
<text text-anchor="middle" x="1424.58" y="-233.3" font-family="Times-Roman" font-size="14.00">Opinions | NowThis</text>
</g>
<!-- step2_current&#45;&gt;step2_opt1 -->
<g id="edge5" class="edge">
<title>step2_current&#45;&gt;step2_opt1</title>
<path fill="none" stroke="#2d9c4a" stroke-width="2.5" d="M1153.31,-177.41C1195.5,-190.22 1254.97,-208.28 1307.38,-224.2"/>
<polygon fill="#2d9c4a" stroke="#2d9c4a" stroke-width="2.5" points="1306.5,-227.59 1317.08,-227.15 1308.53,-220.9 1306.5,-227.59"/>
<text text-anchor="middle" x="1276.08" y="-216.5" font-family="Times-Roman" font-size="10.00">1</text>
</g>
<!-- step2_opt2 -->
<g id="node10" class="node">
<title>step2_opt2</title>
<path fill="#ffffff" stroke="black" d="M1539.58,-207.5C1539.58,-207.5 1309.58,-207.5 1309.58,-207.5 1303.58,-207.5 1297.58,-201.5 1297.58,-195.5 1297.58,-195.5 1297.58,-181.5 1297.58,-181.5 1297.58,-175.5 1303.58,-169.5 1309.58,-169.5 1309.58,-169.5 1539.58,-169.5 1539.58,-169.5 1545.58,-169.5 1551.58,-175.5 1551.58,-181.5 1551.58,-181.5 1551.58,-195.5 1551.58,-195.5 1551.58,-201.5 1545.58,-207.5 1539.58,-207.5"/>
<text text-anchor="middle" x="1424.58" y="-192.3" font-family="Times-Roman" font-size="14.00">Republicans Block Minimum Wage</text>
<text text-anchor="middle" x="1424.58" y="-177.3" font-family="Times-Roman" font-size="14.00">Increase</text>
</g>
<!-- step2_current&#45;&gt;step2_opt2 -->
<g id="edge6" class="edge">
<title>step2_current&#45;&gt;step2_opt2</title>
<path fill="none" stroke="#888888" d="M1223.2,-171.29C1244.25,-173.09 1266.19,-174.98 1287.49,-176.81"/>
<polygon fill="#888888" stroke="#888888" points="1287.3,-180.3 1297.56,-177.67 1287.9,-173.33 1287.3,-180.3"/>
<text text-anchor="middle" x="1276.08" y="-178.5" font-family="Times-Roman" font-size="10.00">2</text>
</g>
<!-- step2_opt3 -->
<g id="node11" class="node">
<title>step2_opt3</title>
<path fill="#ffffff" stroke="black" d="M1515.58,-151.5C1515.58,-151.5 1333.58,-151.5 1333.58,-151.5 1327.58,-151.5 1321.58,-145.5 1321.58,-139.5 1321.58,-139.5 1321.58,-125.5 1321.58,-125.5 1321.58,-119.5 1327.58,-113.5 1333.58,-113.5 1333.58,-113.5 1515.58,-113.5 1515.58,-113.5 1521.58,-113.5 1527.58,-119.5 1527.58,-125.5 1527.58,-125.5 1527.58,-139.5 1527.58,-139.5 1527.58,-145.5 1521.58,-151.5 1515.58,-151.5"/>
<text text-anchor="middle" x="1424.58" y="-136.3" font-family="Times-Roman" font-size="14.00">Caller: Increasing Minimum</text>
<text text-anchor="middle" x="1424.58" y="-121.3" font-family="Times-Roman" font-size="14.00">Wage will Bring Inflation</text>
</g>
<!-- step2_current&#45;&gt;step2_opt3 -->
<g id="edge7" class="edge">
<title>step2_current&#45;&gt;step2_opt3</title>
<path fill="none" stroke="#888888" d="M1223.2,-149.71C1252.31,-147.21 1283.11,-144.57 1311.6,-142.12"/>
<polygon fill="#888888" stroke="#888888" points="1311.91,-145.61 1321.58,-141.26 1311.31,-138.63 1311.91,-145.61"/>
<text text-anchor="middle" x="1276.08" y="-147.5" font-family="Times-Roman" font-size="10.00">3</text>
</g>
<!-- step2_opt4 -->
<g id="node12" class="node">
<title>step2_opt4</title>
<path fill="#ffffff" stroke="black" d="M1521.58,-95.5C1521.58,-95.5 1327.58,-95.5 1327.58,-95.5 1321.58,-95.5 1315.58,-89.5 1315.58,-83.5 1315.58,-83.5 1315.58,-69.5 1315.58,-69.5 1315.58,-63.5 1321.58,-57.5 1327.58,-57.5 1327.58,-57.5 1521.58,-57.5 1521.58,-57.5 1527.58,-57.5 1533.58,-63.5 1533.58,-69.5 1533.58,-69.5 1533.58,-83.5 1533.58,-83.5 1533.58,-89.5 1527.58,-95.5 1521.58,-95.5"/>
<text text-anchor="middle" x="1424.58" y="-80.3" font-family="Times-Roman" font-size="14.00">Milton Friedman on Minimum</text>
<text text-anchor="middle" x="1424.58" y="-65.3" font-family="Times-Roman" font-size="14.00">Wage</text>
</g>
<!-- step2_current&#45;&gt;step2_opt4 -->
<g id="edge8" class="edge">
<title>step2_current&#45;&gt;step2_opt4</title>
<path fill="none" stroke="#888888" d="M1154.74,-143.62C1194.61,-132.05 1249.16,-116.65 1297.58,-104.5 1306.54,-102.25 1315.87,-100 1325.23,-97.81"/>
<polygon fill="#888888" stroke="#888888" points="1326.03,-101.22 1334.98,-95.55 1324.45,-94.4 1326.03,-101.22"/>
<text text-anchor="middle" x="1276.08" y="-112.5" font-family="Times-Roman" font-size="10.00">4</text>
</g>
<!-- step3_current -->
<g id="node13" class="node">
<title>step3_current</title>
<ellipse fill="#eef3ff" stroke="black" cx="1781.61" cy="-259.5" rx="152.06" ry="48.17"/>
<text text-anchor="middle" x="1781.61" y="-278.3" font-family="Times-Roman" font-size="14.00">The 5 Biggest Myths</text>
<text text-anchor="middle" x="1781.61" y="-263.3" font-family="Times-Roman" font-size="14.00">Republicans Use to Avoid</text>
<text text-anchor="middle" x="1781.61" y="-248.3" font-family="Times-Roman" font-size="14.00">Raising the Minimum Wage |</text>
<text text-anchor="middle" x="1781.61" y="-233.3" font-family="Times-Roman" font-size="14.00">Opinions | NowThis</text>
</g>
<!-- step2_opt1&#45;&gt;step3_current -->
<g id="edge18" class="edge">
<title>step2_opt1&#45;&gt;step3_current</title>
<path fill="none" stroke="#2d9c4a" stroke-width="2.5" stroke-dasharray="5,2" d="M1532.1,-259.5C1559.63,-259.5 1589.88,-259.5 1619.52,-259.5"/>
<polygon fill="#2d9c4a" stroke="#2d9c4a" stroke-width="2.5" points="1619.54,-263 1629.54,-259.5 1619.54,-256 1619.54,-263"/>
<text text-anchor="middle" x="1590.58" y="-262.5" font-family="Times-Roman" font-size="10.00">selected</text>
</g>
<!-- step3_opt1 -->
<g id="node14" class="node">
<title>step3_opt1</title>
<path fill="#ffffff" stroke="black" d="M2199.64,-362.5C2199.64,-362.5 1995.64,-362.5 1995.64,-362.5 1989.64,-362.5 1983.64,-356.5 1983.64,-350.5 1983.64,-350.5 1983.64,-336.5 1983.64,-336.5 1983.64,-330.5 1989.64,-324.5 1995.64,-324.5 1995.64,-324.5 2199.64,-324.5 2199.64,-324.5 2205.64,-324.5 2211.64,-330.5 2211.64,-336.5 2211.64,-336.5 2211.64,-350.5 2211.64,-350.5 2211.64,-356.5 2205.64,-362.5 2199.64,-362.5"/>
<text text-anchor="middle" x="2097.64" y="-347.3" font-family="Times-Roman" font-size="14.00">Should We Raise the Minimum</text>
<text text-anchor="middle" x="2097.64" y="-332.3" font-family="Times-Roman" font-size="14.00">Wage?</text>
</g>
<!-- step3_current&#45;&gt;step3_opt1 -->
<g id="edge9" class="edge">
<title>step3_current&#45;&gt;step3_opt1</title>
<path fill="none" stroke="#888888" d="M1892.9,-292.4C1920.19,-300.25 1949.42,-308.4 1976.64,-315.5 1985.06,-317.7 1993.84,-319.9 2002.64,-322.06"/>
<polygon fill="#888888" stroke="#888888" points="2002.04,-325.51 2012.58,-324.47 2003.69,-318.71 2002.04,-325.51"/>
<text text-anchor="middle" x="1955.14" y="-312.5" font-family="Times-Roman" font-size="10.00">1</text>
</g>
<!-- step3_opt2 -->
<g id="node15" class="node">
<title>step3_opt2</title>
<path fill="#d7f5d0" stroke="#2d9c4a" stroke-width="2" d="M2206.64,-306.5C2206.64,-306.5 1988.64,-306.5 1988.64,-306.5 1982.64,-306.5 1976.64,-300.5 1976.64,-294.5 1976.64,-294.5 1976.64,-280.5 1976.64,-280.5 1976.64,-274.5 1982.64,-268.5 1988.64,-268.5 1988.64,-268.5 2206.64,-268.5 2206.64,-268.5 2212.64,-268.5 2218.64,-274.5 2218.64,-280.5 2218.64,-280.5 2218.64,-294.5 2218.64,-294.5 2218.64,-300.5 2212.64,-306.5 2206.64,-306.5"/>
<text text-anchor="middle" x="2097.64" y="-291.3" font-family="Times-Roman" font-size="14.00">Who Does a $15 Minimum Wage</text>
<text text-anchor="middle" x="2097.64" y="-276.3" font-family="Times-Roman" font-size="14.00">Help?</text>
</g>
<!-- step3_current&#45;&gt;step3_opt2 -->
<g id="edge10" class="edge">
<title>step3_current&#45;&gt;step3_opt2</title>
<path fill="none" stroke="#2d9c4a" stroke-width="2.5" d="M1928.14,-272.48C1940.92,-273.62 1953.81,-274.76 1966.46,-275.89"/>
<polygon fill="#2d9c4a" stroke="#2d9c4a" stroke-width="2.5" points="1966.27,-279.39 1976.55,-276.79 1966.9,-272.42 1966.27,-279.39"/>
<text text-anchor="middle" x="1955.14" y="-277.5" font-family="Times-Roman" font-size="10.00">2</text>
</g>
<!-- step3_opt3 -->
<g id="node16" class="node">
<title>step3_opt3</title>
<path fill="#ffffff" stroke="black" d="M2191.14,-250.5C2191.14,-250.5 2004.14,-250.5 2004.14,-250.5 1998.14,-250.5 1992.14,-244.5 1992.14,-238.5 1992.14,-238.5 1992.14,-224.5 1992.14,-224.5 1992.14,-218.5 1998.14,-212.5 2004.14,-212.5 2004.14,-212.5 2191.14,-212.5 2191.14,-212.5 2197.14,-212.5 2203.14,-218.5 2203.14,-224.5 2203.14,-224.5 2203.14,-238.5 2203.14,-238.5 2203.14,-244.5 2197.14,-250.5 2191.14,-250.5"/>
<text text-anchor="middle" x="2097.64" y="-235.3" font-family="Times-Roman" font-size="14.00">Malcolm Kenyatta Confronts</text>
<text text-anchor="middle" x="2097.64" y="-220.3" font-family="Times-Roman" font-size="14.00">Minimum Wage Opposers</text>
</g>
<!-- step3_current&#45;&gt;step3_opt3 -->
<g id="edge11" class="edge">
<title>step3_current&#45;&gt;step3_opt3</title>
<path fill="none" stroke="#888888" d="M1928.14,-246.52C1946.11,-244.92 1964.28,-243.3 1981.71,-241.75"/>
<polygon fill="#888888" stroke="#888888" points="1982.22,-245.22 1991.87,-240.84 1981.6,-238.24 1982.22,-245.22"/>
<text text-anchor="middle" x="1955.14" y="-246.5" font-family="Times-Roman" font-size="10.00">3</text>
</g>
<!-- step3_opt4 -->
<g id="node17" class="node">
<title>step3_opt4</title>
<path fill="#ffffff" stroke="black" d="M2206.64,-194.5C2206.64,-194.5 1988.64,-194.5 1988.64,-194.5 1982.64,-194.5 1976.64,-188.5 1976.64,-182.5 1976.64,-182.5 1976.64,-168.5 1976.64,-168.5 1976.64,-162.5 1982.64,-156.5 1988.64,-156.5 1988.64,-156.5 2206.64,-156.5 2206.64,-156.5 2212.64,-156.5 2218.64,-162.5 2218.64,-168.5 2218.64,-168.5 2218.64,-182.5 2218.64,-182.5 2218.64,-188.5 2212.64,-194.5 2206.64,-194.5"/>
<text text-anchor="middle" x="2097.64" y="-179.3" font-family="Times-Roman" font-size="14.00">The Cruelty of the $15 Minimum</text>
<text text-anchor="middle" x="2097.64" y="-164.3" font-family="Times-Roman" font-size="14.00">Wage</text>
</g>
<!-- step3_current&#45;&gt;step3_opt4 -->
<g id="edge12" class="edge">
<title>step3_current&#45;&gt;step3_opt4</title>
<path fill="none" stroke="#888888" d="M1892.9,-226.6C1920.19,-218.75 1949.42,-210.6 1976.64,-203.5 1985.06,-201.3 1993.84,-199.1 2002.64,-196.94"/>
<polygon fill="#888888" stroke="#888888" points="2003.69,-200.29 2012.58,-194.53 2002.04,-193.49 2003.69,-200.29"/>
<text text-anchor="middle" x="1955.14" y="-211.5" font-family="Times-Roman" font-size="10.00">4</text>
</g>
<!-- step4_current -->
<g id="node18" class="node">
<title>step4_current</title>
<ellipse fill="#eef3ff" stroke="black" cx="2467.76" cy="-287.5" rx="171.24" ry="26.74"/>
<text text-anchor="middle" x="2467.76" y="-291.3" font-family="Times-Roman" font-size="14.00">Who Does a $15 Minimum Wage</text>
<text text-anchor="middle" x="2467.76" y="-276.3" font-family="Times-Roman" font-size="14.00">Help?</text>
</g>
<!-- step3_opt2&#45;&gt;step4_current -->
<g id="edge19" class="edge">
<title>step3_opt2&#45;&gt;step4_current</title>
<path fill="none" stroke="#2d9c4a" stroke-width="2.5" stroke-dasharray="5,2" d="M2218.67,-287.5C2240.33,-287.5 2263.33,-287.5 2286.27,-287.5"/>
<polygon fill="#2d9c4a" stroke="#2d9c4a" stroke-width="2.5" points="2286.44,-291 2296.44,-287.5 2286.44,-284 2286.44,-291"/>
<text text-anchor="middle" x="2257.64" y="-290.5" font-family="Times-Roman" font-size="10.00">selected</text>
</g>
<!-- step4_opt1 -->
<g id="node19" class="node">
<title>step4_opt1</title>
<path fill="#ffffff" stroke="black" d="M2916.88,-402.5C2916.88,-402.5 2697.88,-402.5 2697.88,-402.5 2691.88,-402.5 2685.88,-396.5 2685.88,-390.5 2685.88,-390.5 2685.88,-376.5 2685.88,-376.5 2685.88,-370.5 2691.88,-364.5 2697.88,-364.5 2697.88,-364.5 2916.88,-364.5 2916.88,-364.5 2922.88,-364.5 2928.88,-370.5 2928.88,-376.5 2928.88,-376.5 2928.88,-390.5 2928.88,-390.5 2928.88,-396.5 2922.88,-402.5 2916.88,-402.5"/>
<text text-anchor="middle" x="2807.38" y="-387.3" font-family="Times-Roman" font-size="14.00">Amazon hikes minimum wage to</text>
<text text-anchor="middle" x="2807.38" y="-372.3" font-family="Times-Roman" font-size="14.00">$15 for all employees</text>
</g>
<!-- step4_current&#45;&gt;step4_opt1 -->
<g id="edge13" class="edge">
<title>step4_current&#45;&gt;step4_opt1</title>
<path fill="none" stroke="#888888" d="M2539.82,-311.89C2581.04,-325.61 2634.09,-342.53 2681.88,-355.5 2690.19,-357.76 2698.85,-359.97 2707.56,-362.11"/>
<polygon fill="#888888" stroke="#888888" points="2706.85,-365.54 2717.39,-364.49 2708.49,-358.73 2706.85,-365.54"/>
<text text-anchor="middle" x="2660.38" y="-351.5" font-family="Times-Roman" font-size="10.00">1</text>
</g>
<!-- step4_opt2 -->
<g id="node20" class="node">
<title>step4_opt2</title>
<path fill="#d7f5d0" stroke="#2d9c4a" stroke-width="2" d="M2892.38,-346C2892.38,-346 2722.38,-346 2722.38,-346 2716.38,-346 2710.38,-340 2710.38,-334 2710.38,-334 2710.38,-305 2710.38,-305 2710.38,-299 2716.38,-293 2722.38,-293 2722.38,-293 2892.38,-293 2892.38,-293 2898.38,-293 2904.38,-299 2904.38,-305 2904.38,-305 2904.38,-334 2904.38,-334 2904.38,-340 2898.38,-346 2892.38,-346"/>
<text text-anchor="middle" x="2807.38" y="-330.8" font-family="Times-Roman" font-size="14.00">If a Business Won&#39;t pay a</text>
<text text-anchor="middle" x="2807.38" y="-315.8" font-family="Times-Roman" font-size="14.00">Living Wage &#45; it Shouldn&#39;t</text>
<text text-anchor="middle" x="2807.38" y="-300.8" font-family="Times-Roman" font-size="14.00">Exist</text>
</g>
<!-- step4_current&#45;&gt;step4_opt2 -->
<g id="edge14" class="edge">
<title>step4_current&#45;&gt;step4_opt2</title>
<path fill="none" stroke="#2d9c4a" stroke-width="2.5" d="M2614.88,-301.35C2643.48,-304.06 2672.97,-306.86 2699.98,-309.42"/>
<polygon fill="#2d9c4a" stroke="#2d9c4a" stroke-width="2.5" points="2699.92,-312.92 2710.2,-310.38 2700.58,-305.96 2699.92,-312.92"/>
<text text-anchor="middle" x="2660.38" y="-307.5" font-family="Times-Roman" font-size="10.00">2</text>
</g>
<!-- step4_opt3 -->
<g id="node21" class="node">
<title>step4_opt3</title>
<path fill="#ffffff" stroke="black" d="M2912.38,-274.5C2912.38,-274.5 2702.38,-274.5 2702.38,-274.5 2696.38,-274.5 2690.38,-268.5 2690.38,-262.5 2690.38,-262.5 2690.38,-248.5 2690.38,-248.5 2690.38,-242.5 2696.38,-236.5 2702.38,-236.5 2702.38,-236.5 2912.38,-236.5 2912.38,-236.5 2918.38,-236.5 2924.38,-242.5 2924.38,-248.5 2924.38,-248.5 2924.38,-262.5 2924.38,-262.5 2924.38,-268.5 2918.38,-274.5 2912.38,-274.5"/>
<text text-anchor="middle" x="2807.38" y="-259.3" font-family="Times-Roman" font-size="14.00">A $15 Minimum Wage Will Hurt</text>
<text text-anchor="middle" x="2807.38" y="-244.3" font-family="Times-Roman" font-size="14.00">Workers</text>
</g>
<!-- step4_current&#45;&gt;step4_opt3 -->
<g id="edge15" class="edge">
<title>step4_current&#45;&gt;step4_opt3</title>
<path fill="none" stroke="#888888" d="M2614.88,-273.65C2636.65,-271.59 2658.93,-269.48 2680.25,-267.46"/>
<polygon fill="#888888" stroke="#888888" points="2680.67,-270.93 2690.29,-266.5 2680.01,-263.96 2680.67,-270.93"/>
<text text-anchor="middle" x="2660.38" y="-272.5" font-family="Times-Roman" font-size="10.00">3</text>
</g>
<!-- step4_opt4 -->
<g id="node22" class="node">
<title>step4_opt4</title>
<path fill="#ffffff" stroke="black" d="M2920.88,-218.5C2920.88,-218.5 2693.88,-218.5 2693.88,-218.5 2687.88,-218.5 2681.88,-212.5 2681.88,-206.5 2681.88,-206.5 2681.88,-194.5 2681.88,-194.5 2681.88,-188.5 2687.88,-182.5 2693.88,-182.5 2693.88,-182.5 2920.88,-182.5 2920.88,-182.5 2926.88,-182.5 2932.88,-188.5 2932.88,-194.5 2932.88,-194.5 2932.88,-206.5 2932.88,-206.5 2932.88,-212.5 2926.88,-218.5 2920.88,-218.5"/>
<text text-anchor="middle" x="2807.38" y="-196.8" font-family="Times-Roman" font-size="14.00">What&#39;s the Right Minimum Wage?</text>
</g>
<!-- step4_current&#45;&gt;step4_opt4 -->
<g id="edge16" class="edge">
<title>step4_current&#45;&gt;step4_opt4</title>
<path fill="none" stroke="#888888" d="M2548.66,-263.76C2588.53,-252.23 2637.59,-238.53 2681.88,-227.5 2690.96,-225.24 2700.44,-222.99 2709.94,-220.81"/>
<polygon fill="#888888" stroke="#888888" points="2710.85,-224.19 2719.82,-218.56 2709.3,-217.36 2710.85,-224.19"/>
<text text-anchor="middle" x="2660.38" y="-235.5" font-family="Times-Roman" font-size="10.00">4</text>
</g>
<!-- step4_selected -->
<g id="node23" class="node">
<title>step4_selected</title>
<ellipse fill="#eef3ff" stroke="black" cx="3148.06" cy="-319.5" rx="137.36" ry="37.45"/>
<text text-anchor="middle" x="3148.06" y="-330.8" font-family="Times-Roman" font-size="14.00">If a Business Won&#39;t pay a</text>
<text text-anchor="middle" x="3148.06" y="-315.8" font-family="Times-Roman" font-size="14.00">Living Wage &#45; it Shouldn&#39;t</text>
<text text-anchor="middle" x="3148.06" y="-300.8" font-family="Times-Roman" font-size="14.00">Exist</text>
</g>
<!-- step4_opt2&#45;&gt;step4_selected -->
<g id="edge21" class="edge">
<title>step4_opt2&#45;&gt;step4_selected</title>
<path fill="none" stroke="#2d9c4a" stroke-width="2.5" stroke-dasharray="5,2" d="M2904.53,-319.5C2934.48,-319.5 2968.21,-319.5 3000.79,-319.5"/>
<polygon fill="#2d9c4a" stroke="#2d9c4a" stroke-width="2.5" points="3000.85,-323 3010.85,-319.5 3000.85,-316 3000.85,-323"/>
<text text-anchor="middle" x="2971.88" y="-322.5" font-family="Times-Roman" font-size="10.00">selected</text>
</g>
<!-- step4_selected&#45;&gt;opinion_final -->
<g id="edge22" class="edge">
<title>step4_selected&#45;&gt;opinion_final</title>
<path fill="none" stroke="#bf616a" stroke-width="2.5" d="M3285.35,-319.5C3294.05,-319.5 3302.84,-319.5 3311.59,-319.5"/>
<polygon fill="#bf616a" stroke="#bf616a" stroke-width="2.5" points="3311.83,-323 3321.83,-319.5 3311.83,-316 3311.83,-323"/>
</g>
</g>
</svg>
