<?xml version="1.0" encoding="UTF-8" standalone="no"?>
<!DOCTYPE svg PUBLIC "-//W3C//DTD SVG 1.1//EN"
 "http://www.w3.org/Graphics/SVG/1.1/DTD/svg11.dtd">
<!-- Generated by graphviz version 2.44.0 (0)
 -->
<!-- Pages: 1 -->
<svg width="2209pt" height="365pt"
 viewBox="0.00 0.00 2209.17 365.08" xmlns="http://www.w3.org/2000/svg" xmlns:xlink="http://www.w3.org/1999/xlink">
<g id="graph0" class="graph" transform="scale(1 1) rotate(0) translate(4 361.08)">
<polygon fill="white" stroke="transparent" points="-4,4 -4,-361.08 2205.17,-361.08 2205.17,4 -4,4"/>
<!-- opinion_initial -->
<g id="node1" class="node">
<title>opinion_initial</title>
<polygon fill="#fbeaea" stroke="#bf616a" stroke-width="2" points="224,-214.08 0,-214.08 0,-178.08 224,-178.08 224,-214.08"/>
<text text-anchor="middle" x="112" y="-192.38" font-family="Helvetica" font-size="14.00">Initial Gun regulation support: 0.25</text>
</g>
<!-- step1_current -->
<g id="node3" class="node">
<title>step1_current</title>
<ellipse fill="#eef3ff" stroke="black" cx="410.2" cy="-196.08" rx="149.4" ry="26.74"/>
<text text-anchor="middle" x="410.2" y="-199.88" font-family="Times-Roman" font-size="14.00">Do We Need Stricter Gun</text>
<text text-anchor="middle" x="410.2" y="-184.88" font-family="Times-Roman" font-size="14.00">Control? &#45; The People Speak</text>
</g>
<!-- opinion_initial&#45;&gt;step1_current -->
<g id="edge9" class="edge">
<title>opinion_initial&#45;&gt;step1_current</title>
<path fill="none" stroke="#bf616a" stroke-width="2.5" d="M224.14,-196.08C232.84,-196.08 241.73,-196.08 250.67,-196.08"/>
<polygon fill="#bf616a" stroke="#bf616a" stroke-width="2.5" points="250.78,-199.58 260.78,-196.08 250.78,-192.58 250.78,-199.58"/>
</g>
<!-- opinion_final -->
<g id="node2" class="node">
<title>opinion_final</title>
<polygon fill="#fbeaea" stroke="#bf616a" stroke-width="2" points="2201.17,-66.08 1932.17,-66.08 1932.17,-30.08 2201.17,-30.08 2201.17,-66.08"/>
<text text-anchor="middle" x="2066.67" y="-44.38" font-family="Helvetica" font-size="14.00">Final Gun regulation support: 0.31 (+0.06)</text>
</g>
<!-- step1_opt1 -->
<g id="node4" class="node">
<title>step1_opt1</title>
<path fill="#ffffff" stroke="black" d="M830.4,-357.08C830.4,-357.08 614.4,-357.08 614.4,-357.08 608.4,-357.08 602.4,-351.08 602.4,-345.08 602.4,-345.08 602.4,-301.08 602.4,-301.08 602.4,-295.08 608.4,-289.08 614.4,-289.08 614.4,-289.08 830.4,-289.08 830.4,-289.08 836.4,-289.08 842.4,-295.08 842.4,-301.08 842.4,-301.08 842.4,-345.08 842.4,-345.08 842.4,-351.08 836.4,-357.08 830.4,-357.08"/>
<text text-anchor="middle" x="722.4" y="-341.88" font-family="Times-Roman" font-size="14.00">Piers Morgan Argues With Pro&#45;</text>
<text text-anchor="middle" x="722.4" y="-326.88" font-family="Times-Roman" font-size="14.00">Gun Campaigner About Orlando</text>
<text text-anchor="middle" x="722.4" y="-311.88" font-family="Times-Roman" font-size="14.00">Shooting | Good Morning</text>
<text text-anchor="middle" x="722.4" y="-296.88" font-family="Times-Roman" font-size="14.00">Britain</text>
</g>
<!-- step1_current&#45;&gt;step1_opt1 -->
<g id="edge1" class="edge">
<title>step1_current&#45;&gt;step1_opt1</title>
<path fill="none" stroke="#888888" d="M465.59,-221.15C503.63,-238.38 555.77,-261.44 602.4,-280.08 606.82,-281.85 611.34,-283.63 615.92,-285.4"/>
<polygon fill="#888888" stroke="#888888" points="614.8,-288.71 625.39,-289.02 617.3,-282.18 614.8,-288.71"/>
<text text-anchor="middle" x="580.9" y="-274.08" font-family="Times-Roman" font-size="10.00">1</text>
</g>
<!-- step1_opt2 -->
<g id="node5" class="node">
<title>step1_opt2</title>
<path fill="#ffffff" stroke="black" d="M825.4,-271.08C825.4,-271.08 619.4,-271.08 619.4,-271.08 613.4,-271.08 607.4,-265.08 607.4,-259.08 607.4,-259.08 607.4,-245.08 607.4,-245.08 607.4,-239.08 613.4,-233.08 619.4,-233.08 619.4,-233.08 825.4,-233.08 825.4,-233.08 831.4,-233.08 837.4,-239.08 837.4,-245.08 837.4,-245.08 837.4,-259.08 837.4,-259.08 837.4,-265.08 831.4,-271.08 825.4,-271.08"/>
<text text-anchor="middle" x="722.4" y="-255.88" font-family="Times-Roman" font-size="14.00">Why America Will NEVER Have</text>
<text text-anchor="middle" x="722.4" y="-240.88" font-family="Times-Roman" font-size="14.00">Real Gun Control</text>
</g>
<!-- step1_current&#45;&gt;step1_opt2 -->
<g id="edge2" class="edge">
<title>step1_current&#45;&gt;step1_opt2</title>
<path fill="none" stroke="#888888" d="M516.22,-215.04C545.12,-220.26 576.61,-225.95 606.06,-231.26"/>
<polygon fill="#888888" stroke="#888888" points="605.5,-234.72 615.96,-233.05 606.74,-227.83 605.5,-234.72"/>
<text text-anchor="middle" x="580.9" y="-229.08" font-family="Times-Roman" font-size="10.00">2</text>
</g>
<!-- step1_opt3 -->
<g id="node6" class="node">
<title>step1_opt3</title>
<path fill="#ffffff" stroke="black" d="M821.4,-215.08C821.4,-215.08 623.4,-215.08 623.4,-215.08 617.4,-215.08 611.4,-209.08 611.4,-203.08 611.4,-203.08 611.4,-189.08 611.4,-189.08 611.4,-183.08 617.4,-177.08 623.4,-177.08 623.4,-177.08 821.4,-177.08 821.4,-177.08 827.4,-177.08 833.4,-183.08 833.4,-189.08 833.4,-189.08 833.4,-203.08 833.4,-203.08 833.4,-209.08 827.4,-215.08 821.4,-215.08"/>
<text text-anchor="middle" x="722.4" y="-199.88" font-family="Times-Roman" font-size="14.00">Gun Control and The Violence</text>
<text text-anchor="middle" x="722.4" y="-184.88" font-family="Times-Roman" font-size="14.00">in Chicago</text>
</g>
<!-- step1_current&#45;&gt;step1_opt3 -->
<g id="edge3" class="edge">
<title>step1_current&#45;&gt;step1_opt3</title>
<path fill="none" stroke="#888888" d="M559.49,-196.08C573.39,-196.08 587.36,-196.08 600.96,-196.08"/>
<polygon fill="#888888" stroke="#888888" points="601.28,-199.58 611.28,-196.08 601.28,-192.58 601.28,-199.58"/>
<text text-anchor="middle" x="580.9" y="-199.08" font-family="Times-Roman" font-size="10.00">3</text>
</g>
<!-- step1_opt4 -->
<g id="node7" class="node">
<title>step1_opt4</title>
<path fill="#ffffff" stroke="black" d="M826.4,-159.08C826.4,-159.08 618.4,-159.08 618.4,-159.08 612.4,-159.08 606.4,-153.08 606.4,-147.08 606.4,-147.08 606.4,-133.08 606.4,-133.08 606.4,-127.08 612.4,-121.08 618.4,-121.08 618.4,-121.08 826.4,-121.08 826.4,-121.08 832.4,-121.08 838.4,-127.08 838.4,-133.08 838.4,-133.08 838.4,-147.08 838.4,-147.08 838.4,-153.08 832.4,-159.08 826.4,-159.08"/>
<text text-anchor="middle" x="722.4" y="-143.88" font-family="Times-Roman" font-size="14.00">Gun Banners Say the Darndest</text>
<text text-anchor="middle" x="722.4" y="-128.88" font-family="Times-Roman" font-size="14.00">Things</text>
</g>
<!-- step1_current&#45;&gt;step1_opt4 -->
<g id="edge4" class="edge">
<title>step1_current&#45;&gt;step1_opt4</title>
<path fill="none" stroke="#888888" d="M516.22,-177.12C545.12,-171.91 576.61,-166.22 606.06,-160.91"/>
<polygon fill="#888888" stroke="#888888" points="606.74,-164.34 615.96,-159.12 605.5,-157.45 606.74,-164.34"/>
<text text-anchor="middle" x="580.9" y="-168.08" font-family="Times-Roman" font-size="10.00">4</text>
</g>
<!-- step1_opt5 -->
<g id="node8" class="node">
<title>step1_opt5</title>
<path fill="#d7f5d0" stroke="#2d9c4a" stroke-width="2" d="M807.4,-103.08C807.4,-103.08 637.4,-103.08 637.4,-103.08 631.4,-103.08 625.4,-97.08 625.4,-91.08 625.4,-91.08 625.4,-77.08 625.4,-77.08 625.4,-71.08 631.4,-65.08 637.4,-65.08 637.4,-65.08 807.4,-65.08 807.4,-65.08 813.4,-65.08 819.4,-71.08 819.4,-77.08 819.4,-77.08 819.4,-91.08 819.4,-91.08 819.4,-97.08 813.4,-103.08 807.4,-103.08"/>
<text text-anchor="middle" x="722.4" y="-87.88" font-family="Times-Roman" font-size="14.00">How to Create a Gun&#45;Free</text>
<text text-anchor="middle" x="722.4" y="-72.88" font-family="Times-Roman" font-size="14.00">America in 5 Easy Steps</text>
</g>
<!-- step1_current&#45;&gt;step1_opt5 -->
<g id="edge5" class="edge">
<title>step1_current&#45;&gt;step1_opt5</title>
<path fill="none" stroke="#2d9c4a" stroke-width="2.5" d="M461.73,-170.85C499.71,-152.63 553.4,-128.46 602.4,-112.08 608.89,-109.91 615.64,-107.85 622.47,-105.89"/>
<polygon fill="#2d9c4a" stroke="#2d9c4a" stroke-width="2.5" points="623.82,-109.15 632.52,-103.1 621.95,-102.4 623.82,-109.15"/>
<text text-anchor="middle" x="580.9" y="-122.08" font-family="Times-Roman" font-size="10.00">5</text>
</g>
<!-- step2_current -->
<g id="node9" class="node">
<title>step2_current</title>
<ellipse fill="#eef3ff" stroke="black" cx="1057.58" cy="-84.08" rx="137.36" ry="26.74"/>
<text text-anchor="middle" x="1057.58" y="-87.88" font-family="Times-Roman" font-size="14.00">How to Create a Gun&#45;Free</text>
<text text-anchor="middle" x="1057.58" y="-72.88" font-family="Times-Roman" font-size="14.00">America in 5 Easy Steps</text>
</g>
<!-- step1_opt5&#45;&gt;step2_current -->
<g id="edge8" class="edge">
<title>step1_opt5&#45;&gt;step2_current</title>
<path fill="none" stroke="#2d9c4a" stroke-width="2.5" stroke-dasharray="5,2" d="M819.77,-84.08C847.91,-84.08 879.33,-84.08 909.85,-84.08"/>
<polygon fill="#2d9c4a" stroke="#2d9c4a" stroke-width="2.5" points="910.16,-87.58 920.16,-84.08 910.16,-80.58 910.16,-87.58"/>
<text text-anchor="middle" x="881.4" y="-87.08" font-family="Times-Roman" font-size="10.00">selected</text>
</g>
<!-- step2_opt1 -->
<g id="node10" class="node">
<title>step2_opt1</title>
<path fill="#ffffff" stroke="black" d="M1452.76,-138.08C1452.76,-138.08 1262.76,-138.08 1262.76,-138.08 1256.76,-138.08 1250.76,-132.08 1250.76,-126.08 1250.76,-126.08 1250.76,-112.08 1250.76,-112.08 1250.76,-106.08 1256.76,-100.08 1262.76,-100.08 1262.76,-100.08 1452.76,-100.08 1452.76,-100.08 1458.76,-100.08 1464.76,-106.08 1464.76,-112.08 1464.76,-112.08 1464.76,-126.08 1464.76,-126.08 1464.76,-132.08 1458.76,-138.08 1452.76,-138.08"/>
<text text-anchor="middle" x="1357.76" y="-122.88" font-family="Times-Roman" font-size="14.00">Democrats Need to Listen to</text>
<text text-anchor="middle" x="1357.76" y="-107.88" font-family="Times-Roman" font-size="14.00">Gun Owners</text>
</g>
<!-- step2_current&#45;&gt;step2_opt1 -->
<g id="edge6" class="edge">
<title>step2_current&#45;&gt;step2_opt1</title>
<path fill="none" stroke="#888888" d="M1175.57,-97.82C1196.84,-100.31 1219.02,-102.92 1240.28,-105.41"/>
<polygon fill="#888888" stroke="#888888" points="1239.96,-108.9 1250.3,-106.59 1240.77,-101.95 1239.96,-108.9"/>
<text text-anchor="middle" x="1216.26" y="-105.08" font-family="Times-Roman" font-size="10.00">1</text>
</g>
<!-- step2_opt2 -->
<g id="node11" class="node">
<title>step2_opt2</title>
<path fill="#d7f5d0" stroke="#2d9c4a" stroke-width="2" d="M1465.76,-82.08C1465.76,-82.08 1249.76,-82.08 1249.76,-82.08 1243.76,-82.08 1237.76,-76.08 1237.76,-70.08 1237.76,-70.08 1237.76,-26.08 1237.76,-26.08 1237.76,-20.08 1243.76,-14.08 1249.76,-14.08 1249.76,-14.08 1465.76,-14.08 1465.76,-14.08 1471.76,-14.08 1477.76,-20.08 1477.76,-26.08 1477.76,-26.08 1477.76,-70.08 1477.76,-70.08 1477.76,-76.08 1471.76,-82.08 1465.76,-82.08"/>
<text text-anchor="middle" x="1357.76" y="-66.88" font-family="Times-Roman" font-size="14.00">Piers Morgan Argues With Pro&#45;</text>
<text text-anchor="middle" x="1357.76" y="-51.88" font-family="Times-Roman" font-size="14.00">Gun Campaigner About Orlando</text>
<text text-anchor="middle" x="1357.76" y="-36.88" font-family="Times-Roman" font-size="14.00">Shooting | Good Morning</text>
<text text-anchor="middle" x="1357.76" y="-21.88" font-family="Times-Roman" font-size="14.00">Britain</text>
</g>
<!-- step2_current&#45;&gt;step2_opt2 -->
<g id="edge7" class="edge">
<title>step2_current&#45;&gt;step2_opt2</title>
<path fill="none" stroke="#2d9c4a" stroke-width="2.5" d="M1174.72,-70.06C1191.94,-67.98 1209.78,-65.83 1227.26,-63.72"/>
<polygon fill="#2d9c4a" stroke="#2d9c4a" stroke-width="2.5" points="1227.99,-67.16 1237.5,-62.48 1227.15,-60.21 1227.99,-67.16"/>
<text text-anchor="middle" x="1216.26" y="-67.08" font-family="Times-Roman" font-size="10.00">2</text>
</g>
<!-- step2_selected -->
<g id="node12" class="node">
<title>step2_selected</title>
<ellipse fill="#eef3ff" stroke="black" cx="1725.46" cy="-48.08" rx="169.91" ry="48.17"/>
<text text-anchor="middle" x="1725.46" y="-66.88" font-family="Times-Roman" font-size="14.00">Piers Morgan Argues With Pro&#45;</text>
<text text-anchor="middle" x="1725.46" y="-51.88" font-family="Times-Roman" font-size="14.00">Gun Campaigner About Orlando</text>
<text text-anchor="middle" x="1725.46" y="-36.88" font-family="Times-Roman" font-size="14.00">Shooting | Good Morning</text>
<text text-anchor="middle" x="1725.46" y="-21.88" font-family="Times-Roman" font-size="14.00">Britain</text>
</g>
<!-- step2_opt2&#45;&gt;step2_selected -->
<g id="edge10" class="edge">
<title>step2_opt2&#45;&gt;step2_selected</title>
<path fill="none" stroke="#2d9c4a" stroke-width="2.5" stroke-dasharray="5,2" d="M1478,-48.08C1499.6,-48.08 1522.56,-48.08 1545.44,-48.08"/>
<polygon fill="#2d9c4a" stroke="#2d9c4a" stroke-width="2.5" points="1545.59,-51.58 1555.59,-48.08 1545.59,-44.58 1545.59,-51.58"/>
<text text-anchor="middle" x="1516.76" y="-51.08" font-family="Times-Roman" font-size="10.00">selected</text>
</g>
<!-- step2_selected&#45;&gt;opinion_final -->
<g id="edge11" class="edge">
<title>step2_selected&#45;&gt;opinion_final</title>
<path fill="none" stroke="#bf616a" stroke-width="2.5" d="M1895.57,-48.08C1904.39,-48.08 1913.22,-48.08 1921.96,-48.08"/>
<polygon fill="#bf616a" stroke="#bf616a" stroke-width="2.5" points="1922.16,-51.58 1932.16,-48.08 1922.16,-44.58 1922.16,-51.58"/>
</g>
</g>
</svg>
