<?xml version="1.0" encoding="UTF-8" standalone="no"?>
<!DOCTYPE svg PUBLIC "-//W3C//DTD SVG 1.1//EN"
 "http://www.w3.org/Graphics/SVG/1.1/DTD/svg11.dtd">
<!-- Generated by graphviz version 2.44.0 (0)
 -->
<!-- Pages: 1 -->
<svg width="2053pt" height="469pt"
 viewBox="0.00 0.00 2052.89 469.00" xmlns="http://www.w3.org/2000/svg" xmlns:xlink="http://www.w3.org/1999/xlink">
<g id="graph0" class="graph" transform="scale(1 1) rotate(0) translate(4 465)">
<polygon fill="white" stroke="transparent" points="-4,4 -4,-465 2048.89,-465 2048.89,4 -4,4"/>
<!-- step2_current -->
<g id="node1" class="node">
<title>step2_current</title>
<ellipse fill="#eef3ff" stroke="black" cx="176.07" cy="-292.5" rx="176.14" ry="26.74"/>
<text text-anchor="middle" x="176.07" y="-296.3" font-family="Times-Roman" font-size="14.00">Common arguments for gun</text>
<text text-anchor="middle" x="176.07" y="-281.3" font-family="Times-Roman" font-size="14.00">control, shot down _RDu0YDeqNk</text>
</g>
<!-- step2_opt1 -->
<g id="node2" class="node">
<title>step2_opt1</title>
<path fill="#ffffff" stroke="black" d="M610.14,-461C610.14,-461 407.14,-461 407.14,-461 401.14,-461 395.14,-455 395.14,-449 395.14,-449 395.14,-420 395.14,-420 395.14,-414 401.14,-408 407.14,-408 407.14,-408 610.14,-408 610.14,-408 616.14,-408 622.14,-414 622.14,-420 622.14,-420 622.14,-449 622.14,-449 622.14,-455 616.14,-461 610.14,-461"/>
<text text-anchor="middle" x="508.64" y="-445.8" font-family="Times-Roman" font-size="14.00">School shooting survivor: CNN</text>
<text text-anchor="middle" x="508.64" y="-430.8" font-family="Times-Roman" font-size="14.00">told me to stick to script</text>
<text text-anchor="middle" x="508.64" y="-415.8" font-family="Times-Roman" font-size="14.00">9owTNI0q8PU</text>
</g>
<!-- step2_current&#45;&gt;step2_opt1 -->
<g id="edge1" class="edge">
<title>step2_current&#45;&gt;step2_opt1</title>
<path fill="none" stroke="#888888" d="M224.6,-318.48C268.14,-341.64 334.8,-375.48 395.14,-399.5 399.37,-401.18 403.71,-402.84 408.12,-404.46"/>
<polygon fill="#888888" stroke="#888888" points="407.26,-407.87 417.85,-407.94 409.62,-401.28 407.26,-407.87"/>
<text text-anchor="middle" x="373.64" y="-394.5" font-family="Times-Roman" font-size="10.00">1</text>
</g>
<!-- step2_opt2 -->
<g id="node3" class="node">
<title>step2_opt2</title>
<path fill="#ffffff" stroke="black" d="M601.64,-390C601.64,-390 415.64,-390 415.64,-390 409.64,-390 403.64,-384 403.64,-378 403.64,-378 403.64,-349 403.64,-349 403.64,-343 409.64,-337 415.64,-337 415.64,-337 601.64,-337 601.64,-337 607.64,-337 613.64,-343 613.64,-349 613.64,-349 613.64,-378 613.64,-378 613.64,-384 607.64,-390 601.64,-390"/>
<text text-anchor="middle" x="508.64" y="-374.8" font-family="Times-Roman" font-size="14.00">Democrat calls for gun ban,</text>
<text text-anchor="middle" x="508.64" y="-359.8" font-family="Times-Roman" font-size="14.00">prison for holdouts</text>
<text text-anchor="middle" x="508.64" y="-344.8" font-family="Times-Roman" font-size="14.00">b1jlxlyvQdE</text>
</g>
<!-- step2_current&#45;&gt;step2_opt2 -->
<g id="edge2" class="edge">
<title>step2_current&#45;&gt;step2_opt2</title>
<path fill="none" stroke="#888888" d="M278.95,-314.38C315.26,-322.18 356.38,-331.01 393.64,-339.01"/>
<polygon fill="#888888" stroke="#888888" points="393.02,-342.46 403.53,-341.14 394.49,-335.62 393.02,-342.46"/>
<text text-anchor="middle" x="373.64" y="-336.5" font-family="Times-Roman" font-size="10.00">2</text>
</g>
<!-- step2_opt3 -->
<g id="node4" class="node">
<title>step2_opt3</title>
<path fill="#ffffff" stroke="black" d="M601.14,-319C601.14,-319 416.14,-319 416.14,-319 410.14,-319 404.14,-313 404.14,-307 404.14,-307 404.14,-278 404.14,-278 404.14,-272 410.14,-266 416.14,-266 416.14,-266 601.14,-266 601.14,-266 607.14,-266 613.14,-272 613.14,-278 613.14,-278 613.14,-307 613.14,-307 613.14,-313 607.14,-319 601.14,-319"/>
<text text-anchor="middle" x="508.64" y="-303.8" font-family="Times-Roman" font-size="14.00">Tucker: Left colluding with</text>
<text text-anchor="middle" x="508.64" y="-288.8" font-family="Times-Roman" font-size="14.00">companies to suppress gun</text>
<text text-anchor="middle" x="508.64" y="-273.8" font-family="Times-Roman" font-size="14.00">rights s9S5e1cJa0o</text>
</g>
<!-- step2_current&#45;&gt;step2_opt3 -->
<g id="edge3" class="edge">
<title>step2_current&#45;&gt;step2_opt3</title>
<path fill="none" stroke="#888888" d="M352.52,-292.5C366.56,-292.5 380.5,-292.5 393.93,-292.5"/>
<polygon fill="#888888" stroke="#888888" points="394.1,-296 404.1,-292.5 394.1,-289 394.1,-296"/>
<text text-anchor="middle" x="373.64" y="-295.5" font-family="Times-Roman" font-size="10.00">3</text>
</g>
<!-- step2_opt4 -->
<g id="node5" class="node">
<title>step2_opt4</title>
<path fill="#ffffff" stroke="black" d="M601.14,-248C601.14,-248 416.14,-248 416.14,-248 410.14,-248 404.14,-242 404.14,-236 404.14,-236 404.14,-207 404.14,-207 404.14,-201 410.14,-195 416.14,-195 416.14,-195 601.14,-195 601.14,-195 607.14,-195 613.14,-201 613.14,-207 613.14,-207 613.14,-236 613.14,-236 613.14,-242 607.14,-248 601.14,-248"/>
<text text-anchor="middle" x="508.64" y="-232.8" font-family="Times-Roman" font-size="14.00">Rep. Ron DeSantis reacts to</text>
<text text-anchor="middle" x="508.64" y="-217.8" font-family="Times-Roman" font-size="14.00">new Florida gun law</text>
<text text-anchor="middle" x="508.64" y="-202.8" font-family="Times-Roman" font-size="14.00">wgX2gkM9y50</text>
</g>
<!-- step2_current&#45;&gt;step2_opt4 -->
<g id="edge4" class="edge">
<title>step2_current&#45;&gt;step2_opt4</title>
<path fill="none" stroke="#888888" d="M278.95,-270.62C315.43,-262.78 356.77,-253.9 394.18,-245.87"/>
<polygon fill="#888888" stroke="#888888" points="395.06,-249.26 404.1,-243.74 393.59,-242.42 395.06,-249.26"/>
<text text-anchor="middle" x="373.64" y="-253.5" font-family="Times-Roman" font-size="10.00">4</text>
</g>
<!-- step2_opt5 -->
<g id="node6" class="node">
<title>step2_opt5</title>
<path fill="#d7f5d0" stroke="#2d9c4a" stroke-width="2" d="M604.14,-177C604.14,-177 413.14,-177 413.14,-177 407.14,-177 401.14,-171 401.14,-165 401.14,-165 401.14,-136 401.14,-136 401.14,-130 407.14,-124 413.14,-124 413.14,-124 604.14,-124 604.14,-124 610.14,-124 616.14,-130 616.14,-136 616.14,-136 616.14,-165 616.14,-165 616.14,-171 610.14,-177 604.14,-177"/>
<text text-anchor="middle" x="508.64" y="-161.8" font-family="Times-Roman" font-size="14.00">Florida&#39;s New Gun Control</text>
<text text-anchor="middle" x="508.64" y="-146.8" font-family="Times-Roman" font-size="14.00">Explained in 6 Minutes &#45; The</text>
<text text-anchor="middle" x="508.64" y="-131.8" font-family="Times-Roman" font-size="14.00">Legal Brief! Meiy4DXThLU</text>
</g>
<!-- step2_current&#45;&gt;step2_opt5 -->
<g id="edge5" class="edge">
<title>step2_current&#45;&gt;step2_opt5</title>
<path fill="none" stroke="#2d9c4a" stroke-width="2.5" d="M225.11,-266.69C268.7,-243.85 335.16,-210.53 395.14,-186.5 400.2,-184.47 405.41,-182.48 410.71,-180.54"/>
<polygon fill="#2d9c4a" stroke="#2d9c4a" stroke-width="2.5" points="412.07,-183.77 420.29,-177.09 409.7,-177.18 412.07,-183.77"/>
<text text-anchor="middle" x="373.64" y="-199.5" font-family="Times-Roman" font-size="10.00">5</text>
</g>
<!-- step3_current -->
<g id="node7" class="node">
<title>step3_current</title>
<ellipse fill="#eef3ff" stroke="black" cx="852.17" cy="-150.5" rx="152.06" ry="37.45"/>
<text text-anchor="middle" x="852.17" y="-161.8" font-family="Times-Roman" font-size="14.00">Florida&#39;s New Gun Control</text>
<text text-anchor="middle" x="852.17" y="-146.8" font-family="Times-Roman" font-size="14.00">Explained in 6 Minutes &#45; The</text>
<text text-anchor="middle" x="852.17" y="-131.8" font-family="Times-Roman" font-size="14.00">Legal Brief! Meiy4DXThLU</text>
</g>
<!-- step2_opt5&#45;&gt;step3_current -->
<g id="edge12" class="edge">
<title>step2_opt5&#45;&gt;step3_current</title>
<path fill="none" stroke="#2d9c4a" stroke-width="2.5" stroke-dasharray="5,2" d="M616.3,-150.5C639.6,-150.5 664.78,-150.5 689.69,-150.5"/>
<polygon fill="#2d9c4a" stroke="#2d9c4a" stroke-width="2.5" points="689.96,-154 699.96,-150.5 689.96,-147 689.96,-154"/>
<text text-anchor="middle" x="661.14" y="-153.5" font-family="Times-Roman" font-size="10.00">selected</text>
</g>
<!-- step3_opt1 -->
<g id="node8" class="node">
<title>step3_opt1</title>
<path fill="#ffffff" stroke="black" d="M1272.7,-251.5C1272.7,-251.5 1081.7,-251.5 1081.7,-251.5 1075.7,-251.5 1069.7,-245.5 1069.7,-239.5 1069.7,-239.5 1069.7,-225.5 1069.7,-225.5 1069.7,-219.5 1075.7,-213.5 1081.7,-213.5 1081.7,-213.5 1272.7,-213.5 1272.7,-213.5 1278.7,-213.5 1284.7,-219.5 1284.7,-225.5 1284.7,-225.5 1284.7,-239.5 1284.7,-239.5 1284.7,-245.5 1278.7,-251.5 1272.7,-251.5"/>
<text text-anchor="middle" x="1177.2" y="-236.3" font-family="Times-Roman" font-size="14.00">Florida Seize Firearms Under</text>
<text text-anchor="middle" x="1177.2" y="-221.3" font-family="Times-Roman" font-size="14.00">New Law 4EF0Ie2XFfw</text>
</g>
<!-- step3_current&#45;&gt;step3_opt1 -->
<g id="edge6" class="edge">
<title>step3_current&#45;&gt;step3_opt1</title>
<path fill="none" stroke="#888888" d="M951.58,-179.08C982.13,-187.63 1015.97,-196.77 1047.2,-204.5 1056.36,-206.77 1065.91,-209.03 1075.5,-211.23"/>
<polygon fill="#888888" stroke="#888888" points="1074.95,-214.7 1085.48,-213.5 1076.5,-207.87 1074.95,-214.7"/>
<text text-anchor="middle" x="1025.7" y="-201.5" font-family="Times-Roman" font-size="10.00">1</text>
</g>
<!-- step3_opt2 -->
<g id="node9" class="node">
<title>step3_opt2</title>
<path fill="#ffffff" stroke="black" d="M1259.2,-195C1259.2,-195 1095.2,-195 1095.2,-195 1089.2,-195 1083.2,-189 1083.2,-183 1083.2,-183 1083.2,-154 1083.2,-154 1083.2,-148 1089.2,-142 1095.2,-142 1095.2,-142 1259.2,-142 1259.2,-142 1265.2,-142 1271.2,-148 1271.2,-154 1271.2,-154 1271.2,-183 1271.2,-183 1271.2,-189 1265.2,-195 1259.2,-195"/>
<text text-anchor="middle" x="1177.2" y="-179.8" font-family="Times-Roman" font-size="14.00">Militia, Pro&#45;Gun Activists</text>
<text text-anchor="middle" x="1177.2" y="-164.8" font-family="Times-Roman" font-size="14.00">Confront &quot;&quot;March for our</text>
<text text-anchor="middle" x="1177.2" y="-149.8" font-family="Times-Roman" font-size="14.00">Lives&quot;&quot; DC AYBpZ7jj_K8</text>
</g>
<!-- step3_current&#45;&gt;step3_opt2 -->
<g id="edge7" class="edge">
<title>step3_current&#45;&gt;step3_opt2</title>
<path fill="none" stroke="#888888" d="M1000.97,-158.74C1025.29,-160.09 1050.01,-161.47 1072.94,-162.75"/>
<polygon fill="#888888" stroke="#888888" points="1072.81,-166.24 1082.99,-163.31 1073.2,-159.26 1072.81,-166.24"/>
<text text-anchor="middle" x="1025.7" y="-162.5" font-family="Times-Roman" font-size="10.00">2</text>
</g>
<!-- step3_opt3 -->
<g id="node10" class="node">
<title>step3_opt3</title>
<path fill="#d7f5d0" stroke="#2d9c4a" stroke-width="2" d="M1295.2,-124C1295.2,-124 1059.2,-124 1059.2,-124 1053.2,-124 1047.2,-118 1047.2,-112 1047.2,-112 1047.2,-83 1047.2,-83 1047.2,-77 1053.2,-71 1059.2,-71 1059.2,-71 1295.2,-71 1295.2,-71 1301.2,-71 1307.2,-77 1307.2,-83 1307.2,-83 1307.2,-112 1307.2,-112 1307.2,-118 1301.2,-124 1295.2,-124"/>
<text text-anchor="middle" x="1177.2" y="-108.8" font-family="Times-Roman" font-size="14.00">&quot;&quot;GUN CONFISCATION BECOMES A</text>
<text text-anchor="middle" x="1177.2" y="-93.8" font-family="Times-Roman" font-size="14.00">REALITY IN ILLINOIS!&quot;&quot;</text>
<text text-anchor="middle" x="1177.2" y="-78.8" font-family="Times-Roman" font-size="14.00">zxsKtQPbhCs</text>
</g>
<!-- step3_current&#45;&gt;step3_opt3 -->
<g id="edge8" class="edge">
<title>step3_current&#45;&gt;step3_opt3</title>
<path fill="none" stroke="#2d9c4a" stroke-width="2.5" d="M979.45,-129.78C998.36,-126.68 1017.95,-123.46 1037.11,-120.32"/>
<polygon fill="#2d9c4a" stroke="#2d9c4a" stroke-width="2.5" points="1037.78,-123.76 1047.08,-118.68 1036.64,-116.85 1037.78,-123.76"/>
<text text-anchor="middle" x="1025.7" y="-124.5" font-family="Times-Roman" font-size="10.00">3</text>
</g>
<!-- step3_opt4 -->
<g id="node11" class="node">
<title>step3_opt4</title>
<path fill="#ffffff" stroke="black" d="M1282.7,-53C1282.7,-53 1071.7,-53 1071.7,-53 1065.7,-53 1059.7,-47 1059.7,-41 1059.7,-41 1059.7,-12 1059.7,-12 1059.7,-6 1065.7,0 1071.7,0 1071.7,0 1282.7,0 1282.7,0 1288.7,0 1294.7,-6 1294.7,-12 1294.7,-12 1294.7,-41 1294.7,-41 1294.7,-47 1288.7,-53 1282.7,-53"/>
<text text-anchor="middle" x="1177.2" y="-37.8" font-family="Times-Roman" font-size="14.00">NJ Attempts Confiscation Of My</text>
<text text-anchor="middle" x="1177.2" y="-22.8" font-family="Times-Roman" font-size="14.00">Friend&#39;s Guns!!! &#160;Red Flag Law</text>
<text text-anchor="middle" x="1177.2" y="-7.8" font-family="Times-Roman" font-size="14.00">Gone Wrong!!! j9eVJ37EOoI</text>
</g>
<!-- step3_current&#45;&gt;step3_opt4 -->
<g id="edge9" class="edge">
<title>step3_current&#45;&gt;step3_opt4</title>
<path fill="none" stroke="#888888" d="M919.37,-116.83C956.36,-98.87 1003.64,-77.28 1047.2,-61.5 1052.24,-59.67 1057.43,-57.89 1062.69,-56.16"/>
<polygon fill="#888888" stroke="#888888" points="1063.77,-59.49 1072.22,-53.1 1061.63,-52.82 1063.77,-59.49"/>
<text text-anchor="middle" x="1025.7" y="-73.5" font-family="Times-Roman" font-size="10.00">4</text>
</g>
<!-- step4_current -->
<g id="node12" class="node">
<title>step4_current</title>
<ellipse fill="#eef3ff" stroke="black" cx="1569.04" cy="-97.5" rx="183.7" ry="37.45"/>
<text text-anchor="middle" x="1569.04" y="-108.8" font-family="Times-Roman" font-size="14.00">&quot;&quot;GUN CONFISCATION BECOMES A</text>
<text text-anchor="middle" x="1569.04" y="-93.8" font-family="Times-Roman" font-size="14.00">REALITY IN ILLINOIS!&quot;&quot;</text>
<text text-anchor="middle" x="1569.04" y="-78.8" font-family="Times-Roman" font-size="14.00">zxsKtQPbhCs</text>
</g>
<!-- step3_opt3&#45;&gt;step4_current -->
<g id="edge13" class="edge">
<title>step3_opt3&#45;&gt;step4_current</title>
<path fill="none" stroke="#2d9c4a" stroke-width="2.5" stroke-dasharray="5,2" d="M1307.2,-97.5C1328.92,-97.5 1351.89,-97.5 1374.83,-97.5"/>
<polygon fill="#2d9c4a" stroke="#2d9c4a" stroke-width="2.5" points="1375,-101 1385,-97.5 1375,-94 1375,-101"/>
<text text-anchor="middle" x="1346.2" y="-100.5" font-family="Times-Roman" font-size="10.00">selected</text>
</g>
<!-- step4_opt1 -->
<g id="node13" class="node">
<title>step4_opt1</title>
<path fill="#ffffff" stroke="black" d="M2032.89,-148.5C2032.89,-148.5 1807.89,-148.5 1807.89,-148.5 1801.89,-148.5 1795.89,-142.5 1795.89,-136.5 1795.89,-136.5 1795.89,-122.5 1795.89,-122.5 1795.89,-116.5 1801.89,-110.5 1807.89,-110.5 1807.89,-110.5 2032.89,-110.5 2032.89,-110.5 2038.89,-110.5 2044.89,-116.5 2044.89,-122.5 2044.89,-122.5 2044.89,-136.5 2044.89,-136.5 2044.89,-142.5 2038.89,-148.5 2032.89,-148.5"/>
<text text-anchor="middle" x="1920.39" y="-133.3" font-family="Times-Roman" font-size="14.00">Common arguments for gun</text>
<text text-anchor="middle" x="1920.39" y="-118.3" font-family="Times-Roman" font-size="14.00">control, shot down _RDu0YDeqNk</text>
</g>
<!-- step4_current&#45;&gt;step4_opt1 -->
<g id="edge10" class="edge">
<title>step4_current&#45;&gt;step4_opt1</title>
<path fill="none" stroke="#888888" d="M1737.04,-112.8C1753.3,-114.29 1769.65,-115.78 1785.53,-117.24"/>
<polygon fill="#888888" stroke="#888888" points="1785.61,-120.76 1795.88,-118.19 1786.25,-113.79 1785.61,-120.76"/>
<text text-anchor="middle" x="1774.39" y="-118.5" font-family="Times-Roman" font-size="10.00">1</text>
</g>
<!-- step4_opt2 -->
<g id="node14" class="node">
<title>step4_opt2</title>
<path fill="#d7f5d0" stroke="#2d9c4a" stroke-width="2" d="M2022.89,-92C2022.89,-92 1817.89,-92 1817.89,-92 1811.89,-92 1805.89,-86 1805.89,-80 1805.89,-80 1805.89,-51 1805.89,-51 1805.89,-45 1811.89,-39 1817.89,-39 1817.89,-39 2022.89,-39 2022.89,-39 2028.89,-39 2034.89,-45 2034.89,-51 2034.89,-51 2034.89,-80 2034.89,-80 2034.89,-86 2028.89,-92 2022.89,-92"/>
<text text-anchor="middle" x="1920.39" y="-76.8" font-family="Times-Roman" font-size="14.00">20 States Looking To Pass</text>
<text text-anchor="middle" x="1920.39" y="-61.8" font-family="Times-Roman" font-size="14.00">ILLEGAL Gun Confiscation Bills</text>
<text text-anchor="middle" x="1920.39" y="-46.8" font-family="Times-Roman" font-size="14.00">c4_XbElCe8w</text>
</g>
<!-- step4_current&#45;&gt;step4_opt2 -->
<g id="edge11" class="edge">
<title>step4_current&#45;&gt;step4_opt2</title>
<path fill="none" stroke="#2d9c4a" stroke-width="2.5" d="M1737.04,-82.2C1756.67,-80.4 1776.43,-78.6 1795.32,-76.86"/>
<polygon fill="#2d9c4a" stroke="#2d9c4a" stroke-width="2.5" points="1795.78,-80.34 1805.42,-75.94 1795.14,-73.37 1795.78,-80.34"/>
<text text-anchor="middle" x="1774.39" y="-82.5" font-family="Times-Roman" font-size="10.00">2</text>
</g>
</g>
</svg>
