<?xml version="1.0" encoding="UTF-8" standalone="no"?>
<!DOCTYPE svg PUBLIC "-//W3C//DTD SVG 1.1//EN"
 "http://www.w3.org/Graphics/SVG/1.1/DTD/svg11.dtd">
<!-- Generated by graphviz version 2.44.0 (0)
 -->
<!-- Pages: 1 -->
<svg width="8155pt" height="582pt"
 viewBox="0.00 0.00 8155.35 582.00" xmlns="http://www.w3.org/2000/svg" xmlns:xlink="http://www.w3.org/1999/xlink">
<g id="graph0" class="graph" transform="scale(1 1) rotate(0) translate(4 578)">
<polygon fill="white" stroke="transparent" points="-4,4 -4,-578 8151.35,-578 8151.35,4 -4,4"/>
<!-- step2_current -->
<g id="node1" class="node">
<title>step2_current</title>
<ellipse fill="#eef3ff" stroke="black" cx="149.2" cy="-148" rx="149.4" ry="37.45"/>
<text text-anchor="middle" x="149.2" y="-159.3" font-family="Times-Roman" font-size="14.00">Raise The Minimum Wage &#45;&#45;</text>
<text text-anchor="middle" x="149.2" y="-144.3" font-family="Times-Roman" font-size="14.00">Robert Reich &amp; MoveOn.org</text>
<text text-anchor="middle" x="149.2" y="-129.3" font-family="Times-Roman" font-size="14.00">ct8CGJy9eF8</text>
</g>
<!-- step2_opt1 -->
<g id="node2" class="node">
<title>step2_opt1</title>
<path fill="#d7f5d0" stroke="#2d9c4a" stroke-width="2" d="M1475.4,-267C1475.4,-267 1274.4,-267 1274.4,-267 1268.4,-267 1262.4,-261 1262.4,-255 1262.4,-255 1262.4,-241 1262.4,-241 1262.4,-235 1268.4,-229 1274.4,-229 1274.4,-229 1475.4,-229 1475.4,-229 1481.4,-229 1487.4,-235 1487.4,-241 1487.4,-241 1487.4,-255 1487.4,-255 1487.4,-261 1481.4,-267 1475.4,-267"/>
<text text-anchor="middle" x="1374.9" y="-251.8" font-family="Times-Roman" font-size="14.00">Stossel: Minimum Wage Hurts</text>
<text text-anchor="middle" x="1374.9" y="-236.8" font-family="Times-Roman" font-size="14.00">Beginners A02ciYFzTHw</text>
</g>
<!-- step2_current&#45;&gt;step2_opt1 -->
<g id="edge1" class="edge">
<title>step2_current&#45;&gt;step2_opt1</title>
<path fill="none" stroke="#2d9c4a" stroke-width="2.5" d="M221.67,-180.89C256.93,-195.46 300.56,-211.07 341.4,-219 665.45,-281.93 1057.33,-269.35 1251.94,-257.32"/>
<polygon fill="#2d9c4a" stroke="#2d9c4a" stroke-width="2.5" points="1252.44,-260.8 1262.2,-256.68 1252,-253.81 1252.44,-260.8"/>
<text text-anchor="middle" x="319.9" y="-218" font-family="Times-Roman" font-size="10.00">1</text>
</g>
<!-- step2_opt2 -->
<g id="node3" class="node">
<title>step2_opt2</title>
<path fill="#ffffff" stroke="black" d="M1485.9,-210.5C1485.9,-210.5 1263.9,-210.5 1263.9,-210.5 1257.9,-210.5 1251.9,-204.5 1251.9,-198.5 1251.9,-198.5 1251.9,-169.5 1251.9,-169.5 1251.9,-163.5 1257.9,-157.5 1263.9,-157.5 1263.9,-157.5 1485.9,-157.5 1485.9,-157.5 1491.9,-157.5 1497.9,-163.5 1497.9,-169.5 1497.9,-169.5 1497.9,-198.5 1497.9,-198.5 1497.9,-204.5 1491.9,-210.5 1485.9,-210.5"/>
<text text-anchor="middle" x="1374.9" y="-195.3" font-family="Times-Roman" font-size="14.00">Caller: Minimum Wage Should be</text>
<text text-anchor="middle" x="1374.9" y="-180.3" font-family="Times-Roman" font-size="14.00">set by Supply &amp; Demand</text>
<text text-anchor="middle" x="1374.9" y="-165.3" font-family="Times-Roman" font-size="14.00">fuf9nukvWW4</text>
</g>
<!-- step2_current&#45;&gt;step2_opt2 -->
<g id="edge2" class="edge">
<title>step2_current&#45;&gt;step2_opt2</title>
<path fill="none" stroke="#888888" d="M293.42,-157.87C301.19,-158.28 308.89,-158.66 316.4,-159 649.1,-173.94 1041.1,-180.26 1241.44,-182.67"/>
<polygon fill="#888888" stroke="#888888" points="1241.67,-186.18 1251.71,-182.79 1241.76,-179.18 1241.67,-186.18"/>
<text text-anchor="middle" x="319.9" y="-162" font-family="Times-Roman" font-size="10.00">2</text>
</g>
<!-- step2_opt3 -->
<g id="node4" class="node">
<title>step2_opt3</title>
<path fill="#ffffff" stroke="black" d="M2396.4,-139.5C2396.4,-139.5 353.4,-139.5 353.4,-139.5 347.4,-139.5 341.4,-133.5 341.4,-127.5 341.4,-127.5 341.4,-98.5 341.4,-98.5 341.4,-92.5 347.4,-86.5 353.4,-86.5 353.4,-86.5 2396.4,-86.5 2396.4,-86.5 2402.4,-86.5 2408.4,-92.5 2408.4,-98.5 2408.4,-98.5 2408.4,-127.5 2408.4,-127.5 2408.4,-133.5 2402.4,-139.5 2396.4,-139.5"/>
<text text-anchor="middle" x="1374.9" y="-124.3" font-family="Times-Roman" font-size="14.00">Fast Food CEO After Minimum</text>
<text text-anchor="middle" x="1374.9" y="-109.3" font-family="Times-Roman" font-size="14.00">Wage Increase: &quot;&quot;&quot;&quot;&quot;&quot;&quot;&quot;&quot;&quot;&quot;&quot;&quot;&quot;&quot;&quot;&quot;&quot;&quot;&quot;&quot;&quot;&quot;&quot;&quot;&quot;&quot;&quot;&quot;&quot;&quot;&quot;&quot;&quot;&quot;&quot;&quot;&quot;&quot;&quot;&quot;&quot;&quot;&quot;&quot;&quot;&quot;&quot;&quot;&quot;&quot;&quot;&quot;&quot;&quot;&quot;&quot;&quot;&quot;&quot;&quot;&quot;&quot;&quot;&quot;&quot;&quot;&quot;&quot;&quot;&quot;&quot;&quot;&quot;&quot;&quot;&quot;&quot;&quot;&quot;&quot;&quot;&quot;&quot;&quot;&quot;&quot;&quot;&quot;&quot;&quot;&quot;&quot;&quot;&quot;&quot;&quot;&quot;&quot;&quot;&quot;&quot;&quot;&quot;&quot;&quot;&quot;&quot;&quot;&quot;&quot;&quot;&quot;&quot;&quot;&quot;&quot;&quot;&quot;&quot;&quot;&quot;&quot;&quot;&quot;&quot;&quot;&quot;&quot;&quot;&quot;&quot;&quot;&quot;&quot;&quot;&quot;&quot;&quot;&quot;&quot;&quot;&quot;&quot;&quot;&quot;&quot;&quot;&quot;&quot;&quot;&quot;&quot;&quot;&quot;&quot;&quot;&quot;&quot;&quot;&quot;&quot;&quot;&quot;&quot;&quot;&quot;&quot;&quot;&quot;&quot;&quot;&quot;&quot;&quot;&quot;&quot;&quot;&quot;&quot;&quot;&quot;&quot;&quot;&quot;&quot;&quot;&quot;&quot;&quot;&quot;&quot;&quot;&quot;&quot;&quot;&quot;&quot;&quot;&quot;&quot;&quot;&quot;&quot;&quot;&quot;&quot;&quot;&quot;&quot;&quot;&quot;&quot;&quot;&quot;&quot;&quot;&quot;&quot;&quot;&quot;&quot;&quot;&quot;&quot;&quot;&quot;&quot;&quot;&quot;&quot;&quot;&quot;&quot;&quot;&quot;&quot;&quot;&quot;&quot;&quot;&quot;&quot;&quot;&quot;&quot;&quot;&quot;&quot;&quot;&quot;&quot;&quot;&quot;&quot;&quot;I was stunned by the business</text>
<text text-anchor="middle" x="1374.9" y="-94.3" font-family="Times-Roman" font-size="14.00">&quot;&quot;&quot;&quot;&quot;&quot;&quot;&quot;&quot;&quot;&quot;&quot;&quot;&quot;&quot;&quot;&quot;&quot;&quot;&quot;&quot;&quot;&quot;&quot;&quot;&quot;&quot;&quot;&quot;&quot;&quot;&quot;&quot;&quot;&quot;&quot;&quot;&quot;&quot;&quot;&quot;&quot;&quot;&quot;&quot;&quot;&quot;&quot;&quot;&quot;&quot;&quot;&quot;&quot;&quot;&quot;&quot;&quot;&quot;&quot;&quot;&quot;&quot;&quot;&quot;&quot;&quot;&quot;&quot;&quot;&quot;&quot;&quot;&quot;&quot;&quot;&quot;&quot;&quot;&quot;&quot;&quot;&quot;&quot;&quot;&quot;&quot;&quot;&quot;&quot;&quot;&quot;&quot;&quot;&quot;&quot;&quot;&quot;&quot;&quot;&quot;&quot;&quot;&quot;&quot;&quot;&quot;&quot;&quot;&quot;&quot;&quot;&quot;&quot;&quot;&quot;&quot;&quot;&quot;&quot;&quot;&quot;&quot;&quot;&quot;&quot;&quot;&quot;&quot;&quot;&quot;&quot;&quot;&quot;&quot;&quot;&quot;&quot;&quot;&quot;&quot;&quot;&quot;&quot;&quot;&quot;&quot;&quot;&quot;&quot;&quot;&quot;&quot;&quot;&quot;&quot;&quot;&quot;&quot;&quot;&quot;&quot;&quot;&quot;&quot;&quot;&quot;&quot;&quot;&quot;&quot;&quot;&quot;&quot;&quot;&quot;&quot;&quot;&quot;&quot;&quot;&quot;&quot;&quot;&quot;&quot;&quot;&quot;&quot;&quot;&quot;&quot;&quot;&quot;&quot;&quot;&quot;&quot;&quot;&quot;&quot;&quot;&quot;&quot;&quot;&quot;&quot;&quot;&quot;&quot;&quot;&quot;&quot;&quot;&quot;&quot;&quot;&quot;&quot;&quot;&quot;&quot;&quot;&quot;&quot;&quot;&quot;&quot;&quot;&quot;&quot;&quot;&quot;&quot;&quot;&quot;&quot;&quot;&quot;&quot;&quot;&quot;&quot;&quot;&quot;&quot;&quot;&quot;&quot;&quot;&quot;&quot;&quot;&quot;&quot;&quot; M2ucpEeBfQg</text>
</g>
<!-- step2_current&#45;&gt;step2_opt3 -->
<g id="edge3" class="edge">
<title>step2_current&#45;&gt;step2_opt3</title>
<path fill="none" stroke="#888888" d="M297.5,-143.79C338.17,-142.62 385.48,-141.27 437.15,-139.79"/>
<polygon fill="#888888" stroke="#888888" points="437.3,-143.29 447.2,-139.51 437.1,-136.29 437.3,-143.29"/>
<text text-anchor="middle" x="319.9" y="-147" font-family="Times-Roman" font-size="10.00">3</text>
</g>
<!-- step2_opt4 -->
<g id="node5" class="node">
<title>step2_opt4</title>
<path fill="#ffffff" stroke="black" d="M1485.4,-68C1485.4,-68 1264.4,-68 1264.4,-68 1258.4,-68 1252.4,-62 1252.4,-56 1252.4,-56 1252.4,-12 1252.4,-12 1252.4,-6 1258.4,0 1264.4,0 1264.4,0 1485.4,0 1485.4,0 1491.4,0 1497.4,-6 1497.4,-12 1497.4,-12 1497.4,-56 1497.4,-56 1497.4,-62 1491.4,-68 1485.4,-68"/>
<text text-anchor="middle" x="1374.9" y="-52.8" font-family="Times-Roman" font-size="14.00">The 5 Biggest Myths</text>
<text text-anchor="middle" x="1374.9" y="-37.8" font-family="Times-Roman" font-size="14.00">Republicans Use to Avoid</text>
<text text-anchor="middle" x="1374.9" y="-22.8" font-family="Times-Roman" font-size="14.00">Raising the Minimum Wage |</text>
<text text-anchor="middle" x="1374.9" y="-7.8" font-family="Times-Roman" font-size="14.00">Opinions | NowThis DPn6T0zT6jc</text>
</g>
<!-- step2_current&#45;&gt;step2_opt4 -->
<g id="edge4" class="edge">
<title>step2_current&#45;&gt;step2_opt4</title>
<path fill="none" stroke="#888888" d="M222.17,-115.16C257.36,-100.71 300.78,-85.17 341.4,-77 659.71,-12.94 1043.98,-17.97 1241.87,-26.41"/>
<polygon fill="#888888" stroke="#888888" points="1241.87,-29.91 1252.02,-26.85 1242.18,-22.92 1241.87,-29.91"/>
<text text-anchor="middle" x="319.9" y="-85" font-family="Times-Roman" font-size="10.00">4</text>
</g>
<!-- step3_current -->
<g id="node6" class="node">
<title>step3_current</title>
<ellipse fill="#eef3ff" stroke="black" cx="2645.5" cy="-248" rx="159.2" ry="26.74"/>
<text text-anchor="middle" x="2645.5" y="-251.8" font-family="Times-Roman" font-size="14.00">Stossel: Minimum Wage Hurts</text>
<text text-anchor="middle" x="2645.5" y="-236.8" font-family="Times-Roman" font-size="14.00">Beginners A02ciYFzTHw</text>
</g>
<!-- step2_opt1&#45;&gt;step3_current -->
<g id="edge17" class="edge">
<title>step2_opt1&#45;&gt;step3_current</title>
<path fill="none" stroke="#2d9c4a" stroke-width="2.5" stroke-dasharray="5,2" d="M1487.64,-248C1710.84,-248 2212.92,-248 2476.18,-248"/>
<polygon fill="#2d9c4a" stroke="#2d9c4a" stroke-width="2.5" points="2476.21,-251.5 2486.21,-248 2476.21,-244.5 2476.21,-251.5"/>
<text text-anchor="middle" x="2447.4" y="-251" font-family="Times-Roman" font-size="10.00">selected</text>
</g>
<!-- step3_opt1 -->
<g id="node7" class="node">
<title>step3_opt1</title>
<path fill="#d7f5d0" stroke="#2d9c4a" stroke-width="2" d="M3076.6,-363C3076.6,-363 2870.6,-363 2870.6,-363 2864.6,-363 2858.6,-357 2858.6,-351 2858.6,-351 2858.6,-337 2858.6,-337 2858.6,-331 2864.6,-325 2870.6,-325 2870.6,-325 3076.6,-325 3076.6,-325 3082.6,-325 3088.6,-331 3088.6,-337 3088.6,-337 3088.6,-351 3088.6,-351 3088.6,-357 3082.6,-363 3076.6,-363"/>
<text text-anchor="middle" x="2973.6" y="-347.8" font-family="Times-Roman" font-size="14.00">What the US gets wrong about</text>
<text text-anchor="middle" x="2973.6" y="-332.8" font-family="Times-Roman" font-size="14.00">minimum wage _M3vTvm2cfM</text>
</g>
<!-- step3_current&#45;&gt;step3_opt1 -->
<g id="edge5" class="edge">
<title>step3_current&#45;&gt;step3_opt1</title>
<path fill="none" stroke="#2d9c4a" stroke-width="2.5" d="M2712.98,-272.45C2751.9,-286.27 2802.17,-303.27 2847.6,-316 2855.6,-318.24 2863.93,-320.43 2872.32,-322.52"/>
<polygon fill="#2d9c4a" stroke="#2d9c4a" stroke-width="2.5" points="2871.64,-325.96 2882.19,-324.94 2873.31,-319.16 2871.64,-325.96"/>
<text text-anchor="middle" x="2826.1" y="-312" font-family="Times-Roman" font-size="10.00">1</text>
</g>
<!-- step3_opt2 -->
<g id="node8" class="node">
<title>step3_opt2</title>
<path fill="#ffffff" stroke="black" d="M3087.6,-306.5C3087.6,-306.5 2859.6,-306.5 2859.6,-306.5 2853.6,-306.5 2847.6,-300.5 2847.6,-294.5 2847.6,-294.5 2847.6,-265.5 2847.6,-265.5 2847.6,-259.5 2853.6,-253.5 2859.6,-253.5 2859.6,-253.5 3087.6,-253.5 3087.6,-253.5 3093.6,-253.5 3099.6,-259.5 3099.6,-265.5 3099.6,-265.5 3099.6,-294.5 3099.6,-294.5 3099.6,-300.5 3093.6,-306.5 3087.6,-306.5"/>
<text text-anchor="middle" x="2973.6" y="-291.3" font-family="Times-Roman" font-size="14.00">What They DONT TELL YOU About</text>
<text text-anchor="middle" x="2973.6" y="-276.3" font-family="Times-Roman" font-size="14.00">Minimum Wage... | Thomas</text>
<text text-anchor="middle" x="2973.6" y="-261.3" font-family="Times-Roman" font-size="14.00">Sowell iy57Z5jJkhI</text>
</g>
<!-- step3_current&#45;&gt;step3_opt2 -->
<g id="edge6" class="edge">
<title>step3_current&#45;&gt;step3_opt2</title>
<path fill="none" stroke="#888888" d="M2783.38,-261.43C2801.15,-263.18 2819.35,-264.96 2837.11,-266.7"/>
<polygon fill="#888888" stroke="#888888" points="2837.21,-270.23 2847.5,-267.72 2837.89,-263.26 2837.21,-270.23"/>
<text text-anchor="middle" x="2826.1" y="-269" font-family="Times-Roman" font-size="10.00">2</text>
</g>
<!-- step3_opt3 -->
<g id="node9" class="node">
<title>step3_opt3</title>
<path fill="#ffffff" stroke="black" d="M3072.1,-235C3072.1,-235 2875.1,-235 2875.1,-235 2869.1,-235 2863.1,-229 2863.1,-223 2863.1,-223 2863.1,-209 2863.1,-209 2863.1,-203 2869.1,-197 2875.1,-197 2875.1,-197 3072.1,-197 3072.1,-197 3078.1,-197 3084.1,-203 3084.1,-209 3084.1,-209 3084.1,-223 3084.1,-223 3084.1,-229 3078.1,-235 3072.1,-235"/>
<text text-anchor="middle" x="2973.6" y="-219.8" font-family="Times-Roman" font-size="14.00">Here’s the Truth About a $15</text>
<text text-anchor="middle" x="2973.6" y="-204.8" font-family="Times-Roman" font-size="14.00">Minimum Wage AuK6H4JsfX0</text>
</g>
<!-- step3_current&#45;&gt;step3_opt3 -->
<g id="edge7" class="edge">
<title>step3_current&#45;&gt;step3_opt3</title>
<path fill="none" stroke="#888888" d="M2783.38,-234.57C2806.53,-232.3 2830.41,-229.95 2853.07,-227.73"/>
<polygon fill="#888888" stroke="#888888" points="2853.44,-231.21 2863.05,-226.75 2852.76,-224.24 2853.44,-231.21"/>
<text text-anchor="middle" x="2826.1" y="-234" font-family="Times-Roman" font-size="10.00">3</text>
</g>
<!-- step3_opt4 -->
<g id="node10" class="node">
<title>step3_opt4</title>
<path fill="#ffffff" stroke="black" d="M3084.6,-179C3084.6,-179 2862.6,-179 2862.6,-179 2856.6,-179 2850.6,-173 2850.6,-167 2850.6,-167 2850.6,-153 2850.6,-153 2850.6,-147 2856.6,-141 2862.6,-141 2862.6,-141 3084.6,-141 3084.6,-141 3090.6,-141 3096.6,-147 3096.6,-153 3096.6,-153 3096.6,-167 3096.6,-167 3096.6,-173 3090.6,-179 3084.6,-179"/>
<text text-anchor="middle" x="2973.6" y="-163.8" font-family="Times-Roman" font-size="14.00">Gutfeld: Seattle&#39;s minimum</text>
<text text-anchor="middle" x="2973.6" y="-148.8" font-family="Times-Roman" font-size="14.00">wage hike failures pUv0ScVeoZM</text>
</g>
<!-- step3_current&#45;&gt;step3_opt4 -->
<g id="edge8" class="edge">
<title>step3_current&#45;&gt;step3_opt4</title>
<path fill="none" stroke="#888888" d="M2721.59,-224.24C2759.24,-212.68 2805.64,-198.94 2847.6,-188 2856.21,-185.75 2865.18,-183.52 2874.2,-181.36"/>
<polygon fill="#888888" stroke="#888888" points="2875.05,-184.76 2883.98,-179.05 2873.44,-177.95 2875.05,-184.76"/>
<text text-anchor="middle" x="2826.1" y="-197" font-family="Times-Roman" font-size="10.00">4</text>
</g>
<!-- step4_current -->
<g id="node11" class="node">
<title>step4_current</title>
<ellipse fill="#eef3ff" stroke="black" cx="3340.23" cy="-344" rx="162.77" ry="26.74"/>
<text text-anchor="middle" x="3340.23" y="-347.8" font-family="Times-Roman" font-size="14.00">What the US gets wrong about</text>
<text text-anchor="middle" x="3340.23" y="-332.8" font-family="Times-Roman" font-size="14.00">minimum wage _M3vTvm2cfM</text>
</g>
<!-- step3_opt1&#45;&gt;step4_current -->
<g id="edge18" class="edge">
<title>step3_opt1&#45;&gt;step4_current</title>
<path fill="none" stroke="#2d9c4a" stroke-width="2.5" stroke-dasharray="5,2" d="M3088.97,-344C3113.88,-344 3140.76,-344 3167.35,-344"/>
<polygon fill="#2d9c4a" stroke="#2d9c4a" stroke-width="2.5" points="3167.52,-347.5 3177.52,-344 3167.52,-340.5 3167.52,-347.5"/>
<text text-anchor="middle" x="3138.6" y="-347" font-family="Times-Roman" font-size="10.00">selected</text>
</g>
<!-- step4_opt1 -->
<g id="node12" class="node">
<title>step4_opt1</title>
<path fill="#d7f5d0" stroke="#2d9c4a" stroke-width="2" d="M4689.87,-489C4689.87,-489 4468.87,-489 4468.87,-489 4462.87,-489 4456.87,-483 4456.87,-477 4456.87,-477 4456.87,-433 4456.87,-433 4456.87,-427 4462.87,-421 4468.87,-421 4468.87,-421 4689.87,-421 4689.87,-421 4695.87,-421 4701.87,-427 4701.87,-433 4701.87,-433 4701.87,-477 4701.87,-477 4701.87,-483 4695.87,-489 4689.87,-489"/>
<text text-anchor="middle" x="4579.37" y="-473.8" font-family="Times-Roman" font-size="14.00">The 5 Biggest Myths</text>
<text text-anchor="middle" x="4579.37" y="-458.8" font-family="Times-Roman" font-size="14.00">Republicans Use to Avoid</text>
<text text-anchor="middle" x="4579.37" y="-443.8" font-family="Times-Roman" font-size="14.00">Raising the Minimum Wage |</text>
<text text-anchor="middle" x="4579.37" y="-428.8" font-family="Times-Roman" font-size="14.00">Opinions | NowThis DPn6T0zT6jc</text>
</g>
<!-- step4_current&#45;&gt;step4_opt1 -->
<g id="edge9" class="edge">
<title>step4_current&#45;&gt;step4_opt1</title>
<path fill="none" stroke="#2d9c4a" stroke-width="2.5" d="M3401.4,-368.94C3441.56,-384.34 3495.97,-402.86 3545.87,-412 3865.24,-470.52 4249.07,-467.79 4446.61,-461.16"/>
<polygon fill="#2d9c4a" stroke="#2d9c4a" stroke-width="2.5" points="4446.87,-464.66 4456.74,-460.81 4446.63,-457.66 4446.87,-464.66"/>
<text text-anchor="middle" x="3524.37" y="-410" font-family="Times-Roman" font-size="10.00">1</text>
</g>
<!-- step4_opt2 -->
<g id="node13" class="node">
<title>step4_opt2</title>
<path fill="#ffffff" stroke="black" d="M5600.87,-402.5C5600.87,-402.5 3557.87,-402.5 3557.87,-402.5 3551.87,-402.5 3545.87,-396.5 3545.87,-390.5 3545.87,-390.5 3545.87,-361.5 3545.87,-361.5 3545.87,-355.5 3551.87,-349.5 3557.87,-349.5 3557.87,-349.5 5600.87,-349.5 5600.87,-349.5 5606.87,-349.5 5612.87,-355.5 5612.87,-361.5 5612.87,-361.5 5612.87,-390.5 5612.87,-390.5 5612.87,-396.5 5606.87,-402.5 5600.87,-402.5"/>
<text text-anchor="middle" x="4579.37" y="-387.3" font-family="Times-Roman" font-size="14.00">Fast Food CEO After Minimum</text>
<text text-anchor="middle" x="4579.37" y="-372.3" font-family="Times-Roman" font-size="14.00">Wage Increase: &quot;&quot;&quot;&quot;&quot;&quot;&quot;&quot;&quot;&quot;&quot;&quot;&quot;&quot;&quot;&quot;&quot;&quot;&quot;&quot;&quot;&quot;&quot;&quot;&quot;&quot;&quot;&quot;&quot;&quot;&quot;&quot;&quot;&quot;&quot;&quot;&quot;&quot;&quot;&quot;&quot;&quot;&quot;&quot;&quot;&quot;&quot;&quot;&quot;&quot;&quot;&quot;&quot;&quot;&quot;&quot;&quot;&quot;&quot;&quot;&quot;&quot;&quot;&quot;&quot;&quot;&quot;&quot;&quot;&quot;&quot;&quot;&quot;&quot;&quot;&quot;&quot;&quot;&quot;&quot;&quot;&quot;&quot;&quot;&quot;&quot;&quot;&quot;&quot;&quot;&quot;&quot;&quot;&quot;&quot;&quot;&quot;&quot;&quot;&quot;&quot;&quot;&quot;&quot;&quot;&quot;&quot;&quot;&quot;&quot;&quot;&quot;&quot;&quot;&quot;&quot;&quot;&quot;&quot;&quot;&quot;&quot;&quot;&quot;&quot;&quot;&quot;&quot;&quot;&quot;&quot;&quot;&quot;&quot;&quot;&quot;&quot;&quot;&quot;&quot;&quot;&quot;&quot;&quot;&quot;&quot;&quot;&quot;&quot;&quot;&quot;&quot;&quot;&quot;&quot;&quot;&quot;&quot;&quot;&quot;&quot;&quot;&quot;&quot;&quot;&quot;&quot;&quot;&quot;&quot;&quot;&quot;&quot;&quot;&quot;&quot;&quot;&quot;&quot;&quot;&quot;&quot;&quot;&quot;&quot;&quot;&quot;&quot;&quot;&quot;&quot;&quot;&quot;&quot;&quot;&quot;&quot;&quot;&quot;&quot;&quot;&quot;&quot;&quot;&quot;&quot;&quot;&quot;&quot;&quot;&quot;&quot;&quot;&quot;&quot;&quot;&quot;&quot;&quot;&quot;&quot;&quot;&quot;&quot;&quot;&quot;&quot;&quot;&quot;&quot;&quot;&quot;&quot;&quot;&quot;&quot;&quot;&quot;&quot;&quot;&quot;&quot;&quot;&quot;&quot;&quot;&quot;&quot;&quot;&quot;&quot;&quot;&quot;&quot;&quot;&quot;I was stunned by the business</text>
<text text-anchor="middle" x="4579.37" y="-357.3" font-family="Times-Roman" font-size="14.00">&quot;&quot;&quot;&quot;&quot;&quot;&quot;&quot;&quot;&quot;&quot;&quot;&quot;&quot;&quot;&quot;&quot;&quot;&quot;&quot;&quot;&quot;&quot;&quot;&quot;&quot;&quot;&quot;&quot;&quot;&quot;&quot;&quot;&quot;&quot;&quot;&quot;&quot;&quot;&quot;&quot;&quot;&quot;&quot;&quot;&quot;&quot;&quot;&quot;&quot;&quot;&quot;&quot;&quot;&quot;&quot;&quot;&quot;&quot;&quot;&quot;&quot;&quot;&quot;&quot;&quot;&quot;&quot;&quot;&quot;&quot;&quot;&quot;&quot;&quot;&quot;&quot;&quot;&quot;&quot;&quot;&quot;&quot;&quot;&quot;&quot;&quot;&quot;&quot;&quot;&quot;&quot;&quot;&quot;&quot;&quot;&quot;&quot;&quot;&quot;&quot;&quot;&quot;&quot;&quot;&quot;&quot;&quot;&quot;&quot;&quot;&quot;&quot;&quot;&quot;&quot;&quot;&quot;&quot;&quot;&quot;&quot;&quot;&quot;&quot;&quot;&quot;&quot;&quot;&quot;&quot;&quot;&quot;&quot;&quot;&quot;&quot;&quot;&quot;&quot;&quot;&quot;&quot;&quot;&quot;&quot;&quot;&quot;&quot;&quot;&quot;&quot;&quot;&quot;&quot;&quot;&quot;&quot;&quot;&quot;&quot;&quot;&quot;&quot;&quot;&quot;&quot;&quot;&quot;&quot;&quot;&quot;&quot;&quot;&quot;&quot;&quot;&quot;&quot;&quot;&quot;&quot;&quot;&quot;&quot;&quot;&quot;&quot;&quot;&quot;&quot;&quot;&quot;&quot;&quot;&quot;&quot;&quot;&quot;&quot;&quot;&quot;&quot;&quot;&quot;&quot;&quot;&quot;&quot;&quot;&quot;&quot;&quot;&quot;&quot;&quot;&quot;&quot;&quot;&quot;&quot;&quot;&quot;&quot;&quot;&quot;&quot;&quot;&quot;&quot;&quot;&quot;&quot;&quot;&quot;&quot;&quot;&quot;&quot;&quot;&quot;&quot;&quot;&quot;&quot;&quot;&quot;&quot;&quot;&quot;&quot;&quot;&quot;&quot;&quot;&quot; M2ucpEeBfQg</text>
</g>
<!-- step4_current&#45;&gt;step4_opt2 -->
<g id="edge10" class="edge">
<title>step4_current&#45;&gt;step4_opt2</title>
<path fill="none" stroke="#888888" d="M3501.06,-348.13C3514.53,-348.48 3528.66,-348.85 3543.38,-349.23"/>
<polygon fill="#888888" stroke="#888888" points="3543.57,-352.73 3553.66,-349.49 3543.75,-345.74 3543.57,-352.73"/>
<text text-anchor="middle" x="3524.37" y="-351" font-family="Times-Roman" font-size="10.00">2</text>
</g>
<!-- step4_opt3 -->
<g id="node14" class="node">
<title>step4_opt3</title>
<path fill="#ffffff" stroke="black" d="M4676.37,-331C4676.37,-331 4482.37,-331 4482.37,-331 4476.37,-331 4470.37,-325 4470.37,-319 4470.37,-319 4470.37,-305 4470.37,-305 4470.37,-299 4476.37,-293 4482.37,-293 4482.37,-293 4676.37,-293 4676.37,-293 4682.37,-293 4688.37,-299 4688.37,-305 4688.37,-305 4688.37,-319 4688.37,-319 4688.37,-325 4682.37,-331 4676.37,-331"/>
<text text-anchor="middle" x="4579.37" y="-315.8" font-family="Times-Roman" font-size="14.00">Milton Friedman on Minimum</text>
<text text-anchor="middle" x="4579.37" y="-300.8" font-family="Times-Roman" font-size="14.00">Wage ca8Z__o52sk</text>
</g>
<!-- step4_current&#45;&gt;step4_opt3 -->
<g id="edge11" class="edge">
<title>step4_current&#45;&gt;step4_opt3</title>
<path fill="none" stroke="#888888" d="M3492.15,-334.31C3501.86,-333.82 3511.5,-333.38 3520.87,-333 3861.72,-319.19 4264.75,-314.36 4460.23,-312.76"/>
<polygon fill="#888888" stroke="#888888" points="4460.26,-316.26 4470.23,-312.67 4460.21,-309.26 4460.26,-316.26"/>
<text text-anchor="middle" x="3524.37" y="-336" font-family="Times-Roman" font-size="10.00">3</text>
</g>
<!-- step4_opt4 -->
<g id="node15" class="node">
<title>step4_opt4</title>
<path fill="#ffffff" stroke="black" d="M4686.87,-274.5C4686.87,-274.5 4471.87,-274.5 4471.87,-274.5 4465.87,-274.5 4459.87,-268.5 4459.87,-262.5 4459.87,-262.5 4459.87,-233.5 4459.87,-233.5 4459.87,-227.5 4465.87,-221.5 4471.87,-221.5 4471.87,-221.5 4686.87,-221.5 4686.87,-221.5 4692.87,-221.5 4698.87,-227.5 4698.87,-233.5 4698.87,-233.5 4698.87,-262.5 4698.87,-262.5 4698.87,-268.5 4692.87,-274.5 4686.87,-274.5"/>
<text text-anchor="middle" x="4579.37" y="-259.3" font-family="Times-Roman" font-size="14.00">Walmart CEO: Federal minimum</text>
<text text-anchor="middle" x="4579.37" y="-244.3" font-family="Times-Roman" font-size="14.00">wage should be raised</text>
<text text-anchor="middle" x="4579.37" y="-229.3" font-family="Times-Roman" font-size="14.00">f_trRT0qb5g</text>
</g>
<!-- step4_current&#45;&gt;step4_opt4 -->
<g id="edge12" class="edge">
<title>step4_current&#45;&gt;step4_opt4</title>
<path fill="none" stroke="#888888" d="M3408.92,-319.51C3448.32,-306.43 3499.27,-291.52 3545.87,-284 3867.85,-232.03 4253.35,-235.72 4449.68,-242.23"/>
<polygon fill="#888888" stroke="#888888" points="4449.64,-245.73 4459.75,-242.57 4449.88,-238.73 4449.64,-245.73"/>
<text text-anchor="middle" x="3524.37" y="-291" font-family="Times-Roman" font-size="10.00">4</text>
</g>
<!-- step5_current -->
<g id="node16" class="node">
<title>step5_current</title>
<ellipse fill="#eef3ff" stroke="black" cx="5864.11" cy="-455" rx="173.48" ry="48.17"/>
<text text-anchor="middle" x="5864.11" y="-473.8" font-family="Times-Roman" font-size="14.00">The 5 Biggest Myths</text>
<text text-anchor="middle" x="5864.11" y="-458.8" font-family="Times-Roman" font-size="14.00">Republicans Use to Avoid</text>
<text text-anchor="middle" x="5864.11" y="-443.8" font-family="Times-Roman" font-size="14.00">Raising the Minimum Wage |</text>
<text text-anchor="middle" x="5864.11" y="-428.8" font-family="Times-Roman" font-size="14.00">Opinions | NowThis DPn6T0zT6jc</text>
</g>
<!-- step4_opt1&#45;&gt;step5_current -->
<g id="edge19" class="edge">
<title>step4_opt1&#45;&gt;step5_current</title>
<path fill="none" stroke="#2d9c4a" stroke-width="2.5" stroke-dasharray="5,2" d="M4701.91,-455C4928.13,-455 5414.86,-455 5680.7,-455"/>
<polygon fill="#2d9c4a" stroke="#2d9c4a" stroke-width="2.5" points="5680.84,-458.5 5690.84,-455 5680.84,-451.5 5680.84,-458.5"/>
<text text-anchor="middle" x="5651.87" y="-458" font-family="Times-Roman" font-size="10.00">selected</text>
</g>
<!-- step5_opt1 -->
<g id="node17" class="node">
<title>step5_opt1</title>
<path fill="#ffffff" stroke="black" d="M7215.85,-574C7215.85,-574 7011.85,-574 7011.85,-574 7005.85,-574 6999.85,-568 6999.85,-562 6999.85,-562 6999.85,-548 6999.85,-548 6999.85,-542 7005.85,-536 7011.85,-536 7011.85,-536 7215.85,-536 7215.85,-536 7221.85,-536 7227.85,-542 7227.85,-548 7227.85,-548 7227.85,-562 7227.85,-562 7227.85,-568 7221.85,-574 7215.85,-574"/>
<text text-anchor="middle" x="7113.85" y="-558.8" font-family="Times-Roman" font-size="14.00">Should We Raise the Minimum</text>
<text text-anchor="middle" x="7113.85" y="-543.8" font-family="Times-Roman" font-size="14.00">Wage? ZI9aDHLptMk</text>
</g>
<!-- step5_current&#45;&gt;step5_opt1 -->
<g id="edge13" class="edge">
<title>step5_current&#45;&gt;step5_opt1</title>
<path fill="none" stroke="#888888" d="M5962.91,-494.51C5999.18,-507.34 6041.06,-520.06 6080.35,-527 6404.54,-584.31 6794.76,-573.82 6989.57,-563.3"/>
<polygon fill="#888888" stroke="#888888" points="6990.05,-566.78 6999.84,-562.74 6989.66,-559.79 6990.05,-566.78"/>
<text text-anchor="middle" x="6058.85" y="-526" font-family="Times-Roman" font-size="10.00">1</text>
</g>
<!-- step5_opt2 -->
<g id="node18" class="node">
<title>step5_opt2</title>
<path fill="#ffffff" stroke="black" d="M7222.85,-517.5C7222.85,-517.5 7004.85,-517.5 7004.85,-517.5 6998.85,-517.5 6992.85,-511.5 6992.85,-505.5 6992.85,-505.5 6992.85,-476.5 6992.85,-476.5 6992.85,-470.5 6998.85,-464.5 7004.85,-464.5 7004.85,-464.5 7222.85,-464.5 7222.85,-464.5 7228.85,-464.5 7234.85,-470.5 7234.85,-476.5 7234.85,-476.5 7234.85,-505.5 7234.85,-505.5 7234.85,-511.5 7228.85,-517.5 7222.85,-517.5"/>
<text text-anchor="middle" x="7113.85" y="-502.3" font-family="Times-Roman" font-size="14.00">Why Raising the Minimum Wage</text>
<text text-anchor="middle" x="7113.85" y="-487.3" font-family="Times-Roman" font-size="14.00">Doesn&#39;t Cause Inflation</text>
<text text-anchor="middle" x="7113.85" y="-472.3" font-family="Times-Roman" font-size="14.00">lUEgvnugQIw</text>
</g>
<!-- step5_current&#45;&gt;step5_opt2 -->
<g id="edge14" class="edge">
<title>step5_current&#45;&gt;step5_opt2</title>
<path fill="none" stroke="#888888" d="M6034.94,-463.22C6041.83,-463.49 6048.66,-463.76 6055.35,-464 6389.31,-476.16 6782.79,-484.68 6982.45,-488.58"/>
<polygon fill="#888888" stroke="#888888" points="6982.62,-492.09 6992.69,-488.78 6982.76,-485.09 6982.62,-492.09"/>
<text text-anchor="middle" x="6058.85" y="-467" font-family="Times-Roman" font-size="10.00">2</text>
</g>
<!-- step5_opt3 -->
<g id="node19" class="node">
<title>step5_opt3</title>
<path fill="#ffffff" stroke="black" d="M7228.85,-446.5C7228.85,-446.5 6998.85,-446.5 6998.85,-446.5 6992.85,-446.5 6986.85,-440.5 6986.85,-434.5 6986.85,-434.5 6986.85,-405.5 6986.85,-405.5 6986.85,-399.5 6992.85,-393.5 6998.85,-393.5 6998.85,-393.5 7228.85,-393.5 7228.85,-393.5 7234.85,-393.5 7240.85,-399.5 7240.85,-405.5 7240.85,-405.5 7240.85,-434.5 7240.85,-434.5 7240.85,-440.5 7234.85,-446.5 7228.85,-446.5"/>
<text text-anchor="middle" x="7113.85" y="-431.3" font-family="Times-Roman" font-size="14.00">SOMEONE GIVE HIM A RAISE: Ben</text>
<text text-anchor="middle" x="7113.85" y="-416.3" font-family="Times-Roman" font-size="14.00">Shapiro kills the minimum wage</text>
<text text-anchor="middle" x="7113.85" y="-401.3" font-family="Times-Roman" font-size="14.00">argument for good 3NFGXfxboNU</text>
</g>
<!-- step5_current&#45;&gt;step5_opt3 -->
<g id="edge15" class="edge">
<title>step5_current&#45;&gt;step5_opt3</title>
<path fill="none" stroke="#888888" d="M6036.64,-450.19C6287.08,-443.16 6747.83,-430.24 6976.59,-423.82"/>
<polygon fill="#888888" stroke="#888888" points="6976.74,-427.32 6986.64,-423.54 6976.54,-420.32 6976.74,-427.32"/>
<text text-anchor="middle" x="6058.85" y="-452" font-family="Times-Roman" font-size="10.00">3</text>
</g>
<!-- step5_opt4 -->
<g id="node20" class="node">
<title>step5_opt4</title>
<path fill="#d7f5d0" stroke="#2d9c4a" stroke-width="2" d="M8135.35,-375.5C8135.35,-375.5 6092.35,-375.5 6092.35,-375.5 6086.35,-375.5 6080.35,-369.5 6080.35,-363.5 6080.35,-363.5 6080.35,-334.5 6080.35,-334.5 6080.35,-328.5 6086.35,-322.5 6092.35,-322.5 6092.35,-322.5 8135.35,-322.5 8135.35,-322.5 8141.35,-322.5 8147.35,-328.5 8147.35,-334.5 8147.35,-334.5 8147.35,-363.5 8147.35,-363.5 8147.35,-369.5 8141.35,-375.5 8135.35,-375.5"/>
<text text-anchor="middle" x="7113.85" y="-360.3" font-family="Times-Roman" font-size="14.00">Fast Food CEO After Minimum</text>
<text text-anchor="middle" x="7113.85" y="-345.3" font-family="Times-Roman" font-size="14.00">Wage Increase: &quot;&quot;&quot;&quot;&quot;&quot;&quot;&quot;&quot;&quot;&quot;&quot;&quot;&quot;&quot;&quot;&quot;&quot;&quot;&quot;&quot;&quot;&quot;&quot;&quot;&quot;&quot;&quot;&quot;&quot;&quot;&quot;&quot;&quot;&quot;&quot;&quot;&quot;&quot;&quot;&quot;&quot;&quot;&quot;&quot;&quot;&quot;&quot;&quot;&quot;&quot;&quot;&quot;&quot;&quot;&quot;&quot;&quot;&quot;&quot;&quot;&quot;&quot;&quot;&quot;&quot;&quot;&quot;&quot;&quot;&quot;&quot;&quot;&quot;&quot;&quot;&quot;&quot;&quot;&quot;&quot;&quot;&quot;&quot;&quot;&quot;&quot;&quot;&quot;&quot;&quot;&quot;&quot;&quot;&quot;&quot;&quot;&quot;&quot;&quot;&quot;&quot;&quot;&quot;&quot;&quot;&quot;&quot;&quot;&quot;&quot;&quot;&quot;&quot;&quot;&quot;&quot;&quot;&quot;&quot;&quot;&quot;&quot;&quot;&quot;&quot;&quot;&quot;&quot;&quot;&quot;&quot;&quot;&quot;&quot;&quot;&quot;&quot;&quot;&quot;&quot;&quot;&quot;&quot;&quot;&quot;&quot;&quot;&quot;&quot;&quot;&quot;&quot;&quot;&quot;&quot;&quot;&quot;&quot;&quot;&quot;&quot;&quot;&quot;&quot;&quot;&quot;&quot;&quot;&quot;&quot;&quot;&quot;&quot;&quot;&quot;&quot;&quot;&quot;&quot;&quot;&quot;&quot;&quot;&quot;&quot;&quot;&quot;&quot;&quot;&quot;&quot;&quot;&quot;&quot;&quot;&quot;&quot;&quot;&quot;&quot;&quot;&quot;&quot;&quot;&quot;&quot;&quot;&quot;&quot;&quot;&quot;&quot;&quot;&quot;&quot;&quot;&quot;&quot;&quot;&quot;&quot;&quot;&quot;&quot;&quot;&quot;&quot;&quot;&quot;&quot;&quot;&quot;&quot;&quot;&quot;&quot;&quot;&quot;&quot;&quot;&quot;&quot;&quot;&quot;&quot;&quot;&quot;&quot;&quot;&quot;&quot;&quot;&quot;&quot;&quot;I was stunned by the business</text>
<text text-anchor="middle" x="7113.85" y="-330.3" font-family="Times-Roman" font-size="14.00">&quot;&quot;&quot;&quot;&quot;&quot;&quot;&quot;&quot;&quot;&quot;&quot;&quot;&quot;&quot;&quot;&quot;&quot;&quot;&quot;&quot;&quot;&quot;&quot;&quot;&quot;&quot;&quot;&quot;&quot;&quot;&quot;&quot;&quot;&quot;&quot;&quot;&quot;&quot;&quot;&quot;&quot;&quot;&quot;&quot;&quot;&quot;&quot;&quot;&quot;&quot;&quot;&quot;&quot;&quot;&quot;&quot;&quot;&quot;&quot;&quot;&quot;&quot;&quot;&quot;&quot;&quot;&quot;&quot;&quot;&quot;&quot;&quot;&quot;&quot;&quot;&quot;&quot;&quot;&quot;&quot;&quot;&quot;&quot;&quot;&quot;&quot;&quot;&quot;&quot;&quot;&quot;&quot;&quot;&quot;&quot;&quot;&quot;&quot;&quot;&quot;&quot;&quot;&quot;&quot;&quot;&quot;&quot;&quot;&quot;&quot;&quot;&quot;&quot;&quot;&quot;&quot;&quot;&quot;&quot;&quot;&quot;&quot;&quot;&quot;&quot;&quot;&quot;&quot;&quot;&quot;&quot;&quot;&quot;&quot;&quot;&quot;&quot;&quot;&quot;&quot;&quot;&quot;&quot;&quot;&quot;&quot;&quot;&quot;&quot;&quot;&quot;&quot;&quot;&quot;&quot;&quot;&quot;&quot;&quot;&quot;&quot;&quot;&quot;&quot;&quot;&quot;&quot;&quot;&quot;&quot;&quot;&quot;&quot;&quot;&quot;&quot;&quot;&quot;&quot;&quot;&quot;&quot;&quot;&quot;&quot;&quot;&quot;&quot;&quot;&quot;&quot;&quot;&quot;&quot;&quot;&quot;&quot;&quot;&quot;&quot;&quot;&quot;&quot;&quot;&quot;&quot;&quot;&quot;&quot;&quot;&quot;&quot;&quot;&quot;&quot;&quot;&quot;&quot;&quot;&quot;&quot;&quot;&quot;&quot;&quot;&quot;&quot;&quot;&quot;&quot;&quot;&quot;&quot;&quot;&quot;&quot;&quot;&quot;&quot;&quot;&quot;&quot;&quot;&quot;&quot;&quot;&quot;&quot;&quot;&quot;&quot;&quot;&quot;&quot;&quot; M2ucpEeBfQg</text>
</g>
<!-- step5_current&#45;&gt;step5_opt4 -->
<g id="edge16" class="edge">
<title>step5_current&#45;&gt;step5_opt4</title>
<path fill="none" stroke="#2d9c4a" stroke-width="2.5" d="M5965.45,-415.94C6001.17,-403.76 6042.04,-391.76 6080.35,-385 6096.16,-382.21 6112.14,-379.57 6128.24,-377.07"/>
<polygon fill="#2d9c4a" stroke="#2d9c4a" stroke-width="2.5" points="6128.92,-380.51 6138.28,-375.54 6127.86,-373.59 6128.92,-380.51"/>
<text text-anchor="middle" x="6058.85" y="-392" font-family="Times-Roman" font-size="10.00">4</text>
</g>
</g>
</svg>
