<?xml version="1.0" encoding="UTF-8" standalone="no"?>
<!DOCTYPE svg PUBLIC "-//W3C//DTD SVG 1.1//EN"
 "http://www.w3.org/Graphics/SVG/1.1/DTD/svg11.dtd">
<!-- Generated by graphviz version 2.44.0 (0)
 -->
<!-- Pages: 1 -->
<svg width="1225pt" height="358pt"
 viewBox="0.00 0.00 1224.76 358.00" xmlns="http://www.w3.org/2000/svg" xmlns:xlink="http://www.w3.org/1999/xlink">
<g id="graph0" class="graph" transform="scale(1 1) rotate(0) translate(4 354)">
<polygon fill="white" stroke="transparent" points="-4,4 -4,-354 1220.76,-354 1220.76,4 -4,4"/>
<!-- step2_current -->
<g id="node1" class="node">
<title>step2_current</title>
<ellipse fill="#eef3ff" stroke="black" cx="149.2" cy="-189" rx="149.4" ry="37.45"/>
<text text-anchor="middle" x="149.2" y="-200.3" font-family="Times-Roman" font-size="14.00">Do We Need Stricter Gun</text>
<text text-anchor="middle" x="149.2" y="-185.3" font-family="Times-Roman" font-size="14.00">Control? &#45; The People Speak</text>
<text text-anchor="middle" x="149.2" y="-170.3" font-family="Times-Roman" font-size="14.00">UnExjakUlQg</text>
</g>
<!-- step2_opt1 -->
<g id="node2" class="node">
<title>step2_opt1</title>
<path fill="#ffffff" stroke="black" d="M569.4,-350C569.4,-350 353.4,-350 353.4,-350 347.4,-350 341.4,-344 341.4,-338 341.4,-338 341.4,-294 341.4,-294 341.4,-288 347.4,-282 353.4,-282 353.4,-282 569.4,-282 569.4,-282 575.4,-282 581.4,-288 581.4,-294 581.4,-294 581.4,-338 581.4,-338 581.4,-344 575.4,-350 569.4,-350"/>
<text text-anchor="middle" x="461.4" y="-334.8" font-family="Times-Roman" font-size="14.00">Piers Morgan Argues With Pro&#45;</text>
<text text-anchor="middle" x="461.4" y="-319.8" font-family="Times-Roman" font-size="14.00">Gun Campaigner About Orlando</text>
<text text-anchor="middle" x="461.4" y="-304.8" font-family="Times-Roman" font-size="14.00">Shooting | Good Morning</text>
<text text-anchor="middle" x="461.4" y="-289.8" font-family="Times-Roman" font-size="14.00">Britain dQzkkvrNLH8</text>
</g>
<!-- step2_current&#45;&gt;step2_opt1 -->
<g id="edge1" class="edge">
<title>step2_current&#45;&gt;step2_opt1</title>
<path fill="none" stroke="#888888" d="M221.9,-221.86C257.58,-237.87 301.51,-257.05 341.4,-273 345.82,-274.77 350.34,-276.54 354.92,-278.31"/>
<polygon fill="#888888" stroke="#888888" points="353.8,-281.63 364.39,-281.94 356.3,-275.09 353.8,-281.63"/>
<text text-anchor="middle" x="319.9" y="-267" font-family="Times-Roman" font-size="10.00">1</text>
</g>
<!-- step2_opt2 -->
<g id="node3" class="node">
<title>step2_opt2</title>
<path fill="#ffffff" stroke="black" d="M564.4,-264C564.4,-264 358.4,-264 358.4,-264 352.4,-264 346.4,-258 346.4,-252 346.4,-252 346.4,-238 346.4,-238 346.4,-232 352.4,-226 358.4,-226 358.4,-226 564.4,-226 564.4,-226 570.4,-226 576.4,-232 576.4,-238 576.4,-238 576.4,-252 576.4,-252 576.4,-258 570.4,-264 564.4,-264"/>
<text text-anchor="middle" x="461.4" y="-248.8" font-family="Times-Roman" font-size="14.00">Why America Will NEVER Have</text>
<text text-anchor="middle" x="461.4" y="-233.8" font-family="Times-Roman" font-size="14.00">Real Gun Control Y&#45;DGXIZfe8Y</text>
</g>
<!-- step2_current&#45;&gt;step2_opt2 -->
<g id="edge2" class="edge">
<title>step2_current&#45;&gt;step2_opt2</title>
<path fill="none" stroke="#888888" d="M271.02,-210.81C295.39,-215.21 320.95,-219.83 345.12,-224.19"/>
<polygon fill="#888888" stroke="#888888" points="344.57,-227.65 355.03,-225.98 345.81,-220.76 344.57,-227.65"/>
<text text-anchor="middle" x="319.9" y="-222" font-family="Times-Roman" font-size="10.00">2</text>
</g>
<!-- step2_opt3 -->
<g id="node4" class="node">
<title>step2_opt3</title>
<path fill="#ffffff" stroke="black" d="M560.4,-208C560.4,-208 362.4,-208 362.4,-208 356.4,-208 350.4,-202 350.4,-196 350.4,-196 350.4,-182 350.4,-182 350.4,-176 356.4,-170 362.4,-170 362.4,-170 560.4,-170 560.4,-170 566.4,-170 572.4,-176 572.4,-182 572.4,-182 572.4,-196 572.4,-196 572.4,-202 566.4,-208 560.4,-208"/>
<text text-anchor="middle" x="461.4" y="-192.8" font-family="Times-Roman" font-size="14.00">Gun Control and The Violence</text>
<text text-anchor="middle" x="461.4" y="-177.8" font-family="Times-Roman" font-size="14.00">in Chicago RGYn22iMLyY</text>
</g>
<!-- step2_current&#45;&gt;step2_opt3 -->
<g id="edge3" class="edge">
<title>step2_current&#45;&gt;step2_opt3</title>
<path fill="none" stroke="#888888" d="M298.49,-189C312.39,-189 326.36,-189 339.96,-189"/>
<polygon fill="#888888" stroke="#888888" points="340.28,-192.5 350.28,-189 340.28,-185.5 340.28,-192.5"/>
<text text-anchor="middle" x="319.9" y="-192" font-family="Times-Roman" font-size="10.00">3</text>
</g>
<!-- step2_opt4 -->
<g id="node5" class="node">
<title>step2_opt4</title>
<path fill="#ffffff" stroke="black" d="M565.4,-152C565.4,-152 357.4,-152 357.4,-152 351.4,-152 345.4,-146 345.4,-140 345.4,-140 345.4,-126 345.4,-126 345.4,-120 351.4,-114 357.4,-114 357.4,-114 565.4,-114 565.4,-114 571.4,-114 577.4,-120 577.4,-126 577.4,-126 577.4,-140 577.4,-140 577.4,-146 571.4,-152 565.4,-152"/>
<text text-anchor="middle" x="461.4" y="-136.8" font-family="Times-Roman" font-size="14.00">Gun Banners Say the Darndest</text>
<text text-anchor="middle" x="461.4" y="-121.8" font-family="Times-Roman" font-size="14.00">Things oDOyqvE4o8I</text>
</g>
<!-- step2_current&#45;&gt;step2_opt4 -->
<g id="edge4" class="edge">
<title>step2_current&#45;&gt;step2_opt4</title>
<path fill="none" stroke="#888888" d="M271.02,-167.19C295.39,-162.79 320.95,-158.17 345.12,-153.81"/>
<polygon fill="#888888" stroke="#888888" points="345.81,-157.24 355.03,-152.02 344.57,-150.35 345.81,-157.24"/>
<text text-anchor="middle" x="319.9" y="-161" font-family="Times-Roman" font-size="10.00">4</text>
</g>
<!-- step2_opt5 -->
<g id="node6" class="node">
<title>step2_opt5</title>
<path fill="#d7f5d0" stroke="#2d9c4a" stroke-width="2" d="M546.4,-95.5C546.4,-95.5 376.4,-95.5 376.4,-95.5 370.4,-95.5 364.4,-89.5 364.4,-83.5 364.4,-83.5 364.4,-54.5 364.4,-54.5 364.4,-48.5 370.4,-42.5 376.4,-42.5 376.4,-42.5 546.4,-42.5 546.4,-42.5 552.4,-42.5 558.4,-48.5 558.4,-54.5 558.4,-54.5 558.4,-83.5 558.4,-83.5 558.4,-89.5 552.4,-95.5 546.4,-95.5"/>
<text text-anchor="middle" x="461.4" y="-80.3" font-family="Times-Roman" font-size="14.00">How to Create a Gun&#45;Free</text>
<text text-anchor="middle" x="461.4" y="-65.3" font-family="Times-Roman" font-size="14.00">America in 5 Easy Steps</text>
<text text-anchor="middle" x="461.4" y="-50.3" font-family="Times-Roman" font-size="14.00">bnoFKskvSq4</text>
</g>
<!-- step2_current&#45;&gt;step2_opt5 -->
<g id="edge5" class="edge">
<title>step2_current&#45;&gt;step2_opt5</title>
<path fill="none" stroke="#2d9c4a" stroke-width="2.5" d="M220.2,-155.83C256.02,-139.48 300.59,-120.08 341.4,-105 347.18,-102.86 353.15,-100.76 359.2,-98.7"/>
<polygon fill="#2d9c4a" stroke="#2d9c4a" stroke-width="2.5" points="360.37,-102 368.75,-95.51 358.15,-95.36 360.37,-102"/>
<text text-anchor="middle" x="319.9" y="-116" font-family="Times-Roman" font-size="10.00">5</text>
</g>
<!-- step3_current -->
<g id="node7" class="node">
<title>step3_current</title>
<ellipse fill="#eef3ff" stroke="black" cx="796.58" cy="-69" rx="137.36" ry="37.45"/>
<text text-anchor="middle" x="796.58" y="-80.3" font-family="Times-Roman" font-size="14.00">How to Create a Gun&#45;Free</text>
<text text-anchor="middle" x="796.58" y="-65.3" font-family="Times-Roman" font-size="14.00">America in 5 Easy Steps</text>
<text text-anchor="middle" x="796.58" y="-50.3" font-family="Times-Roman" font-size="14.00">bnoFKskvSq4</text>
</g>
<!-- step2_opt5&#45;&gt;step3_current -->
<g id="edge8" class="edge">
<title>step2_opt5&#45;&gt;step3_current</title>
<path fill="none" stroke="#2d9c4a" stroke-width="2.5" stroke-dasharray="5,2" d="M558.77,-69C586.91,-69 618.33,-69 648.85,-69"/>
<polygon fill="#2d9c4a" stroke="#2d9c4a" stroke-width="2.5" points="649.16,-72.5 659.16,-69 649.16,-65.5 649.16,-72.5"/>
<text text-anchor="middle" x="620.4" y="-72" font-family="Times-Roman" font-size="10.00">selected</text>
</g>
<!-- step3_opt1 -->
<g id="node8" class="node">
<title>step3_opt1</title>
<path fill="#ffffff" stroke="black" d="M1191.76,-124C1191.76,-124 1001.76,-124 1001.76,-124 995.76,-124 989.76,-118 989.76,-112 989.76,-112 989.76,-98 989.76,-98 989.76,-92 995.76,-86 1001.76,-86 1001.76,-86 1191.76,-86 1191.76,-86 1197.76,-86 1203.76,-92 1203.76,-98 1203.76,-98 1203.76,-112 1203.76,-112 1203.76,-118 1197.76,-124 1191.76,-124"/>
<text text-anchor="middle" x="1096.76" y="-108.8" font-family="Times-Roman" font-size="14.00">Democrats Need to Listen to</text>
<text text-anchor="middle" x="1096.76" y="-93.8" font-family="Times-Roman" font-size="14.00">Gun Owners PnpltPDEa3Y</text>
</g>
<!-- step3_current&#45;&gt;step3_opt1 -->
<g id="edge6" class="edge">
<title>step3_current&#45;&gt;step3_opt1</title>
<path fill="none" stroke="#888888" d="M922.3,-84.06C941.24,-86.35 960.72,-88.7 979.47,-90.96"/>
<polygon fill="#888888" stroke="#888888" points="979.15,-94.45 989.5,-92.17 979.99,-87.5 979.15,-94.45"/>
<text text-anchor="middle" x="955.26" y="-91" font-family="Times-Roman" font-size="10.00">1</text>
</g>
<!-- step3_opt2 -->
<g id="node9" class="node">
<title>step3_opt2</title>
<path fill="#d7f5d0" stroke="#2d9c4a" stroke-width="2" d="M1204.76,-68C1204.76,-68 988.76,-68 988.76,-68 982.76,-68 976.76,-62 976.76,-56 976.76,-56 976.76,-12 976.76,-12 976.76,-6 982.76,0 988.76,0 988.76,0 1204.76,0 1204.76,0 1210.76,0 1216.76,-6 1216.76,-12 1216.76,-12 1216.76,-56 1216.76,-56 1216.76,-62 1210.76,-68 1204.76,-68"/>
<text text-anchor="middle" x="1096.76" y="-52.8" font-family="Times-Roman" font-size="14.00">Piers Morgan Argues With Pro&#45;</text>
<text text-anchor="middle" x="1096.76" y="-37.8" font-family="Times-Roman" font-size="14.00">Gun Campaigner About Orlando</text>
<text text-anchor="middle" x="1096.76" y="-22.8" font-family="Times-Roman" font-size="14.00">Shooting | Good Morning</text>
<text text-anchor="middle" x="1096.76" y="-7.8" font-family="Times-Roman" font-size="14.00">Britain dQzkkvrNLH8</text>
</g>
<!-- step3_current&#45;&gt;step3_opt2 -->
<g id="edge7" class="edge">
<title>step3_current&#45;&gt;step3_opt2</title>
<path fill="none" stroke="#2d9c4a" stroke-width="2.5" d="M923.17,-54.26C937.38,-52.59 951.89,-50.89 966.16,-49.21"/>
<polygon fill="#2d9c4a" stroke="#2d9c4a" stroke-width="2.5" points="966.97,-52.64 976.5,-48 966.16,-45.69 966.97,-52.64"/>
<text text-anchor="middle" x="955.26" y="-54" font-family="Times-Roman" font-size="10.00">2</text>
</g>
</g>
</svg>
