<?xml version="1.0" encoding="UTF-8" standalone="no"?>
<!DOCTYPE svg PUBLIC "-//W3C//DTD SVG 1.1//EN"
 "http://www.w3.org/Graphics/SVG/1.1/DTD/svg11.dtd">
<!-- Generated by graphviz version 2.44.0 (0)
 -->
<!-- Pages: 1 -->
<svg width="3624pt" height="555pt"
 viewBox="0.00 0.00 3623.61 555.00" xmlns="http://www.w3.org/2000/svg" xmlns:xlink="http://www.w3.org/1999/xlink">
<g id="graph0" class="graph" transform="scale(1 1) rotate(0) translate(4 551)">
<polygon fill="white" stroke="transparent" points="-4,4 -4,-551 3619.61,-551 3619.61,4 -4,4"/>
<!-- opinion_initial -->
<g id="node1" class="node">
<title>opinion_initial</title>
<polygon fill="#fbeaea" stroke="#bf616a" stroke-width="2" points="228,-163 0,-163 0,-127 228,-127 228,-163"/>
<text text-anchor="middle" x="114" y="-141.3" font-family="Helvetica" font-size="14.00">Initial Minimum wage support: 0.05</text>
</g>
<!-- step1_current -->
<g id="node3" class="node">
<title>step1_current</title>
<ellipse fill="#eef3ff" stroke="black" cx="414.2" cy="-145" rx="149.4" ry="26.74"/>
<text text-anchor="middle" x="414.2" y="-148.8" font-family="Times-Roman" font-size="14.00">Raise The Minimum Wage &#45;&#45;</text>
<text text-anchor="middle" x="414.2" y="-133.8" font-family="Times-Roman" font-size="14.00">Robert Reich &amp; MoveOn.org</text>
</g>
<!-- opinion_initial&#45;&gt;step1_current -->
<g id="edge20" class="edge">
<title>opinion_initial&#45;&gt;step1_current</title>
<path fill="none" stroke="#bf616a" stroke-width="2.5" d="M228.16,-145C236.9,-145 245.81,-145 254.77,-145"/>
<polygon fill="#bf616a" stroke="#bf616a" stroke-width="2.5" points="254.9,-148.5 264.9,-145 254.9,-141.5 254.9,-148.5"/>
</g>
<!-- opinion_final -->
<g id="node2" class="node">
<title>opinion_final</title>
<polygon fill="#fbeaea" stroke="#bf616a" stroke-width="2" points="3615.61,-355 3349.61,-355 3349.61,-319 3615.61,-319 3615.61,-355"/>
<text text-anchor="middle" x="3482.61" y="-333.3" font-family="Helvetica" font-size="14.00">Final Minimum wage support: 0.2 (+0.15)</text>
</g>
<!-- step1_opt1 -->
<g id="node4" class="node">
<title>step1_opt1</title>
<path fill="#d7f5d0" stroke="#2d9c4a" stroke-width="2" d="M829.9,-252C829.9,-252 628.9,-252 628.9,-252 622.9,-252 616.9,-246 616.9,-240 616.9,-240 616.9,-226 616.9,-226 616.9,-220 622.9,-214 628.9,-214 628.9,-214 829.9,-214 829.9,-214 835.9,-214 841.9,-220 841.9,-226 841.9,-226 841.9,-240 841.9,-240 841.9,-246 835.9,-252 829.9,-252"/>
<text text-anchor="middle" x="729.4" y="-236.8" font-family="Times-Roman" font-size="14.00">Stossel: Minimum Wage Hurts</text>
<text text-anchor="middle" x="729.4" y="-221.8" font-family="Times-Roman" font-size="14.00">Beginners</text>
</g>
<!-- step1_current&#45;&gt;step1_opt1 -->
<g id="edge1" class="edge">
<title>step1_current&#45;&gt;step1_opt1</title>
<path fill="none" stroke="#2d9c4a" stroke-width="2.5" d="M486.08,-168.7C521.95,-180.32 566.27,-194.12 606.4,-205 614.63,-207.23 623.2,-209.44 631.82,-211.57"/>
<polygon fill="#2d9c4a" stroke="#2d9c4a" stroke-width="2.5" points="631,-214.98 641.55,-213.95 632.67,-208.18 631,-214.98"/>
<text text-anchor="middle" x="584.9" y="-203" font-family="Times-Roman" font-size="10.00">1</text>
</g>
<!-- step1_opt2 -->
<g id="node5" class="node">
<title>step1_opt2</title>
<path fill="#ffffff" stroke="black" d="M840.4,-196C840.4,-196 618.4,-196 618.4,-196 612.4,-196 606.4,-190 606.4,-184 606.4,-184 606.4,-170 606.4,-170 606.4,-164 612.4,-158 618.4,-158 618.4,-158 840.4,-158 840.4,-158 846.4,-158 852.4,-164 852.4,-170 852.4,-170 852.4,-184 852.4,-184 852.4,-190 846.4,-196 840.4,-196"/>
<text text-anchor="middle" x="729.4" y="-180.8" font-family="Times-Roman" font-size="14.00">Caller: Minimum Wage Should be</text>
<text text-anchor="middle" x="729.4" y="-165.8" font-family="Times-Roman" font-size="14.00">set by Supply &amp; Demand</text>
</g>
<!-- step1_current&#45;&gt;step1_opt2 -->
<g id="edge2" class="edge">
<title>step1_current&#45;&gt;step1_opt2</title>
<path fill="none" stroke="#888888" d="M544.4,-158.2C561.51,-159.95 579.08,-161.74 596.24,-163.5"/>
<polygon fill="#888888" stroke="#888888" points="595.99,-166.99 606.29,-164.52 596.7,-160.03 595.99,-166.99"/>
<text text-anchor="middle" x="584.9" y="-166" font-family="Times-Roman" font-size="10.00">2</text>
</g>
<!-- step1_opt3 -->
<g id="node6" class="node">
<title>step1_opt3</title>
<path fill="#ffffff" stroke="black" d="M832.9,-139.5C832.9,-139.5 625.9,-139.5 625.9,-139.5 619.9,-139.5 613.9,-133.5 613.9,-127.5 613.9,-127.5 613.9,-98.5 613.9,-98.5 613.9,-92.5 619.9,-86.5 625.9,-86.5 625.9,-86.5 832.9,-86.5 832.9,-86.5 838.9,-86.5 844.9,-92.5 844.9,-98.5 844.9,-98.5 844.9,-127.5 844.9,-127.5 844.9,-133.5 838.9,-139.5 832.9,-139.5"/>
<text text-anchor="middle" x="729.4" y="-124.3" font-family="Times-Roman" font-size="14.00">Fast Food CEO After Minimum</text>
<text text-anchor="middle" x="729.4" y="-109.3" font-family="Times-Roman" font-size="14.00">Wage Increase: &quot;I was stunned</text>
<text text-anchor="middle" x="729.4" y="-94.3" font-family="Times-Roman" font-size="14.00">by the business&quot;</text>
</g>
<!-- step1_current&#45;&gt;step1_opt3 -->
<g id="edge3" class="edge">
<title>step1_current&#45;&gt;step1_opt3</title>
<path fill="none" stroke="#888888" d="M544.4,-131.8C563.91,-129.81 584.01,-127.75 603.44,-125.77"/>
<polygon fill="#888888" stroke="#888888" points="603.93,-129.24 613.53,-124.74 603.22,-122.27 603.93,-129.24"/>
<text text-anchor="middle" x="584.9" y="-131" font-family="Times-Roman" font-size="10.00">3</text>
</g>
<!-- step1_opt4 -->
<g id="node7" class="node">
<title>step1_opt4</title>
<path fill="#ffffff" stroke="black" d="M824.9,-68C824.9,-68 633.9,-68 633.9,-68 627.9,-68 621.9,-62 621.9,-56 621.9,-56 621.9,-12 621.9,-12 621.9,-6 627.9,0 633.9,0 633.9,0 824.9,0 824.9,0 830.9,0 836.9,-6 836.9,-12 836.9,-12 836.9,-56 836.9,-56 836.9,-62 830.9,-68 824.9,-68"/>
<text text-anchor="middle" x="729.4" y="-52.8" font-family="Times-Roman" font-size="14.00">The 5 Biggest Myths</text>
<text text-anchor="middle" x="729.4" y="-37.8" font-family="Times-Roman" font-size="14.00">Republicans Use to Avoid</text>
<text text-anchor="middle" x="729.4" y="-22.8" font-family="Times-Roman" font-size="14.00">Raising the Minimum Wage |</text>
<text text-anchor="middle" x="729.4" y="-7.8" font-family="Times-Roman" font-size="14.00">Opinions | NowThis</text>
</g>
<!-- step1_current&#45;&gt;step1_opt4 -->
<g id="edge4" class="edge">
<title>step1_current&#45;&gt;step1_opt4</title>
<path fill="none" stroke="#888888" d="M482.43,-121.04C519.07,-107.99 565.22,-91.58 606.4,-77 611.56,-75.17 616.84,-73.3 622.18,-71.42"/>
<polygon fill="#888888" stroke="#888888" points="623.56,-74.64 631.83,-68.01 621.23,-68.04 623.56,-74.64"/>
<text text-anchor="middle" x="584.9" y="-88" font-family="Times-Roman" font-size="10.00">4</text>
</g>
<!-- step2_current -->
<g id="node8" class="node">
<title>step2_current</title>
<ellipse fill="#eef3ff" stroke="black" cx="1089.5" cy="-233" rx="159.2" ry="26.74"/>
<text text-anchor="middle" x="1089.5" y="-236.8" font-family="Times-Roman" font-size="14.00">Stossel: Minimum Wage Hurts</text>
<text text-anchor="middle" x="1089.5" y="-221.8" font-family="Times-Roman" font-size="14.00">Beginners</text>
</g>
<!-- step1_opt1&#45;&gt;step2_current -->
<g id="edge17" class="edge">
<title>step1_opt1&#45;&gt;step2_current</title>
<path fill="none" stroke="#2d9c4a" stroke-width="2.5" stroke-dasharray="5,2" d="M842.23,-233C866.98,-233 893.73,-233 920.17,-233"/>
<polygon fill="#2d9c4a" stroke="#2d9c4a" stroke-width="2.5" points="920.28,-236.5 930.28,-233 920.28,-229.5 920.28,-236.5"/>
<text text-anchor="middle" x="891.4" y="-236" font-family="Times-Roman" font-size="10.00">selected</text>
</g>
<!-- step2_opt1 -->
<g id="node9" class="node">
<title>step2_opt1</title>
<path fill="#d7f5d0" stroke="#2d9c4a" stroke-width="2" d="M1520.6,-348C1520.6,-348 1314.6,-348 1314.6,-348 1308.6,-348 1302.6,-342 1302.6,-336 1302.6,-336 1302.6,-322 1302.6,-322 1302.6,-316 1308.6,-310 1314.6,-310 1314.6,-310 1520.6,-310 1520.6,-310 1526.6,-310 1532.6,-316 1532.6,-322 1532.6,-322 1532.6,-336 1532.6,-336 1532.6,-342 1526.6,-348 1520.6,-348"/>
<text text-anchor="middle" x="1417.6" y="-332.8" font-family="Times-Roman" font-size="14.00">What the US gets wrong about</text>
<text text-anchor="middle" x="1417.6" y="-317.8" font-family="Times-Roman" font-size="14.00">minimum wage</text>
</g>
<!-- step2_current&#45;&gt;step2_opt1 -->
<g id="edge5" class="edge">
<title>step2_current&#45;&gt;step2_opt1</title>
<path fill="none" stroke="#2d9c4a" stroke-width="2.5" d="M1156.98,-257.45C1195.9,-271.27 1246.17,-288.27 1291.6,-301 1299.6,-303.24 1307.93,-305.43 1316.32,-307.52"/>
<polygon fill="#2d9c4a" stroke="#2d9c4a" stroke-width="2.5" points="1315.64,-310.96 1326.19,-309.94 1317.31,-304.16 1315.64,-310.96"/>
<text text-anchor="middle" x="1270.1" y="-297" font-family="Times-Roman" font-size="10.00">1</text>
</g>
<!-- step2_opt2 -->
<g id="node10" class="node">
<title>step2_opt2</title>
<path fill="#ffffff" stroke="black" d="M1531.6,-291.5C1531.6,-291.5 1303.6,-291.5 1303.6,-291.5 1297.6,-291.5 1291.6,-285.5 1291.6,-279.5 1291.6,-279.5 1291.6,-250.5 1291.6,-250.5 1291.6,-244.5 1297.6,-238.5 1303.6,-238.5 1303.6,-238.5 1531.6,-238.5 1531.6,-238.5 1537.6,-238.5 1543.6,-244.5 1543.6,-250.5 1543.6,-250.5 1543.6,-279.5 1543.6,-279.5 1543.6,-285.5 1537.6,-291.5 1531.6,-291.5"/>
<text text-anchor="middle" x="1417.6" y="-276.3" font-family="Times-Roman" font-size="14.00">What They DONT TELL YOU About</text>
<text text-anchor="middle" x="1417.6" y="-261.3" font-family="Times-Roman" font-size="14.00">Minimum Wage... | Thomas</text>
<text text-anchor="middle" x="1417.6" y="-246.3" font-family="Times-Roman" font-size="14.00">Sowell</text>
</g>
<!-- step2_current&#45;&gt;step2_opt2 -->
<g id="edge6" class="edge">
<title>step2_current&#45;&gt;step2_opt2</title>
<path fill="none" stroke="#888888" d="M1227.38,-246.43C1245.15,-248.18 1263.35,-249.96 1281.11,-251.7"/>
<polygon fill="#888888" stroke="#888888" points="1281.21,-255.23 1291.5,-252.72 1281.89,-248.26 1281.21,-255.23"/>
<text text-anchor="middle" x="1270.1" y="-254" font-family="Times-Roman" font-size="10.00">2</text>
</g>
<!-- step2_opt3 -->
<g id="node11" class="node">
<title>step2_opt3</title>
<path fill="#ffffff" stroke="black" d="M1514.6,-220C1514.6,-220 1320.6,-220 1320.6,-220 1314.6,-220 1308.6,-214 1308.6,-208 1308.6,-208 1308.6,-194 1308.6,-194 1308.6,-188 1314.6,-182 1320.6,-182 1320.6,-182 1514.6,-182 1514.6,-182 1520.6,-182 1526.6,-188 1526.6,-194 1526.6,-194 1526.6,-208 1526.6,-208 1526.6,-214 1520.6,-220 1514.6,-220"/>
<text text-anchor="middle" x="1417.6" y="-204.8" font-family="Times-Roman" font-size="14.00">Here’s the Truth About a $15</text>
<text text-anchor="middle" x="1417.6" y="-189.8" font-family="Times-Roman" font-size="14.00">Minimum Wage</text>
</g>
<!-- step2_current&#45;&gt;step2_opt3 -->
<g id="edge7" class="edge">
<title>step2_current&#45;&gt;step2_opt3</title>
<path fill="none" stroke="#888888" d="M1227.38,-219.57C1250.99,-217.25 1275.35,-214.86 1298.41,-212.6"/>
<polygon fill="#888888" stroke="#888888" points="1298.95,-216.06 1308.56,-211.6 1298.26,-209.1 1298.95,-216.06"/>
<text text-anchor="middle" x="1270.1" y="-219" font-family="Times-Roman" font-size="10.00">3</text>
</g>
<!-- step2_opt4 -->
<g id="node12" class="node">
<title>step2_opt4</title>
<path fill="#ffffff" stroke="black" d="M1508.6,-164C1508.6,-164 1326.6,-164 1326.6,-164 1320.6,-164 1314.6,-158 1314.6,-152 1314.6,-152 1314.6,-138 1314.6,-138 1314.6,-132 1320.6,-126 1326.6,-126 1326.6,-126 1508.6,-126 1508.6,-126 1514.6,-126 1520.6,-132 1520.6,-138 1520.6,-138 1520.6,-152 1520.6,-152 1520.6,-158 1514.6,-164 1508.6,-164"/>
<text text-anchor="middle" x="1417.6" y="-148.8" font-family="Times-Roman" font-size="14.00">Gutfeld: Seattle&#39;s minimum</text>
<text text-anchor="middle" x="1417.6" y="-133.8" font-family="Times-Roman" font-size="14.00">wage hike failures</text>
</g>
<!-- step2_current&#45;&gt;step2_opt4 -->
<g id="edge8" class="edge">
<title>step2_current&#45;&gt;step2_opt4</title>
<path fill="none" stroke="#888888" d="M1165.59,-209.24C1203.24,-197.68 1249.64,-183.94 1291.6,-173 1300.21,-170.75 1309.18,-168.52 1318.2,-166.36"/>
<polygon fill="#888888" stroke="#888888" points="1319.05,-169.76 1327.98,-164.05 1317.44,-162.95 1319.05,-169.76"/>
<text text-anchor="middle" x="1270.1" y="-182" font-family="Times-Roman" font-size="10.00">4</text>
</g>
<!-- step3_current -->
<g id="node13" class="node">
<title>step3_current</title>
<ellipse fill="#eef3ff" stroke="black" cx="1784.23" cy="-329" rx="162.77" ry="26.74"/>
<text text-anchor="middle" x="1784.23" y="-332.8" font-family="Times-Roman" font-size="14.00">What the US gets wrong about</text>
<text text-anchor="middle" x="1784.23" y="-317.8" font-family="Times-Roman" font-size="14.00">minimum wage</text>
</g>
<!-- step2_opt1&#45;&gt;step3_current -->
<g id="edge18" class="edge">
<title>step2_opt1&#45;&gt;step3_current</title>
<path fill="none" stroke="#2d9c4a" stroke-width="2.5" stroke-dasharray="5,2" d="M1532.97,-329C1557.88,-329 1584.76,-329 1611.35,-329"/>
<polygon fill="#2d9c4a" stroke="#2d9c4a" stroke-width="2.5" points="1611.52,-332.5 1621.52,-329 1611.52,-325.5 1611.52,-332.5"/>
<text text-anchor="middle" x="1582.6" y="-332" font-family="Times-Roman" font-size="10.00">selected</text>
</g>
<!-- step3_opt1 -->
<g id="node14" class="node">
<title>step3_opt1</title>
<path fill="#d7f5d0" stroke="#2d9c4a" stroke-width="2" d="M2204.87,-474C2204.87,-474 2013.87,-474 2013.87,-474 2007.87,-474 2001.87,-468 2001.87,-462 2001.87,-462 2001.87,-418 2001.87,-418 2001.87,-412 2007.87,-406 2013.87,-406 2013.87,-406 2204.87,-406 2204.87,-406 2210.87,-406 2216.87,-412 2216.87,-418 2216.87,-418 2216.87,-462 2216.87,-462 2216.87,-468 2210.87,-474 2204.87,-474"/>
<text text-anchor="middle" x="2109.37" y="-458.8" font-family="Times-Roman" font-size="14.00">The 5 Biggest Myths</text>
<text text-anchor="middle" x="2109.37" y="-443.8" font-family="Times-Roman" font-size="14.00">Republicans Use to Avoid</text>
<text text-anchor="middle" x="2109.37" y="-428.8" font-family="Times-Roman" font-size="14.00">Raising the Minimum Wage |</text>
<text text-anchor="middle" x="2109.37" y="-413.8" font-family="Times-Roman" font-size="14.00">Opinions | NowThis</text>
</g>
<!-- step3_current&#45;&gt;step3_opt1 -->
<g id="edge9" class="edge">
<title>step3_current&#45;&gt;step3_opt1</title>
<path fill="none" stroke="#2d9c4a" stroke-width="2.5" d="M1855.75,-353.22C1897.79,-367.66 1952.05,-386.3 1999.49,-402.6"/>
<polygon fill="#2d9c4a" stroke="#2d9c4a" stroke-width="2.5" points="1998.6,-406 2009.2,-405.93 2000.88,-399.38 1998.6,-406"/>
<text text-anchor="middle" x="1968.37" y="-394" font-family="Times-Roman" font-size="10.00">1</text>
</g>
<!-- step3_opt2 -->
<g id="node15" class="node">
<title>step3_opt2</title>
<path fill="#ffffff" stroke="black" d="M2212.87,-387.5C2212.87,-387.5 2005.87,-387.5 2005.87,-387.5 1999.87,-387.5 1993.87,-381.5 1993.87,-375.5 1993.87,-375.5 1993.87,-346.5 1993.87,-346.5 1993.87,-340.5 1999.87,-334.5 2005.87,-334.5 2005.87,-334.5 2212.87,-334.5 2212.87,-334.5 2218.87,-334.5 2224.87,-340.5 2224.87,-346.5 2224.87,-346.5 2224.87,-375.5 2224.87,-375.5 2224.87,-381.5 2218.87,-387.5 2212.87,-387.5"/>
<text text-anchor="middle" x="2109.37" y="-372.3" font-family="Times-Roman" font-size="14.00">Fast Food CEO After Minimum</text>
<text text-anchor="middle" x="2109.37" y="-357.3" font-family="Times-Roman" font-size="14.00">Wage Increase: &quot;I was stunned</text>
<text text-anchor="middle" x="2109.37" y="-342.3" font-family="Times-Roman" font-size="14.00">by the business&quot;</text>
</g>
<!-- step3_current&#45;&gt;step3_opt2 -->
<g id="edge10" class="edge">
<title>step3_current&#45;&gt;step3_opt2</title>
<path fill="none" stroke="#888888" d="M1924.15,-342.76C1943.81,-344.7 1963.93,-346.7 1983.31,-348.62"/>
<polygon fill="#888888" stroke="#888888" points="1983.08,-352.11 1993.37,-349.61 1983.77,-345.14 1983.08,-352.11"/>
<text text-anchor="middle" x="1968.37" y="-349" font-family="Times-Roman" font-size="10.00">2</text>
</g>
<!-- step3_opt3 -->
<g id="node16" class="node">
<title>step3_opt3</title>
<path fill="#ffffff" stroke="black" d="M2206.37,-316C2206.37,-316 2012.37,-316 2012.37,-316 2006.37,-316 2000.37,-310 2000.37,-304 2000.37,-304 2000.37,-290 2000.37,-290 2000.37,-284 2006.37,-278 2012.37,-278 2012.37,-278 2206.37,-278 2206.37,-278 2212.37,-278 2218.37,-284 2218.37,-290 2218.37,-290 2218.37,-304 2218.37,-304 2218.37,-310 2212.37,-316 2206.37,-316"/>
<text text-anchor="middle" x="2109.37" y="-300.8" font-family="Times-Roman" font-size="14.00">Milton Friedman on Minimum</text>
<text text-anchor="middle" x="2109.37" y="-285.8" font-family="Times-Roman" font-size="14.00">Wage</text>
</g>
<!-- step3_current&#45;&gt;step3_opt3 -->
<g id="edge11" class="edge">
<title>step3_current&#45;&gt;step3_opt3</title>
<path fill="none" stroke="#888888" d="M1924.15,-315.24C1946.15,-313.06 1968.72,-310.83 1990.19,-308.7"/>
<polygon fill="#888888" stroke="#888888" points="1990.7,-312.17 2000.3,-307.7 1990.01,-305.2 1990.7,-312.17"/>
<text text-anchor="middle" x="1968.37" y="-314" font-family="Times-Roman" font-size="10.00">3</text>
</g>
<!-- step3_opt4 -->
<g id="node17" class="node">
<title>step3_opt4</title>
<path fill="#ffffff" stroke="black" d="M2216.87,-260C2216.87,-260 2001.87,-260 2001.87,-260 1995.87,-260 1989.87,-254 1989.87,-248 1989.87,-248 1989.87,-234 1989.87,-234 1989.87,-228 1995.87,-222 2001.87,-222 2001.87,-222 2216.87,-222 2216.87,-222 2222.87,-222 2228.87,-228 2228.87,-234 2228.87,-234 2228.87,-248 2228.87,-248 2228.87,-254 2222.87,-260 2216.87,-260"/>
<text text-anchor="middle" x="2109.37" y="-244.8" font-family="Times-Roman" font-size="14.00">Walmart CEO: Federal minimum</text>
<text text-anchor="middle" x="2109.37" y="-229.8" font-family="Times-Roman" font-size="14.00">wage should be raised</text>
</g>
<!-- step3_current&#45;&gt;step3_opt4 -->
<g id="edge12" class="edge">
<title>step3_current&#45;&gt;step3_opt4</title>
<path fill="none" stroke="#888888" d="M1862.21,-305.38C1900.46,-293.91 1947.45,-280.22 1989.87,-269 1998.18,-266.8 2006.85,-264.59 2015.54,-262.43"/>
<polygon fill="#888888" stroke="#888888" points="2016.48,-265.81 2025.35,-260.02 2014.81,-259.01 2016.48,-265.81"/>
<text text-anchor="middle" x="1968.37" y="-278" font-family="Times-Roman" font-size="10.00">4</text>
</g>
<!-- step4_current -->
<g id="node18" class="node">
<title>step4_current</title>
<ellipse fill="#eef3ff" stroke="black" cx="2458.89" cy="-440" rx="152.06" ry="48.17"/>
<text text-anchor="middle" x="2458.89" y="-458.8" font-family="Times-Roman" font-size="14.00">The 5 Biggest Myths</text>
<text text-anchor="middle" x="2458.89" y="-443.8" font-family="Times-Roman" font-size="14.00">Republicans Use to Avoid</text>
<text text-anchor="middle" x="2458.89" y="-428.8" font-family="Times-Roman" font-size="14.00">Raising the Minimum Wage |</text>
<text text-anchor="middle" x="2458.89" y="-413.8" font-family="Times-Roman" font-size="14.00">Opinions | NowThis</text>
</g>
<!-- step3_opt1&#45;&gt;step4_current -->
<g id="edge19" class="edge">
<title>step3_opt1&#45;&gt;step4_current</title>
<path fill="none" stroke="#2d9c4a" stroke-width="2.5" stroke-dasharray="5,2" d="M2217,-440C2242.12,-440 2269.46,-440 2296.4,-440"/>
<polygon fill="#2d9c4a" stroke="#2d9c4a" stroke-width="2.5" points="2296.7,-443.5 2306.7,-440 2296.7,-436.5 2296.7,-443.5"/>
<text text-anchor="middle" x="2267.87" y="-443" font-family="Times-Roman" font-size="10.00">selected</text>
</g>
<!-- step4_opt1 -->
<g id="node19" class="node">
<title>step4_opt1</title>
<path fill="#ffffff" stroke="black" d="M2882.92,-547C2882.92,-547 2678.92,-547 2678.92,-547 2672.92,-547 2666.92,-541 2666.92,-535 2666.92,-535 2666.92,-521 2666.92,-521 2666.92,-515 2672.92,-509 2678.92,-509 2678.92,-509 2882.92,-509 2882.92,-509 2888.92,-509 2894.92,-515 2894.92,-521 2894.92,-521 2894.92,-535 2894.92,-535 2894.92,-541 2888.92,-547 2882.92,-547"/>
<text text-anchor="middle" x="2780.92" y="-531.8" font-family="Times-Roman" font-size="14.00">Should We Raise the Minimum</text>
<text text-anchor="middle" x="2780.92" y="-516.8" font-family="Times-Roman" font-size="14.00">Wage?</text>
</g>
<!-- step4_current&#45;&gt;step4_opt1 -->
<g id="edge13" class="edge">
<title>step4_current&#45;&gt;step4_opt1</title>
<path fill="none" stroke="#888888" d="M2565.43,-474.34C2594.01,-483.17 2625.04,-492.34 2653.92,-500 2662.34,-502.23 2671.11,-504.43 2679.92,-506.56"/>
<polygon fill="#888888" stroke="#888888" points="2679.34,-510.02 2689.88,-508.93 2680.96,-503.21 2679.34,-510.02"/>
<text text-anchor="middle" x="2632.42" y="-497" font-family="Times-Roman" font-size="10.00">1</text>
</g>
<!-- step4_opt2 -->
<g id="node20" class="node">
<title>step4_opt2</title>
<path fill="#ffffff" stroke="black" d="M2889.92,-491C2889.92,-491 2671.92,-491 2671.92,-491 2665.92,-491 2659.92,-485 2659.92,-479 2659.92,-479 2659.92,-465 2659.92,-465 2659.92,-459 2665.92,-453 2671.92,-453 2671.92,-453 2889.92,-453 2889.92,-453 2895.92,-453 2901.92,-459 2901.92,-465 2901.92,-465 2901.92,-479 2901.92,-479 2901.92,-485 2895.92,-491 2889.92,-491"/>
<text text-anchor="middle" x="2780.92" y="-475.8" font-family="Times-Roman" font-size="14.00">Why Raising the Minimum Wage</text>
<text text-anchor="middle" x="2780.92" y="-460.8" font-family="Times-Roman" font-size="14.00">Doesn&#39;t Cause Inflation</text>
</g>
<!-- step4_current&#45;&gt;step4_opt2 -->
<g id="edge14" class="edge">
<title>step4_current&#45;&gt;step4_opt2</title>
<path fill="none" stroke="#888888" d="M2603.99,-454.41C2619.09,-455.92 2634.38,-457.45 2649.31,-458.94"/>
<polygon fill="#888888" stroke="#888888" points="2649.29,-462.46 2659.59,-459.97 2649.99,-455.49 2649.29,-462.46"/>
<text text-anchor="middle" x="2632.42" y="-459" font-family="Times-Roman" font-size="10.00">2</text>
</g>
<!-- step4_opt3 -->
<g id="node21" class="node">
<title>step4_opt3</title>
<path fill="#ffffff" stroke="black" d="M2895.92,-434.5C2895.92,-434.5 2665.92,-434.5 2665.92,-434.5 2659.92,-434.5 2653.92,-428.5 2653.92,-422.5 2653.92,-422.5 2653.92,-393.5 2653.92,-393.5 2653.92,-387.5 2659.92,-381.5 2665.92,-381.5 2665.92,-381.5 2895.92,-381.5 2895.92,-381.5 2901.92,-381.5 2907.92,-387.5 2907.92,-393.5 2907.92,-393.5 2907.92,-422.5 2907.92,-422.5 2907.92,-428.5 2901.92,-434.5 2895.92,-434.5"/>
<text text-anchor="middle" x="2780.92" y="-419.3" font-family="Times-Roman" font-size="14.00">SOMEONE GIVE HIM A RAISE: Ben</text>
<text text-anchor="middle" x="2780.92" y="-404.3" font-family="Times-Roman" font-size="14.00">Shapiro kills the minimum wage</text>
<text text-anchor="middle" x="2780.92" y="-389.3" font-family="Times-Roman" font-size="14.00">argument for good</text>
</g>
<!-- step4_current&#45;&gt;step4_opt3 -->
<g id="edge15" class="edge">
<title>step4_current&#45;&gt;step4_opt3</title>
<path fill="none" stroke="#888888" d="M2603.99,-425.59C2617.21,-424.27 2630.58,-422.93 2643.73,-421.62"/>
<polygon fill="#888888" stroke="#888888" points="2644.13,-425.1 2653.73,-420.62 2643.43,-418.13 2644.13,-425.1"/>
<text text-anchor="middle" x="2632.42" y="-426" font-family="Times-Roman" font-size="10.00">3</text>
</g>
<!-- step4_opt4 -->
<g id="node22" class="node">
<title>step4_opt4</title>
<path fill="#d7f5d0" stroke="#2d9c4a" stroke-width="2" d="M2884.42,-363.5C2884.42,-363.5 2677.42,-363.5 2677.42,-363.5 2671.42,-363.5 2665.42,-357.5 2665.42,-351.5 2665.42,-351.5 2665.42,-322.5 2665.42,-322.5 2665.42,-316.5 2671.42,-310.5 2677.42,-310.5 2677.42,-310.5 2884.42,-310.5 2884.42,-310.5 2890.42,-310.5 2896.42,-316.5 2896.42,-322.5 2896.42,-322.5 2896.42,-351.5 2896.42,-351.5 2896.42,-357.5 2890.42,-363.5 2884.42,-363.5"/>
<text text-anchor="middle" x="2780.92" y="-348.3" font-family="Times-Roman" font-size="14.00">Fast Food CEO After Minimum</text>
<text text-anchor="middle" x="2780.92" y="-333.3" font-family="Times-Roman" font-size="14.00">Wage Increase: &quot;I was stunned</text>
<text text-anchor="middle" x="2780.92" y="-318.3" font-family="Times-Roman" font-size="14.00">by the business&quot;</text>
</g>
<!-- step4_current&#45;&gt;step4_opt4 -->
<g id="edge16" class="edge">
<title>step4_current&#45;&gt;step4_opt4</title>
<path fill="none" stroke="#2d9c4a" stroke-width="2.5" d="M2560.5,-404.1C2590.45,-393.73 2623.42,-382.62 2653.92,-373 2660.78,-370.84 2667.87,-368.66 2675.03,-366.5"/>
<polygon fill="#2d9c4a" stroke="#2d9c4a" stroke-width="2.5" points="2676.23,-369.8 2684.81,-363.58 2674.23,-363.09 2676.23,-369.8"/>
<text text-anchor="middle" x="2632.42" y="-382" font-family="Times-Roman" font-size="10.00">4</text>
</g>
<!-- step4_selected -->
<g id="node23" class="node">
<title>step4_selected</title>
<ellipse fill="#eef3ff" stroke="black" cx="3149.26" cy="-337" rx="163.18" ry="37.45"/>
<text text-anchor="middle" x="3149.26" y="-348.3" font-family="Times-Roman" font-size="14.00">Fast Food CEO After Minimum</text>
<text text-anchor="middle" x="3149.26" y="-333.3" font-family="Times-Roman" font-size="14.00">Wage Increase: &quot;I was stunned</text>
<text text-anchor="middle" x="3149.26" y="-318.3" font-family="Times-Roman" font-size="14.00">by the business&quot;</text>
</g>
<!-- step4_opt4&#45;&gt;step4_selected -->
<g id="edge21" class="edge">
<title>step4_opt4&#45;&gt;step4_selected</title>
<path fill="none" stroke="#2d9c4a" stroke-width="2.5" stroke-dasharray="5,2" d="M2896.58,-337C2921.61,-337 2948.64,-337 2975.37,-337"/>
<polygon fill="#2d9c4a" stroke="#2d9c4a" stroke-width="2.5" points="2975.6,-340.5 2985.6,-337 2975.6,-333.5 2975.6,-340.5"/>
<text text-anchor="middle" x="2946.92" y="-340" font-family="Times-Roman" font-size="10.00">selected</text>
</g>
<!-- step4_selected&#45;&gt;opinion_final -->
<g id="edge22" class="edge">
<title>step4_selected&#45;&gt;opinion_final</title>
<path fill="none" stroke="#bf616a" stroke-width="2.5" d="M3313.02,-337C3321.73,-337 3330.44,-337 3339.07,-337"/>
<polygon fill="#bf616a" stroke="#bf616a" stroke-width="2.5" points="3339.16,-340.5 3349.16,-337 3339.16,-333.5 3339.16,-340.5"/>
</g>
</g>
</svg>
