<?xml version="1.0" encoding="UTF-8" standalone="no"?>
<!DOCTYPE svg PUBLIC "-//W3C//DTD SVG 1.1//EN"
 "http://www.w3.org/Graphics/SVG/1.1/DTD/svg11.dtd">
<!-- Generated by graphviz version 2.44.0 (0)
 -->
<!-- Pages: 1 -->
<svg width="3715pt" height="478pt"
 viewBox="0.00 0.00 3715.33 478.08" xmlns="http://www.w3.org/2000/svg" xmlns:xlink="http://www.w3.org/1999/xlink">
<g id="graph0" class="graph" transform="scale(1 1) rotate(0) translate(4 474.08)">
<polygon fill="white" stroke="transparent" points="-4,4 -4,-474.08 3711.33,-474.08 3711.33,4 -4,4"/>
<!-- opinion_initial -->
<g id="node1" class="node">
<title>opinion_initial</title>
<polygon fill="#fbeaea" stroke="#bf616a" stroke-width="2" points="224,-369.08 0,-369.08 0,-333.08 224,-333.08 224,-369.08"/>
<text text-anchor="middle" x="112" y="-347.38" font-family="Helvetica" font-size="14.00">Initial Gun regulation support: 0.25</text>
</g>
<!-- step1_current -->
<g id="node3" class="node">
<title>step1_current</title>
<ellipse fill="#eef3ff" stroke="black" cx="430" cy="-351.08" rx="169" ry="37.45"/>
<text text-anchor="middle" x="430" y="-362.38" font-family="Times-Roman" font-size="14.00">Most Americans Want More Gun</text>
<text text-anchor="middle" x="430" y="-347.38" font-family="Times-Roman" font-size="14.00">Control. Why Doesn’t It</text>
<text text-anchor="middle" x="430" y="-332.38" font-family="Times-Roman" font-size="14.00">Happen? | NYT</text>
</g>
<!-- opinion_initial&#45;&gt;step1_current -->
<g id="edge18" class="edge">
<title>opinion_initial&#45;&gt;step1_current</title>
<path fill="none" stroke="#bf616a" stroke-width="2.5" d="M224.41,-351.08C233.06,-351.08 241.91,-351.08 250.86,-351.08"/>
<polygon fill="#bf616a" stroke="#bf616a" stroke-width="2.5" points="250.98,-354.58 260.98,-351.08 250.98,-347.58 250.98,-354.58"/>
</g>
<!-- opinion_final -->
<g id="node2" class="node">
<title>opinion_final</title>
<polygon fill="#fbeaea" stroke="#bf616a" stroke-width="2" points="3707.33,-66.08 3438.33,-66.08 3438.33,-30.08 3707.33,-30.08 3707.33,-66.08"/>
<text text-anchor="middle" x="3572.83" y="-44.38" font-family="Helvetica" font-size="14.00">Final Gun regulation support: 0.31 (+0.06)</text>
</g>
<!-- step1_opt1 -->
<g id="node4" class="node">
<title>step1_opt1</title>
<path fill="#ffffff" stroke="black" d="M869,-398.08C869,-398.08 679,-398.08 679,-398.08 673,-398.08 667,-392.08 667,-386.08 667,-386.08 667,-372.08 667,-372.08 667,-366.08 673,-360.08 679,-360.08 679,-360.08 869,-360.08 869,-360.08 875,-360.08 881,-366.08 881,-372.08 881,-372.08 881,-386.08 881,-386.08 881,-392.08 875,-398.08 869,-398.08"/>
<text text-anchor="middle" x="774" y="-382.88" font-family="Times-Roman" font-size="14.00">Democrats Need to Listen to</text>
<text text-anchor="middle" x="774" y="-367.88" font-family="Times-Roman" font-size="14.00">Gun Owners</text>
</g>
<!-- step1_current&#45;&gt;step1_opt1 -->
<g id="edge1" class="edge">
<title>step1_current&#45;&gt;step1_opt1</title>
<path fill="none" stroke="#888888" d="M588.98,-364.02C611.8,-365.89 634.92,-367.78 656.72,-369.56"/>
<polygon fill="#888888" stroke="#888888" points="656.72,-373.08 666.97,-370.4 657.29,-366.1 656.72,-373.08"/>
<text text-anchor="middle" x="620.5" y="-369.08" font-family="Times-Roman" font-size="10.00">1</text>
</g>
<!-- step1_opt2 -->
<g id="node5" class="node">
<title>step1_opt2</title>
<path fill="#d7f5d0" stroke="#2d9c4a" stroke-width="2" d="M894,-342.08C894,-342.08 654,-342.08 654,-342.08 648,-342.08 642,-336.08 642,-330.08 642,-330.08 642,-316.08 642,-316.08 642,-310.08 648,-304.08 654,-304.08 654,-304.08 894,-304.08 894,-304.08 900,-304.08 906,-310.08 906,-316.08 906,-316.08 906,-330.08 906,-330.08 906,-336.08 900,-342.08 894,-342.08"/>
<text text-anchor="middle" x="774" y="-326.88" font-family="Times-Roman" font-size="14.00">GUN CONTROL: WHY YOU CAN&#39;T</text>
<text text-anchor="middle" x="774" y="-311.88" font-family="Times-Roman" font-size="14.00">COMPARE AUSTRALIA AND THE U.S</text>
</g>
<!-- step1_current&#45;&gt;step1_opt2 -->
<g id="edge2" class="edge">
<title>step1_current&#45;&gt;step1_opt2</title>
<path fill="none" stroke="#2d9c4a" stroke-width="2.5" d="M588.98,-338.15C603.21,-336.98 617.55,-335.81 631.62,-334.66"/>
<polygon fill="#2d9c4a" stroke="#2d9c4a" stroke-width="2.5" points="632.13,-338.13 641.81,-333.82 631.56,-331.15 632.13,-338.13"/>
<text text-anchor="middle" x="620.5" y="-338.08" font-family="Times-Roman" font-size="10.00">2</text>
</g>
<!-- step2_current -->
<g id="node6" class="node">
<title>step2_current</title>
<ellipse fill="#eef3ff" stroke="black" cx="1170.67" cy="-323.08" rx="186.85" ry="26.74"/>
<text text-anchor="middle" x="1170.67" y="-326.88" font-family="Times-Roman" font-size="14.00">GUN CONTROL: WHY YOU CAN&#39;T</text>
<text text-anchor="middle" x="1170.67" y="-311.88" font-family="Times-Roman" font-size="14.00">COMPARE AUSTRALIA AND THE U.S</text>
</g>
<!-- step1_opt2&#45;&gt;step2_current -->
<g id="edge15" class="edge">
<title>step1_opt2&#45;&gt;step2_current</title>
<path fill="none" stroke="#2d9c4a" stroke-width="2.5" stroke-dasharray="5,2" d="M906.14,-323.08C927.83,-323.08 950.73,-323.08 973.6,-323.08"/>
<polygon fill="#2d9c4a" stroke="#2d9c4a" stroke-width="2.5" points="973.75,-326.58 983.75,-323.08 973.75,-319.58 973.75,-326.58"/>
<text text-anchor="middle" x="945" y="-326.08" font-family="Times-Roman" font-size="10.00">selected</text>
</g>
<!-- step2_opt1 -->
<g id="node7" class="node">
<title>step2_opt1</title>
<path fill="#ffffff" stroke="black" d="M1622.35,-470.08C1622.35,-470.08 1412.35,-470.08 1412.35,-470.08 1406.35,-470.08 1400.35,-464.08 1400.35,-458.08 1400.35,-458.08 1400.35,-444.08 1400.35,-444.08 1400.35,-438.08 1406.35,-432.08 1412.35,-432.08 1412.35,-432.08 1622.35,-432.08 1622.35,-432.08 1628.35,-432.08 1634.35,-438.08 1634.35,-444.08 1634.35,-444.08 1634.35,-458.08 1634.35,-458.08 1634.35,-464.08 1628.35,-470.08 1622.35,-470.08"/>
<text text-anchor="middle" x="1517.35" y="-454.88" font-family="Times-Roman" font-size="14.00">The Truth About Guns And Gun</text>
<text text-anchor="middle" x="1517.35" y="-439.88" font-family="Times-Roman" font-size="14.00">Control | Debunker | NBC News</text>
</g>
<!-- step2_current&#45;&gt;step2_opt1 -->
<g id="edge3" class="edge">
<title>step2_current&#45;&gt;step2_opt1</title>
<path fill="none" stroke="#888888" d="M1223.77,-349C1269.47,-370.97 1338.13,-402.15 1400.35,-423.08 1406.75,-425.24 1413.4,-427.29 1420.13,-429.25"/>
<polygon fill="#888888" stroke="#888888" points="1419.46,-432.69 1430.03,-432.03 1421.35,-425.96 1419.46,-432.69"/>
<text text-anchor="middle" x="1378.85" y="-419.08" font-family="Times-Roman" font-size="10.00">1</text>
</g>
<!-- step2_opt2 -->
<g id="node8" class="node">
<title>step2_opt2</title>
<path fill="#ffffff" stroke="black" d="M1615.85,-413.58C1615.85,-413.58 1418.85,-413.58 1418.85,-413.58 1412.85,-413.58 1406.85,-407.58 1406.85,-401.58 1406.85,-401.58 1406.85,-372.58 1406.85,-372.58 1406.85,-366.58 1412.85,-360.58 1418.85,-360.58 1418.85,-360.58 1615.85,-360.58 1615.85,-360.58 1621.85,-360.58 1627.85,-366.58 1627.85,-372.58 1627.85,-372.58 1627.85,-401.58 1627.85,-401.58 1627.85,-407.58 1621.85,-413.58 1615.85,-413.58"/>
<text text-anchor="middle" x="1517.35" y="-398.38" font-family="Times-Roman" font-size="14.00">Gun control and the statistics</text>
<text text-anchor="middle" x="1517.35" y="-383.38" font-family="Times-Roman" font-size="14.00">behind America&#39;s love affair</text>
<text text-anchor="middle" x="1517.35" y="-368.38" font-family="Times-Roman" font-size="14.00">with guns | The Economist</text>
</g>
<!-- step2_current&#45;&gt;step2_opt2 -->
<g id="edge4" class="edge">
<title>step2_current&#45;&gt;step2_opt2</title>
<path fill="none" stroke="#888888" d="M1285.97,-344.31C1321.52,-350.91 1360.81,-358.2 1396.72,-364.87"/>
<polygon fill="#888888" stroke="#888888" points="1396.28,-368.35 1406.75,-366.73 1397.56,-361.47 1396.28,-368.35"/>
<text text-anchor="middle" x="1378.85" y="-364.08" font-family="Times-Roman" font-size="10.00">2</text>
</g>
<!-- step2_opt3 -->
<g id="node9" class="node">
<title>step2_opt3</title>
<path fill="#ffffff" stroke="black" d="M1610.85,-342.08C1610.85,-342.08 1423.85,-342.08 1423.85,-342.08 1417.85,-342.08 1411.85,-336.08 1411.85,-330.08 1411.85,-330.08 1411.85,-316.08 1411.85,-316.08 1411.85,-310.08 1417.85,-304.08 1423.85,-304.08 1423.85,-304.08 1610.85,-304.08 1610.85,-304.08 1616.85,-304.08 1622.85,-310.08 1622.85,-316.08 1622.85,-316.08 1622.85,-330.08 1622.85,-330.08 1622.85,-336.08 1616.85,-342.08 1610.85,-342.08"/>
<text text-anchor="middle" x="1517.35" y="-326.88" font-family="Times-Roman" font-size="14.00">Do We Need Stricter Gun</text>
<text text-anchor="middle" x="1517.35" y="-311.88" font-family="Times-Roman" font-size="14.00">Control? &#45; The People Speak</text>
</g>
<!-- step2_current&#45;&gt;step2_opt3 -->
<g id="edge5" class="edge">
<title>step2_current&#45;&gt;step2_opt3</title>
<path fill="none" stroke="#888888" d="M1357.38,-323.08C1372.36,-323.08 1387.21,-323.08 1401.47,-323.08"/>
<polygon fill="#888888" stroke="#888888" points="1401.74,-326.58 1411.74,-323.08 1401.74,-319.58 1401.74,-326.58"/>
<text text-anchor="middle" x="1378.85" y="-326.08" font-family="Times-Roman" font-size="10.00">3</text>
</g>
<!-- step2_opt4 -->
<g id="node10" class="node">
<title>step2_opt4</title>
<path fill="#ffffff" stroke="black" d="M1621.35,-286.08C1621.35,-286.08 1413.35,-286.08 1413.35,-286.08 1407.35,-286.08 1401.35,-280.08 1401.35,-274.08 1401.35,-274.08 1401.35,-260.08 1401.35,-260.08 1401.35,-254.08 1407.35,-248.08 1413.35,-248.08 1413.35,-248.08 1621.35,-248.08 1621.35,-248.08 1627.35,-248.08 1633.35,-254.08 1633.35,-260.08 1633.35,-260.08 1633.35,-274.08 1633.35,-274.08 1633.35,-280.08 1627.35,-286.08 1621.35,-286.08"/>
<text text-anchor="middle" x="1517.35" y="-270.88" font-family="Times-Roman" font-size="14.00">Gun Banners Say the Darndest</text>
<text text-anchor="middle" x="1517.35" y="-255.88" font-family="Times-Roman" font-size="14.00">Things</text>
</g>
<!-- step2_current&#45;&gt;step2_opt4 -->
<g id="edge6" class="edge">
<title>step2_current&#45;&gt;step2_opt4</title>
<path fill="none" stroke="#888888" d="M1295.14,-303.02C1326.34,-297.96 1359.87,-292.51 1391.15,-287.42"/>
<polygon fill="#888888" stroke="#888888" points="1391.91,-290.85 1401.22,-285.79 1390.79,-283.94 1391.91,-290.85"/>
<text text-anchor="middle" x="1378.85" y="-292.08" font-family="Times-Roman" font-size="10.00">4</text>
</g>
<!-- step2_opt5 -->
<g id="node11" class="node">
<title>step2_opt5</title>
<path fill="#d7f5d0" stroke="#2d9c4a" stroke-width="2" d="M1612.85,-230.08C1612.85,-230.08 1421.85,-230.08 1421.85,-230.08 1415.85,-230.08 1409.85,-224.08 1409.85,-218.08 1409.85,-218.08 1409.85,-204.08 1409.85,-204.08 1409.85,-198.08 1415.85,-192.08 1421.85,-192.08 1421.85,-192.08 1612.85,-192.08 1612.85,-192.08 1618.85,-192.08 1624.85,-198.08 1624.85,-204.08 1624.85,-204.08 1624.85,-218.08 1624.85,-218.08 1624.85,-224.08 1618.85,-230.08 1612.85,-230.08"/>
<text text-anchor="middle" x="1517.35" y="-214.88" font-family="Times-Roman" font-size="14.00">Trevor Reacts to the Orlando</text>
<text text-anchor="middle" x="1517.35" y="-199.88" font-family="Times-Roman" font-size="14.00">Shooting: The Daily Show</text>
</g>
<!-- step2_current&#45;&gt;step2_opt5 -->
<g id="edge7" class="edge">
<title>step2_current&#45;&gt;step2_opt5</title>
<path fill="none" stroke="#2d9c4a" stroke-width="2.5" d="M1234.59,-297.75C1280.16,-279.95 1343.48,-256.33 1400.35,-239.08 1407.52,-236.91 1414.97,-234.79 1422.5,-232.76"/>
<polygon fill="#2d9c4a" stroke="#2d9c4a" stroke-width="2.5" points="1423.63,-236.08 1432.4,-230.13 1421.84,-229.31 1423.63,-236.08"/>
<text text-anchor="middle" x="1378.85" y="-247.08" font-family="Times-Roman" font-size="10.00">5</text>
</g>
<!-- step3_current -->
<g id="node12" class="node">
<title>step3_current</title>
<ellipse fill="#eef3ff" stroke="black" cx="1864.38" cy="-211.08" rx="152.06" ry="26.74"/>
<text text-anchor="middle" x="1864.38" y="-214.88" font-family="Times-Roman" font-size="14.00">Trevor Reacts to the Orlando</text>
<text text-anchor="middle" x="1864.38" y="-199.88" font-family="Times-Roman" font-size="14.00">Shooting: The Daily Show</text>
</g>
<!-- step2_opt5&#45;&gt;step3_current -->
<g id="edge16" class="edge">
<title>step2_opt5&#45;&gt;step3_current</title>
<path fill="none" stroke="#2d9c4a" stroke-width="2.5" stroke-dasharray="5,2" d="M1625.16,-211.08C1649.44,-211.08 1675.77,-211.08 1701.77,-211.08"/>
<polygon fill="#2d9c4a" stroke="#2d9c4a" stroke-width="2.5" points="1702.1,-214.58 1712.1,-211.08 1702.1,-207.58 1702.1,-214.58"/>
<text text-anchor="middle" x="1673.35" y="-214.08" font-family="Times-Roman" font-size="10.00">selected</text>
</g>
<!-- step3_opt1 -->
<g id="node13" class="node">
<title>step3_opt1</title>
<path fill="#ffffff" stroke="black" d="M2274.41,-265.08C2274.41,-265.08 2084.41,-265.08 2084.41,-265.08 2078.41,-265.08 2072.41,-259.08 2072.41,-253.08 2072.41,-253.08 2072.41,-239.08 2072.41,-239.08 2072.41,-233.08 2078.41,-227.08 2084.41,-227.08 2084.41,-227.08 2274.41,-227.08 2274.41,-227.08 2280.41,-227.08 2286.41,-233.08 2286.41,-239.08 2286.41,-239.08 2286.41,-253.08 2286.41,-253.08 2286.41,-259.08 2280.41,-265.08 2274.41,-265.08"/>
<text text-anchor="middle" x="2179.41" y="-249.88" font-family="Times-Roman" font-size="14.00">Democrats Need to Listen to</text>
<text text-anchor="middle" x="2179.41" y="-234.88" font-family="Times-Roman" font-size="14.00">Gun Owners</text>
</g>
<!-- step3_current&#45;&gt;step3_opt1 -->
<g id="edge8" class="edge">
<title>step3_current&#45;&gt;step3_opt1</title>
<path fill="none" stroke="#888888" d="M1993.15,-225.37C2015.87,-227.91 2039.43,-230.54 2061.82,-233.05"/>
<polygon fill="#888888" stroke="#888888" points="2061.7,-236.56 2072.02,-234.19 2062.47,-229.6 2061.7,-236.56"/>
<text text-anchor="middle" x="2037.91" y="-233.08" font-family="Times-Roman" font-size="10.00">1</text>
</g>
<!-- step3_opt2 -->
<g id="node14" class="node">
<title>step3_opt2</title>
<path fill="#d7f5d0" stroke="#2d9c4a" stroke-width="2" d="M2287.41,-209.08C2287.41,-209.08 2071.41,-209.08 2071.41,-209.08 2065.41,-209.08 2059.41,-203.08 2059.41,-197.08 2059.41,-197.08 2059.41,-153.08 2059.41,-153.08 2059.41,-147.08 2065.41,-141.08 2071.41,-141.08 2071.41,-141.08 2287.41,-141.08 2287.41,-141.08 2293.41,-141.08 2299.41,-147.08 2299.41,-153.08 2299.41,-153.08 2299.41,-197.08 2299.41,-197.08 2299.41,-203.08 2293.41,-209.08 2287.41,-209.08"/>
<text text-anchor="middle" x="2179.41" y="-193.88" font-family="Times-Roman" font-size="14.00">Piers Morgan Argues With Pro&#45;</text>
<text text-anchor="middle" x="2179.41" y="-178.88" font-family="Times-Roman" font-size="14.00">Gun Campaigner About Orlando</text>
<text text-anchor="middle" x="2179.41" y="-163.88" font-family="Times-Roman" font-size="14.00">Shooting | Good Morning</text>
<text text-anchor="middle" x="2179.41" y="-148.88" font-family="Times-Roman" font-size="14.00">Britain</text>
</g>
<!-- step3_current&#45;&gt;step3_opt2 -->
<g id="edge9" class="edge">
<title>step3_current&#45;&gt;step3_opt2</title>
<path fill="none" stroke="#2d9c4a" stroke-width="2.5" d="M1992.25,-196.49C2010.99,-194.34 2030.33,-192.11 2049.13,-189.95"/>
<polygon fill="#2d9c4a" stroke="#2d9c4a" stroke-width="2.5" points="2049.67,-193.41 2059.2,-188.79 2048.87,-186.46 2049.67,-193.41"/>
<text text-anchor="middle" x="2037.91" y="-193.08" font-family="Times-Roman" font-size="10.00">2</text>
</g>
<!-- step4_current -->
<g id="node15" class="node">
<title>step4_current</title>
<ellipse fill="#eef3ff" stroke="black" cx="2547.11" cy="-175.08" rx="169.91" ry="48.17"/>
<text text-anchor="middle" x="2547.11" y="-193.88" font-family="Times-Roman" font-size="14.00">Piers Morgan Argues With Pro&#45;</text>
<text text-anchor="middle" x="2547.11" y="-178.88" font-family="Times-Roman" font-size="14.00">Gun Campaigner About Orlando</text>
<text text-anchor="middle" x="2547.11" y="-163.88" font-family="Times-Roman" font-size="14.00">Shooting | Good Morning</text>
<text text-anchor="middle" x="2547.11" y="-148.88" font-family="Times-Roman" font-size="14.00">Britain</text>
</g>
<!-- step3_opt2&#45;&gt;step4_current -->
<g id="edge17" class="edge">
<title>step3_opt2&#45;&gt;step4_current</title>
<path fill="none" stroke="#2d9c4a" stroke-width="2.5" stroke-dasharray="5,2" d="M2299.65,-175.08C2321.25,-175.08 2344.21,-175.08 2367.09,-175.08"/>
<polygon fill="#2d9c4a" stroke="#2d9c4a" stroke-width="2.5" points="2367.24,-178.58 2377.24,-175.08 2367.24,-171.58 2367.24,-178.58"/>
<text text-anchor="middle" x="2338.41" y="-178.08" font-family="Times-Roman" font-size="10.00">selected</text>
</g>
<!-- step4_opt1 -->
<g id="node16" class="node">
<title>step4_opt1</title>
<path fill="#ffffff" stroke="black" d="M2981.82,-306.08C2981.82,-306.08 2771.82,-306.08 2771.82,-306.08 2765.82,-306.08 2759.82,-300.08 2759.82,-294.08 2759.82,-294.08 2759.82,-280.08 2759.82,-280.08 2759.82,-274.08 2765.82,-268.08 2771.82,-268.08 2771.82,-268.08 2981.82,-268.08 2981.82,-268.08 2987.82,-268.08 2993.82,-274.08 2993.82,-280.08 2993.82,-280.08 2993.82,-294.08 2993.82,-294.08 2993.82,-300.08 2987.82,-306.08 2981.82,-306.08"/>
<text text-anchor="middle" x="2876.82" y="-290.88" font-family="Times-Roman" font-size="14.00">The Truth About Guns And Gun</text>
<text text-anchor="middle" x="2876.82" y="-275.88" font-family="Times-Roman" font-size="14.00">Control | Debunker | NBC News</text>
</g>
<!-- step4_current&#45;&gt;step4_opt1 -->
<g id="edge10" class="edge">
<title>step4_current&#45;&gt;step4_opt1</title>
<path fill="none" stroke="#888888" d="M2640.88,-215.17C2677.52,-230.14 2720.24,-246.52 2759.82,-259.08 2766.67,-261.26 2773.8,-263.36 2781.01,-265.37"/>
<polygon fill="#888888" stroke="#888888" points="2780.29,-268.8 2790.86,-268.04 2782.12,-262.04 2780.29,-268.8"/>
<text text-anchor="middle" x="2738.32" y="-254.08" font-family="Times-Roman" font-size="10.00">1</text>
</g>
<!-- step4_opt2 -->
<g id="node17" class="node">
<title>step4_opt2</title>
<path fill="#ffffff" stroke="black" d="M2972.32,-250.08C2972.32,-250.08 2781.32,-250.08 2781.32,-250.08 2775.32,-250.08 2769.32,-244.08 2769.32,-238.08 2769.32,-238.08 2769.32,-224.08 2769.32,-224.08 2769.32,-218.08 2775.32,-212.08 2781.32,-212.08 2781.32,-212.08 2972.32,-212.08 2972.32,-212.08 2978.32,-212.08 2984.32,-218.08 2984.32,-224.08 2984.32,-224.08 2984.32,-238.08 2984.32,-238.08 2984.32,-244.08 2978.32,-250.08 2972.32,-250.08"/>
<text text-anchor="middle" x="2876.82" y="-234.88" font-family="Times-Roman" font-size="14.00">Trevor Reacts to the Orlando</text>
<text text-anchor="middle" x="2876.82" y="-219.88" font-family="Times-Roman" font-size="14.00">Shooting: The Daily Show</text>
</g>
<!-- step4_current&#45;&gt;step4_opt2 -->
<g id="edge11" class="edge">
<title>step4_current&#45;&gt;step4_opt2</title>
<path fill="none" stroke="#888888" d="M2692.8,-199.81C2715,-203.6 2737.68,-207.48 2759.18,-211.15"/>
<polygon fill="#888888" stroke="#888888" points="2758.85,-214.65 2769.29,-212.88 2760.03,-207.75 2758.85,-214.65"/>
<text text-anchor="middle" x="2738.32" y="-211.08" font-family="Times-Roman" font-size="10.00">2</text>
</g>
<!-- step4_opt3 -->
<g id="node18" class="node">
<title>step4_opt3</title>
<path fill="#ffffff" stroke="black" d="M2980.82,-194.08C2980.82,-194.08 2772.82,-194.08 2772.82,-194.08 2766.82,-194.08 2760.82,-188.08 2760.82,-182.08 2760.82,-182.08 2760.82,-168.08 2760.82,-168.08 2760.82,-162.08 2766.82,-156.08 2772.82,-156.08 2772.82,-156.08 2980.82,-156.08 2980.82,-156.08 2986.82,-156.08 2992.82,-162.08 2992.82,-168.08 2992.82,-168.08 2992.82,-182.08 2992.82,-182.08 2992.82,-188.08 2986.82,-194.08 2980.82,-194.08"/>
<text text-anchor="middle" x="2876.82" y="-178.88" font-family="Times-Roman" font-size="14.00">Gun Banners Say the Darndest</text>
<text text-anchor="middle" x="2876.82" y="-163.88" font-family="Times-Roman" font-size="14.00">Things</text>
</g>
<!-- step4_current&#45;&gt;step4_opt3 -->
<g id="edge12" class="edge">
<title>step4_current&#45;&gt;step4_opt3</title>
<path fill="none" stroke="#888888" d="M2717.24,-175.08C2728.51,-175.08 2739.74,-175.08 2750.72,-175.08"/>
<polygon fill="#888888" stroke="#888888" points="2750.73,-178.58 2760.73,-175.08 2750.73,-171.58 2750.73,-178.58"/>
<text text-anchor="middle" x="2738.32" y="-178.08" font-family="Times-Roman" font-size="10.00">3</text>
</g>
<!-- step4_opt4 -->
<g id="node19" class="node">
<title>step4_opt4</title>
<path fill="#ffffff" stroke="black" d="M2979.82,-138.08C2979.82,-138.08 2773.82,-138.08 2773.82,-138.08 2767.82,-138.08 2761.82,-132.08 2761.82,-126.08 2761.82,-126.08 2761.82,-112.08 2761.82,-112.08 2761.82,-106.08 2767.82,-100.08 2773.82,-100.08 2773.82,-100.08 2979.82,-100.08 2979.82,-100.08 2985.82,-100.08 2991.82,-106.08 2991.82,-112.08 2991.82,-112.08 2991.82,-126.08 2991.82,-126.08 2991.82,-132.08 2985.82,-138.08 2979.82,-138.08"/>
<text text-anchor="middle" x="2876.82" y="-122.88" font-family="Times-Roman" font-size="14.00">My AR&#45;15 Story: Why I Needed</text>
<text text-anchor="middle" x="2876.82" y="-107.88" font-family="Times-Roman" font-size="14.00">My AR&#45;15</text>
</g>
<!-- step4_current&#45;&gt;step4_opt4 -->
<g id="edge13" class="edge">
<title>step4_current&#45;&gt;step4_opt4</title>
<path fill="none" stroke="#888888" d="M2692.8,-150.36C2713.34,-146.85 2734.28,-143.27 2754.31,-139.85"/>
<polygon fill="#888888" stroke="#888888" points="2755.12,-143.26 2764.38,-138.13 2753.94,-136.36 2755.12,-143.26"/>
<text text-anchor="middle" x="2738.32" y="-144.08" font-family="Times-Roman" font-size="10.00">4</text>
</g>
<!-- step4_opt5 -->
<g id="node20" class="node">
<title>step4_opt5</title>
<path fill="#d7f5d0" stroke="#2d9c4a" stroke-width="2" d="M2981.32,-82.08C2981.32,-82.08 2772.32,-82.08 2772.32,-82.08 2766.32,-82.08 2760.32,-76.08 2760.32,-70.08 2760.32,-70.08 2760.32,-26.08 2760.32,-26.08 2760.32,-20.08 2766.32,-14.08 2772.32,-14.08 2772.32,-14.08 2981.32,-14.08 2981.32,-14.08 2987.32,-14.08 2993.32,-20.08 2993.32,-26.08 2993.32,-26.08 2993.32,-70.08 2993.32,-70.08 2993.32,-76.08 2987.32,-82.08 2981.32,-82.08"/>
<text text-anchor="middle" x="2876.82" y="-66.88" font-family="Times-Roman" font-size="14.00">Florida School Shooting</text>
<text text-anchor="middle" x="2876.82" y="-51.88" font-family="Times-Roman" font-size="14.00">Survivor Says Arming Teachers</text>
<text text-anchor="middle" x="2876.82" y="-36.88" font-family="Times-Roman" font-size="14.00">is &#39;Absurd&#39; | Good Morning</text>
<text text-anchor="middle" x="2876.82" y="-21.88" font-family="Times-Roman" font-size="14.00">Britain</text>
</g>
<!-- step4_current&#45;&gt;step4_opt5 -->
<g id="edge14" class="edge">
<title>step4_current&#45;&gt;step4_opt5</title>
<path fill="none" stroke="#2d9c4a" stroke-width="2.5" d="M2645.69,-135.83C2681.51,-121.56 2722.44,-105.42 2759.82,-91.08 2764.34,-89.35 2768.97,-87.58 2773.65,-85.81"/>
<polygon fill="#2d9c4a" stroke="#2d9c4a" stroke-width="2.5" points="2775.19,-88.97 2783.3,-82.16 2772.71,-82.42 2775.19,-88.97"/>
<text text-anchor="middle" x="2738.32" y="-102.08" font-family="Times-Roman" font-size="10.00">5</text>
</g>
<!-- step4_selected -->
<g id="node21" class="node">
<title>step4_selected</title>
<ellipse fill="#eef3ff" stroke="black" cx="3236.57" cy="-48.08" rx="164.51" ry="48.17"/>
<text text-anchor="middle" x="3236.57" y="-66.88" font-family="Times-Roman" font-size="14.00">Florida School Shooting</text>
<text text-anchor="middle" x="3236.57" y="-51.88" font-family="Times-Roman" font-size="14.00">Survivor Says Arming Teachers</text>
<text text-anchor="middle" x="3236.57" y="-36.88" font-family="Times-Roman" font-size="14.00">is &#39;Absurd&#39; | Good Morning</text>
<text text-anchor="middle" x="3236.57" y="-21.88" font-family="Times-Roman" font-size="14.00">Britain</text>
</g>
<!-- step4_opt5&#45;&gt;step4_selected -->
<g id="edge19" class="edge">
<title>step4_opt5&#45;&gt;step4_selected</title>
<path fill="none" stroke="#2d9c4a" stroke-width="2.5" stroke-dasharray="5,2" d="M2993.48,-48.08C3015.17,-48.08 3038.29,-48.08 3061.31,-48.08"/>
<polygon fill="#2d9c4a" stroke="#2d9c4a" stroke-width="2.5" points="3061.51,-51.58 3071.51,-48.08 3061.51,-44.58 3061.51,-51.58"/>
<text text-anchor="middle" x="3032.82" y="-51.08" font-family="Times-Roman" font-size="10.00">selected</text>
</g>
<!-- step4_selected&#45;&gt;opinion_final -->
<g id="edge20" class="edge">
<title>step4_selected&#45;&gt;opinion_final</title>
<path fill="none" stroke="#bf616a" stroke-width="2.5" d="M3401.76,-48.08C3410.54,-48.08 3419.34,-48.08 3428.04,-48.08"/>
<polygon fill="#bf616a" stroke="#bf616a" stroke-width="2.5" points="3428.22,-51.58 3438.22,-48.08 3428.22,-44.58 3428.22,-51.58"/>
</g>
</g>
</svg>
