<?xml version="1.0" encoding="UTF-8" standalone="no"?>
<!DOCTYPE svg PUBLIC "-//W3C//DTD SVG 1.1//EN"
 "http://www.w3.org/Graphics/SVG/1.1/DTD/svg11.dtd">
<!-- Generated by graphviz version 2.43.0 (0)
 -->
<!-- Title: GRAIL Pages: 1 -->
<svg width="420pt" height="102pt"
 viewBox="0.00 0.00 420.00 102.00" xmlns="http://www.w3.org/2000/svg" xmlns:xlink="http://www.w3.org/1999/xlink">
<g id="graph0" class="graph" transform="scale(1 1) rotate(0) translate(4 98)">
<title>GRAIL</title>
<polygon fill="white" stroke="transparent" points="-4,4 -4,-98 416,-98 416,4 -4,4"/>
<!-- env -->
<g id="node1" class="node">
<title>env</title>
<path fill="none" stroke="black" d="M100.5,-94C100.5,-94 14.5,-94 14.5,-94 8.5,-94 2.5,-88 2.5,-82 2.5,-82 2.5,-68 2.5,-68 2.5,-62 8.5,-56 14.5,-56 14.5,-56 100.5,-56 100.5,-56 106.5,-56 112.5,-62 112.5,-68 112.5,-68 112.5,-82 112.5,-82 112.5,-88 106.5,-94 100.5,-94"/>
<text text-anchor="middle" x="57.5" y="-78.8" font-family="Times,serif" font-size="14.00">Environment</text>
<text text-anchor="middle" x="57.5" y="-63.8" font-family="Times,serif" font-size="14.00">Model</text>
</g>
<!-- act -->
<g id="node2" class="node">
<title>act</title>
<path fill="none" stroke="black" d="M257,-66C257,-66 163,-66 163,-66 157,-66 151,-60 151,-54 151,-54 151,-40 151,-40 151,-34 157,-28 163,-28 163,-28 257,-28 257,-28 263,-28 269,-34 269,-40 269,-40 269,-54 269,-54 269,-60 263,-66 257,-66"/>
<text text-anchor="middle" x="210" y="-50.8" font-family="Times,serif" font-size="14.00">Action</text>
<text text-anchor="middle" x="210" y="-35.8" font-family="Times,serif" font-size="14.00">Model (ReAct)</text>
</g>
<!-- env&#45;&gt;act -->
<g id="edge1" class="edge">
<title>env&#45;&gt;act</title>
<path fill="none" stroke="black" d="M112.83,-64.89C121.92,-63.2 131.45,-61.43 140.84,-59.68"/>
<polygon fill="black" stroke="black" points="141.74,-63.07 150.93,-57.8 140.46,-56.19 141.74,-63.07"/>
</g>
<!-- pred -->
<g id="node3" class="node">
<title>pred</title>
<path fill="none" stroke="black" d="M400,-66C400,-66 317,-66 317,-66 311,-66 305,-60 305,-54 305,-54 305,-40 305,-40 305,-34 311,-28 317,-28 317,-28 400,-28 400,-28 406,-28 412,-34 412,-40 412,-40 412,-54 412,-54 412,-60 406,-66 400,-66"/>
<text text-anchor="middle" x="358.5" y="-50.8" font-family="Times,serif" font-size="14.00">Predictor</text>
<text text-anchor="middle" x="358.5" y="-35.8" font-family="Times,serif" font-size="14.00">World Model</text>
</g>
<!-- act&#45;&gt;pred -->
<g id="edge2" class="edge">
<title>act&#45;&gt;pred</title>
<path fill="none" stroke="black" d="M269.32,-47C277.6,-47 286.15,-47 294.52,-47"/>
<polygon fill="black" stroke="black" points="294.6,-50.5 304.6,-47 294.6,-43.5 294.6,-50.5"/>
</g>
<!-- disc -->
<g id="node4" class="node">
<title>disc</title>
<polygon fill="none" stroke="black" stroke-dasharray="5,2" points="115,-38 0,-38 0,0 115,0 115,-38"/>
<text text-anchor="middle" x="57.5" y="-22.8" font-family="Times,serif" font-size="14.00">Sequential</text>
<text text-anchor="middle" x="57.5" y="-7.8" font-family="Times,serif" font-size="14.00">Discriminator</text>
</g>
<!-- disc&#45;&gt;act -->
<g id="edge3" class="edge">
<title>disc&#45;&gt;act</title>
<path fill="none" stroke="black" d="M115.4,-29.59C123.71,-31.13 132.35,-32.74 140.86,-34.32"/>
<polygon fill="black" stroke="black" points="140.3,-37.78 150.77,-36.17 141.58,-30.9 140.3,-37.78"/>
</g>
</g>
</svg>
