<?xml version="1.0" encoding="UTF-8" standalone="no"?>
<!DOCTYPE svg PUBLIC "-//W3C//DTD SVG 1.1//EN"
 "http://www.w3.org/Graphics/SVG/1.1/DTD/svg11.dtd">
<!-- Generated by graphviz version 2.44.0 (0)
 -->
<!-- Pages: 1 -->
<svg width="3033pt" height="472pt"
 viewBox="0.00 0.00 3033.09 472.00" xmlns="http://www.w3.org/2000/svg" xmlns:xlink="http://www.w3.org/1999/xlink">
<g id="graph0" class="graph" transform="scale(1 1) rotate(0) translate(4 468)">
<polygon fill="white" stroke="transparent" points="-4,4 -4,-468 3029.09,-468 3029.09,4 -4,4"/>
<!-- opinion_initial -->
<g id="node1" class="node">
<title>opinion_initial</title>
<polygon fill="#fbeaea" stroke="#bf616a" stroke-width="2" points="228,-163 0,-163 0,-127 228,-127 228,-163"/>
<text text-anchor="middle" x="114" y="-141.3" font-family="Helvetica" font-size="14.00">Initial Minimum wage support: 0.07</text>
</g>
<!-- step1_current -->
<g id="node3" class="node">
<title>step1_current</title>
<ellipse fill="#eef3ff" stroke="black" cx="419.86" cy="-145" rx="154.71" ry="37.45"/>
<text text-anchor="middle" x="419.86" y="-156.3" font-family="Times-Roman" font-size="14.00">Seattle&#39;s $15 Minimum Wage</text>
<text text-anchor="middle" x="419.86" y="-141.3" font-family="Times-Roman" font-size="14.00">Experiment is Working</text>
<text text-anchor="middle" x="419.86" y="-126.3" font-family="Times-Roman" font-size="14.00">EHFT4U2&#45;yFI</text>
</g>
<!-- opinion_initial&#45;&gt;step1_current -->
<g id="edge20" class="edge">
<title>opinion_initial&#45;&gt;step1_current</title>
<path fill="none" stroke="#bf616a" stroke-width="2.5" d="M228.14,-145C236.85,-145 245.74,-145 254.68,-145"/>
<polygon fill="#bf616a" stroke="#bf616a" stroke-width="2.5" points="254.79,-148.5 264.79,-145 254.79,-141.5 254.79,-148.5"/>
</g>
<!-- opinion_final -->
<g id="node2" class="node">
<title>opinion_final</title>
<polygon fill="#fbeaea" stroke="#bf616a" stroke-width="2" points="3025.09,-464 2752.09,-464 2752.09,-428 3025.09,-428 3025.09,-464"/>
<text text-anchor="middle" x="2888.59" y="-442.3" font-family="Helvetica" font-size="14.00">Final Minimum wage support: 0.09 (+0.02)</text>
</g>
<!-- step1_opt1 -->
<g id="node4" class="node">
<title>step1_opt1</title>
<path fill="#ffffff" stroke="black" d="M824.21,-267.5C824.21,-267.5 654.21,-267.5 654.21,-267.5 648.21,-267.5 642.21,-261.5 642.21,-255.5 642.21,-255.5 642.21,-226.5 642.21,-226.5 642.21,-220.5 648.21,-214.5 654.21,-214.5 654.21,-214.5 824.21,-214.5 824.21,-214.5 830.21,-214.5 836.21,-220.5 836.21,-226.5 836.21,-226.5 836.21,-255.5 836.21,-255.5 836.21,-261.5 830.21,-267.5 824.21,-267.5"/>
<text text-anchor="middle" x="739.21" y="-252.3" font-family="Times-Roman" font-size="14.00">If a Business Won&#39;t pay a</text>
<text text-anchor="middle" x="739.21" y="-237.3" font-family="Times-Roman" font-size="14.00">Living Wage &#45; it Shouldn&#39;t</text>
<text text-anchor="middle" x="739.21" y="-222.3" font-family="Times-Roman" font-size="14.00">Exist &#45;kLvKWycyJI</text>
</g>
<!-- step1_current&#45;&gt;step1_opt1 -->
<g id="edge1" class="edge">
<title>step1_current&#45;&gt;step1_opt1</title>
<path fill="none" stroke="#888888" d="M516.95,-174.4C548.98,-184.18 584.88,-195.09 617.71,-205 624.68,-207.1 631.88,-209.27 639.13,-211.45"/>
<polygon fill="#888888" stroke="#888888" points="638.45,-214.9 649.03,-214.42 640.46,-208.19 638.45,-214.9"/>
<text text-anchor="middle" x="596.21" y="-201" font-family="Times-Roman" font-size="10.00">1</text>
</g>
<!-- step1_opt2 -->
<g id="node5" class="node">
<title>step1_opt2</title>
<path fill="#d7f5d0" stroke="#2d9c4a" stroke-width="2" d="M848.71,-196C848.71,-196 629.71,-196 629.71,-196 623.71,-196 617.71,-190 617.71,-184 617.71,-184 617.71,-170 617.71,-170 617.71,-164 623.71,-158 629.71,-158 629.71,-158 848.71,-158 848.71,-158 854.71,-158 860.71,-164 860.71,-170 860.71,-170 860.71,-184 860.71,-184 860.71,-190 854.71,-196 848.71,-196"/>
<text text-anchor="middle" x="739.21" y="-180.8" font-family="Times-Roman" font-size="14.00">Price Floors: The Minimum Wage</text>
<text text-anchor="middle" x="739.21" y="-165.8" font-family="Times-Roman" font-size="14.00">65kfAswiHLk</text>
</g>
<!-- step1_current&#45;&gt;step1_opt2 -->
<g id="edge2" class="edge">
<title>step1_current&#45;&gt;step1_opt2</title>
<path fill="none" stroke="#2d9c4a" stroke-width="2.5" d="M563.29,-159.36C578.02,-160.85 592.93,-162.35 607.52,-163.82"/>
<polygon fill="#2d9c4a" stroke="#2d9c4a" stroke-width="2.5" points="607.26,-167.31 617.56,-164.83 607.97,-160.35 607.26,-167.31"/>
<text text-anchor="middle" x="596.21" y="-165" font-family="Times-Roman" font-size="10.00">2</text>
</g>
<!-- step1_opt3 -->
<g id="node6" class="node">
<title>step1_opt3</title>
<path fill="#ffffff" stroke="black" d="M848.21,-139.5C848.21,-139.5 630.21,-139.5 630.21,-139.5 624.21,-139.5 618.21,-133.5 618.21,-127.5 618.21,-127.5 618.21,-98.5 618.21,-98.5 618.21,-92.5 624.21,-86.5 630.21,-86.5 630.21,-86.5 848.21,-86.5 848.21,-86.5 854.21,-86.5 860.21,-92.5 860.21,-98.5 860.21,-98.5 860.21,-127.5 860.21,-127.5 860.21,-133.5 854.21,-139.5 848.21,-139.5"/>
<text text-anchor="middle" x="739.21" y="-124.3" font-family="Times-Roman" font-size="14.00">If Walmart Paid Its Employees</text>
<text text-anchor="middle" x="739.21" y="-109.3" font-family="Times-Roman" font-size="14.00">a Living Wage, How Much Would</text>
<text text-anchor="middle" x="739.21" y="-94.3" font-family="Times-Roman" font-size="14.00">Prices Go Up? vAcaeLmybCY</text>
</g>
<!-- step1_current&#45;&gt;step1_opt3 -->
<g id="edge3" class="edge">
<title>step1_current&#45;&gt;step1_opt3</title>
<path fill="none" stroke="#888888" d="M563.29,-130.64C578.15,-129.14 593.2,-127.62 607.92,-126.14"/>
<polygon fill="#888888" stroke="#888888" points="608.45,-129.6 618.05,-125.12 607.75,-122.64 608.45,-129.6"/>
<text text-anchor="middle" x="596.21" y="-130" font-family="Times-Roman" font-size="10.00">3</text>
</g>
<!-- step1_opt4 -->
<g id="node7" class="node">
<title>step1_opt4</title>
<path fill="#ffffff" stroke="black" d="M847.21,-68C847.21,-68 631.21,-68 631.21,-68 625.21,-68 619.21,-62 619.21,-56 619.21,-56 619.21,-12 619.21,-12 619.21,-6 625.21,0 631.21,0 631.21,0 847.21,0 847.21,0 853.21,0 859.21,-6 859.21,-12 859.21,-12 859.21,-56 859.21,-56 859.21,-62 853.21,-68 847.21,-68"/>
<text text-anchor="middle" x="739.21" y="-52.8" font-family="Times-Roman" font-size="14.00">Restaurants eliminating</text>
<text text-anchor="middle" x="739.21" y="-37.8" font-family="Times-Roman" font-size="14.00">employees after minimum wage</text>
<text text-anchor="middle" x="739.21" y="-22.8" font-family="Times-Roman" font-size="14.00">increase in 18 states</text>
<text text-anchor="middle" x="739.21" y="-7.8" font-family="Times-Roman" font-size="14.00">p4i4qEnCNk8</text>
</g>
<!-- step1_current&#45;&gt;step1_opt4 -->
<g id="edge4" class="edge">
<title>step1_current&#45;&gt;step1_opt4</title>
<path fill="none" stroke="#888888" d="M508.84,-114.23C546.79,-100.95 591.53,-85.3 631.37,-71.37"/>
<polygon fill="#888888" stroke="#888888" points="632.57,-74.66 640.85,-68.05 630.26,-68.05 632.57,-74.66"/>
<text text-anchor="middle" x="596.21" y="-85" font-family="Times-Roman" font-size="10.00">4</text>
</g>
<!-- step2_current -->
<g id="node8" class="node">
<title>step2_current</title>
<ellipse fill="#eef3ff" stroke="black" cx="1110.54" cy="-177" rx="171.65" ry="26.74"/>
<text text-anchor="middle" x="1110.54" y="-180.8" font-family="Times-Roman" font-size="14.00">Price Floors: The Minimum Wage</text>
<text text-anchor="middle" x="1110.54" y="-165.8" font-family="Times-Roman" font-size="14.00">65kfAswiHLk</text>
</g>
<!-- step1_opt2&#45;&gt;step2_current -->
<g id="edge17" class="edge">
<title>step1_opt2&#45;&gt;step2_current</title>
<path fill="none" stroke="#2d9c4a" stroke-width="2.5" stroke-dasharray="5,2" d="M860.89,-177C882.52,-177 905.49,-177 928.38,-177"/>
<polygon fill="#2d9c4a" stroke="#2d9c4a" stroke-width="2.5" points="928.54,-180.5 938.54,-177 928.54,-173.5 928.54,-180.5"/>
<text text-anchor="middle" x="899.71" y="-180" font-family="Times-Roman" font-size="10.00">selected</text>
</g>
<!-- step2_opt1 -->
<g id="node9" class="node">
<title>step2_opt1</title>
<path fill="#d7f5d0" stroke="#2d9c4a" stroke-width="2" d="M1562.87,-314C1562.87,-314 1341.87,-314 1341.87,-314 1335.87,-314 1329.87,-308 1329.87,-302 1329.87,-302 1329.87,-258 1329.87,-258 1329.87,-252 1335.87,-246 1341.87,-246 1341.87,-246 1562.87,-246 1562.87,-246 1568.87,-246 1574.87,-252 1574.87,-258 1574.87,-258 1574.87,-302 1574.87,-302 1574.87,-308 1568.87,-314 1562.87,-314"/>
<text text-anchor="middle" x="1452.37" y="-298.8" font-family="Times-Roman" font-size="14.00">The 5 Biggest Myths</text>
<text text-anchor="middle" x="1452.37" y="-283.8" font-family="Times-Roman" font-size="14.00">Republicans Use to Avoid</text>
<text text-anchor="middle" x="1452.37" y="-268.8" font-family="Times-Roman" font-size="14.00">Raising the Minimum Wage |</text>
<text text-anchor="middle" x="1452.37" y="-253.8" font-family="Times-Roman" font-size="14.00">Opinions | NowThis DPn6T0zT6jc</text>
</g>
<!-- step2_current&#45;&gt;step2_opt1 -->
<g id="edge5" class="edge">
<title>step2_current&#45;&gt;step2_opt1</title>
<path fill="none" stroke="#2d9c4a" stroke-width="2.5" d="M1190.36,-200.89C1231.63,-213.4 1283.1,-229 1329.39,-243.03"/>
<polygon fill="#2d9c4a" stroke="#2d9c4a" stroke-width="2.5" points="1328.6,-246.45 1339.18,-246 1330.63,-239.75 1328.6,-246.45"/>
<text text-anchor="middle" x="1303.87" y="-237" font-family="Times-Roman" font-size="10.00">1</text>
</g>
<!-- step2_opt2 -->
<g id="node10" class="node">
<title>step2_opt2</title>
<path fill="#ffffff" stroke="black" d="M1567.37,-228C1567.37,-228 1337.37,-228 1337.37,-228 1331.37,-228 1325.37,-222 1325.37,-216 1325.37,-216 1325.37,-202 1325.37,-202 1325.37,-196 1331.37,-190 1337.37,-190 1337.37,-190 1567.37,-190 1567.37,-190 1573.37,-190 1579.37,-196 1579.37,-202 1579.37,-202 1579.37,-216 1579.37,-216 1579.37,-222 1573.37,-228 1567.37,-228"/>
<text text-anchor="middle" x="1452.37" y="-212.8" font-family="Times-Roman" font-size="14.00">Republicans Block Minimum Wage</text>
<text text-anchor="middle" x="1452.37" y="-197.8" font-family="Times-Roman" font-size="14.00">Increase WNf3qOJimiA</text>
</g>
<!-- step2_current&#45;&gt;step2_opt2 -->
<g id="edge6" class="edge">
<title>step2_current&#45;&gt;step2_opt2</title>
<path fill="none" stroke="#888888" d="M1258.12,-190.8C1277.08,-192.59 1296.43,-194.41 1315.21,-196.18"/>
<polygon fill="#888888" stroke="#888888" points="1314.99,-199.67 1325.28,-197.13 1315.65,-192.7 1314.99,-199.67"/>
<text text-anchor="middle" x="1303.87" y="-197" font-family="Times-Roman" font-size="10.00">2</text>
</g>
<!-- step2_opt3 -->
<g id="node11" class="node">
<title>step2_opt3</title>
<path fill="#ffffff" stroke="black" d="M1543.37,-171.5C1543.37,-171.5 1361.37,-171.5 1361.37,-171.5 1355.37,-171.5 1349.37,-165.5 1349.37,-159.5 1349.37,-159.5 1349.37,-130.5 1349.37,-130.5 1349.37,-124.5 1355.37,-118.5 1361.37,-118.5 1361.37,-118.5 1543.37,-118.5 1543.37,-118.5 1549.37,-118.5 1555.37,-124.5 1555.37,-130.5 1555.37,-130.5 1555.37,-159.5 1555.37,-159.5 1555.37,-165.5 1549.37,-171.5 1543.37,-171.5"/>
<text text-anchor="middle" x="1452.37" y="-156.3" font-family="Times-Roman" font-size="14.00">Caller: Increasing Minimum</text>
<text text-anchor="middle" x="1452.37" y="-141.3" font-family="Times-Roman" font-size="14.00">Wage will Bring Inflation</text>
<text text-anchor="middle" x="1452.37" y="-126.3" font-family="Times-Roman" font-size="14.00">v8bnRfvMVMg</text>
</g>
<!-- step2_current&#45;&gt;step2_opt3 -->
<g id="edge7" class="edge">
<title>step2_current&#45;&gt;step2_opt3</title>
<path fill="none" stroke="#888888" d="M1258.12,-163.2C1285.24,-160.64 1313.17,-158.01 1339.07,-155.57"/>
<polygon fill="#888888" stroke="#888888" points="1339.64,-159.04 1349.27,-154.61 1338.98,-152.07 1339.64,-159.04"/>
<text text-anchor="middle" x="1303.87" y="-162" font-family="Times-Roman" font-size="10.00">3</text>
</g>
<!-- step2_opt4 -->
<g id="node12" class="node">
<title>step2_opt4</title>
<path fill="#ffffff" stroke="black" d="M1549.37,-100C1549.37,-100 1355.37,-100 1355.37,-100 1349.37,-100 1343.37,-94 1343.37,-88 1343.37,-88 1343.37,-74 1343.37,-74 1343.37,-68 1349.37,-62 1355.37,-62 1355.37,-62 1549.37,-62 1549.37,-62 1555.37,-62 1561.37,-68 1561.37,-74 1561.37,-74 1561.37,-88 1561.37,-88 1561.37,-94 1555.37,-100 1549.37,-100"/>
<text text-anchor="middle" x="1452.37" y="-84.8" font-family="Times-Roman" font-size="14.00">Milton Friedman on Minimum</text>
<text text-anchor="middle" x="1452.37" y="-69.8" font-family="Times-Roman" font-size="14.00">Wage ca8Z__o52sk</text>
</g>
<!-- step2_current&#45;&gt;step2_opt4 -->
<g id="edge8" class="edge">
<title>step2_current&#45;&gt;step2_opt4</title>
<path fill="none" stroke="#888888" d="M1184.36,-152.64C1225.52,-139.27 1278.06,-122.83 1325.37,-110 1334.87,-107.42 1344.82,-104.87 1354.78,-102.42"/>
<polygon fill="#888888" stroke="#888888" points="1355.84,-105.77 1364.73,-100.01 1354.18,-98.97 1355.84,-105.77"/>
<text text-anchor="middle" x="1303.87" y="-119" font-family="Times-Roman" font-size="10.00">4</text>
</g>
<!-- step3_current -->
<g id="node13" class="node">
<title>step3_current</title>
<ellipse fill="#eef3ff" stroke="black" cx="1830.61" cy="-280" rx="173.48" ry="48.17"/>
<text text-anchor="middle" x="1830.61" y="-298.8" font-family="Times-Roman" font-size="14.00">The 5 Biggest Myths</text>
<text text-anchor="middle" x="1830.61" y="-283.8" font-family="Times-Roman" font-size="14.00">Republicans Use to Avoid</text>
<text text-anchor="middle" x="1830.61" y="-268.8" font-family="Times-Roman" font-size="14.00">Raising the Minimum Wage |</text>
<text text-anchor="middle" x="1830.61" y="-253.8" font-family="Times-Roman" font-size="14.00">Opinions | NowThis DPn6T0zT6jc</text>
</g>
<!-- step2_opt1&#45;&gt;step3_current -->
<g id="edge18" class="edge">
<title>step2_opt1&#45;&gt;step3_current</title>
<path fill="none" stroke="#2d9c4a" stroke-width="2.5" stroke-dasharray="5,2" d="M1575,-280C1598.02,-280 1622.57,-280 1646.99,-280"/>
<polygon fill="#2d9c4a" stroke="#2d9c4a" stroke-width="2.5" points="1647.07,-283.5 1657.07,-280 1647.07,-276.5 1647.07,-283.5"/>
<text text-anchor="middle" x="1618.37" y="-283" font-family="Times-Roman" font-size="10.00">selected</text>
</g>
<!-- step3_opt1 -->
<g id="node14" class="node">
<title>step3_opt1</title>
<path fill="#ffffff" stroke="black" d="M2269.85,-387C2269.85,-387 2065.85,-387 2065.85,-387 2059.85,-387 2053.85,-381 2053.85,-375 2053.85,-375 2053.85,-361 2053.85,-361 2053.85,-355 2059.85,-349 2065.85,-349 2065.85,-349 2269.85,-349 2269.85,-349 2275.85,-349 2281.85,-355 2281.85,-361 2281.85,-361 2281.85,-375 2281.85,-375 2281.85,-381 2275.85,-387 2269.85,-387"/>
<text text-anchor="middle" x="2167.85" y="-371.8" font-family="Times-Roman" font-size="14.00">Should We Raise the Minimum</text>
<text text-anchor="middle" x="2167.85" y="-356.8" font-family="Times-Roman" font-size="14.00">Wage? ZI9aDHLptMk</text>
</g>
<!-- step3_current&#45;&gt;step3_opt1 -->
<g id="edge9" class="edge">
<title>step3_current&#45;&gt;step3_opt1</title>
<path fill="none" stroke="#888888" d="M1951.75,-314.47C1982.67,-323.07 2015.94,-332.09 2046.85,-340 2055.45,-342.2 2064.41,-344.42 2073.4,-346.6"/>
<polygon fill="#888888" stroke="#888888" points="2072.6,-350.01 2083.14,-348.95 2074.24,-343.21 2072.6,-350.01"/>
<text text-anchor="middle" x="2025.35" y="-336" font-family="Times-Roman" font-size="10.00">1</text>
</g>
<!-- step3_opt2 -->
<g id="node15" class="node">
<title>step3_opt2</title>
<path fill="#d7f5d0" stroke="#2d9c4a" stroke-width="2" d="M2276.85,-331C2276.85,-331 2058.85,-331 2058.85,-331 2052.85,-331 2046.85,-325 2046.85,-319 2046.85,-319 2046.85,-305 2046.85,-305 2046.85,-299 2052.85,-293 2058.85,-293 2058.85,-293 2276.85,-293 2276.85,-293 2282.85,-293 2288.85,-299 2288.85,-305 2288.85,-305 2288.85,-319 2288.85,-319 2288.85,-325 2282.85,-331 2276.85,-331"/>
<text text-anchor="middle" x="2167.85" y="-315.8" font-family="Times-Roman" font-size="14.00">Who Does a $15 Minimum Wage</text>
<text text-anchor="middle" x="2167.85" y="-300.8" font-family="Times-Roman" font-size="14.00">Help? HwcHRyvrNCE</text>
</g>
<!-- step3_current&#45;&gt;step3_opt2 -->
<g id="edge10" class="edge">
<title>step3_current&#45;&gt;step3_opt2</title>
<path fill="none" stroke="#2d9c4a" stroke-width="2.5" d="M1994.81,-295.58C2008.74,-296.91 2022.72,-298.24 2036.34,-299.54"/>
<polygon fill="#2d9c4a" stroke="#2d9c4a" stroke-width="2.5" points="2036.41,-303.06 2046.69,-300.53 2037.07,-296.1 2036.41,-303.06"/>
<text text-anchor="middle" x="2025.35" y="-301" font-family="Times-Roman" font-size="10.00">2</text>
</g>
<!-- step3_opt3 -->
<g id="node16" class="node">
<title>step3_opt3</title>
<path fill="#ffffff" stroke="black" d="M2261.35,-274.5C2261.35,-274.5 2074.35,-274.5 2074.35,-274.5 2068.35,-274.5 2062.35,-268.5 2062.35,-262.5 2062.35,-262.5 2062.35,-233.5 2062.35,-233.5 2062.35,-227.5 2068.35,-221.5 2074.35,-221.5 2074.35,-221.5 2261.35,-221.5 2261.35,-221.5 2267.35,-221.5 2273.35,-227.5 2273.35,-233.5 2273.35,-233.5 2273.35,-262.5 2273.35,-262.5 2273.35,-268.5 2267.35,-274.5 2261.35,-274.5"/>
<text text-anchor="middle" x="2167.85" y="-259.3" font-family="Times-Roman" font-size="14.00">Malcolm Kenyatta Confronts</text>
<text text-anchor="middle" x="2167.85" y="-244.3" font-family="Times-Roman" font-size="14.00">Minimum Wage Opposers</text>
<text text-anchor="middle" x="2167.85" y="-229.3" font-family="Times-Roman" font-size="14.00">OlU6ZU1l4Io</text>
</g>
<!-- step3_current&#45;&gt;step3_opt3 -->
<g id="edge11" class="edge">
<title>step3_current&#45;&gt;step3_opt3</title>
<path fill="none" stroke="#888888" d="M1994.81,-264.42C2014.06,-262.58 2033.38,-260.74 2051.77,-258.98"/>
<polygon fill="#888888" stroke="#888888" points="2052.26,-262.45 2061.88,-258.02 2051.6,-255.49 2052.26,-262.45"/>
<text text-anchor="middle" x="2025.35" y="-264" font-family="Times-Roman" font-size="10.00">3</text>
</g>
<!-- step3_opt4 -->
<g id="node17" class="node">
<title>step3_opt4</title>
<path fill="#ffffff" stroke="black" d="M2276.85,-203C2276.85,-203 2058.85,-203 2058.85,-203 2052.85,-203 2046.85,-197 2046.85,-191 2046.85,-191 2046.85,-177 2046.85,-177 2046.85,-171 2052.85,-165 2058.85,-165 2058.85,-165 2276.85,-165 2276.85,-165 2282.85,-165 2288.85,-171 2288.85,-177 2288.85,-177 2288.85,-191 2288.85,-191 2288.85,-197 2282.85,-203 2276.85,-203"/>
<text text-anchor="middle" x="2167.85" y="-187.8" font-family="Times-Roman" font-size="14.00">The Cruelty of the $15 Minimum</text>
<text text-anchor="middle" x="2167.85" y="-172.8" font-family="Times-Roman" font-size="14.00">Wage kBjsQL7ZFvc</text>
</g>
<!-- step3_current&#45;&gt;step3_opt4 -->
<g id="edge12" class="edge">
<title>step3_current&#45;&gt;step3_opt4</title>
<path fill="none" stroke="#888888" d="M1943.75,-243.59C1976.83,-233.26 2013.18,-222.3 2046.85,-213 2055.97,-210.48 2065.52,-207.97 2075.07,-205.53"/>
<polygon fill="#888888" stroke="#888888" points="2076.17,-208.87 2085.01,-203.03 2074.46,-202.08 2076.17,-208.87"/>
<text text-anchor="middle" x="2025.35" y="-222" font-family="Times-Roman" font-size="10.00">4</text>
</g>
<!-- step4_current -->
<g id="node18" class="node">
<title>step4_current</title>
<ellipse fill="#eef3ff" stroke="black" cx="2537.97" cy="-312" rx="171.24" ry="26.74"/>
<text text-anchor="middle" x="2537.97" y="-315.8" font-family="Times-Roman" font-size="14.00">Who Does a $15 Minimum Wage</text>
<text text-anchor="middle" x="2537.97" y="-300.8" font-family="Times-Roman" font-size="14.00">Help? HwcHRyvrNCE</text>
</g>
<!-- step3_opt2&#45;&gt;step4_current -->
<g id="edge19" class="edge">
<title>step3_opt2&#45;&gt;step4_current</title>
<path fill="none" stroke="#2d9c4a" stroke-width="2.5" stroke-dasharray="5,2" d="M2288.88,-312C2310.53,-312 2333.54,-312 2356.48,-312"/>
<polygon fill="#2d9c4a" stroke="#2d9c4a" stroke-width="2.5" points="2356.65,-315.5 2366.65,-312 2356.65,-308.5 2356.65,-315.5"/>
<text text-anchor="middle" x="2327.85" y="-315" font-family="Times-Roman" font-size="10.00">selected</text>
</g>
<!-- step4_current&#45;&gt;opinion_final -->
<g id="edge21" class="edge">
<title>step4_current&#45;&gt;opinion_final</title>
<path fill="none" stroke="#bf616a" stroke-width="2.5" d="M2582.35,-338.15C2624.39,-362.42 2690.62,-397.88 2752.09,-419 2758.79,-421.3 2765.76,-423.44 2772.83,-425.41"/>
<polygon fill="#bf616a" stroke="#bf616a" stroke-width="2.5" points="2771.97,-428.8 2782.53,-427.99 2773.77,-422.03 2771.97,-428.8"/>
</g>
<!-- step4_opt1 -->
<g id="node19" class="node">
<title>step4_opt1</title>
<path fill="#ffffff" stroke="black" d="M2998.09,-409.5C2998.09,-409.5 2779.09,-409.5 2779.09,-409.5 2773.09,-409.5 2767.09,-403.5 2767.09,-397.5 2767.09,-397.5 2767.09,-368.5 2767.09,-368.5 2767.09,-362.5 2773.09,-356.5 2779.09,-356.5 2779.09,-356.5 2998.09,-356.5 2998.09,-356.5 3004.09,-356.5 3010.09,-362.5 3010.09,-368.5 3010.09,-368.5 3010.09,-397.5 3010.09,-397.5 3010.09,-403.5 3004.09,-409.5 2998.09,-409.5"/>
<text text-anchor="middle" x="2888.59" y="-394.3" font-family="Times-Roman" font-size="14.00">Amazon hikes minimum wage to</text>
<text text-anchor="middle" x="2888.59" y="-379.3" font-family="Times-Roman" font-size="14.00">$15 for all employees</text>
<text text-anchor="middle" x="2888.59" y="-364.3" font-family="Times-Roman" font-size="14.00">3G4miqoxoK0</text>
</g>
<!-- step4_current&#45;&gt;step4_opt1 -->
<g id="edge13" class="edge">
<title>step4_current&#45;&gt;step4_opt1</title>
<path fill="none" stroke="#888888" d="M2643.09,-333.21C2678.82,-340.48 2719.28,-348.72 2756.85,-356.37"/>
<polygon fill="#888888" stroke="#888888" points="2756.35,-359.84 2766.84,-358.41 2757.74,-352.98 2756.35,-359.84"/>
<text text-anchor="middle" x="2730.59" y="-353" font-family="Times-Roman" font-size="10.00">1</text>
</g>
<!-- step4_opt2 -->
<g id="node20" class="node">
<title>step4_opt2</title>
<path fill="#d7f5d0" stroke="#2d9c4a" stroke-width="2" d="M2973.59,-338.5C2973.59,-338.5 2803.59,-338.5 2803.59,-338.5 2797.59,-338.5 2791.59,-332.5 2791.59,-326.5 2791.59,-326.5 2791.59,-297.5 2791.59,-297.5 2791.59,-291.5 2797.59,-285.5 2803.59,-285.5 2803.59,-285.5 2973.59,-285.5 2973.59,-285.5 2979.59,-285.5 2985.59,-291.5 2985.59,-297.5 2985.59,-297.5 2985.59,-326.5 2985.59,-326.5 2985.59,-332.5 2979.59,-338.5 2973.59,-338.5"/>
<text text-anchor="middle" x="2888.59" y="-323.3" font-family="Times-Roman" font-size="14.00">If a Business Won&#39;t pay a</text>
<text text-anchor="middle" x="2888.59" y="-308.3" font-family="Times-Roman" font-size="14.00">Living Wage &#45; it Shouldn&#39;t</text>
<text text-anchor="middle" x="2888.59" y="-293.3" font-family="Times-Roman" font-size="14.00">Exist &#45;kLvKWycyJI</text>
</g>
<!-- step4_current&#45;&gt;step4_opt2 -->
<g id="edge14" class="edge">
<title>step4_current&#45;&gt;step4_opt2</title>
<path fill="none" stroke="#2d9c4a" stroke-width="2.5" d="M2709.19,-312C2733.63,-312 2758.16,-312 2780.89,-312"/>
<polygon fill="#2d9c4a" stroke="#2d9c4a" stroke-width="2.5" points="2781.19,-315.5 2791.19,-312 2781.19,-308.5 2781.19,-315.5"/>
<text text-anchor="middle" x="2730.59" y="-315" font-family="Times-Roman" font-size="10.00">2</text>
</g>
<!-- step4_opt3 -->
<g id="node21" class="node">
<title>step4_opt3</title>
<path fill="#ffffff" stroke="black" d="M2993.59,-267C2993.59,-267 2783.59,-267 2783.59,-267 2777.59,-267 2771.59,-261 2771.59,-255 2771.59,-255 2771.59,-241 2771.59,-241 2771.59,-235 2777.59,-229 2783.59,-229 2783.59,-229 2993.59,-229 2993.59,-229 2999.59,-229 3005.59,-235 3005.59,-241 3005.59,-241 3005.59,-255 3005.59,-255 3005.59,-261 2999.59,-267 2993.59,-267"/>
<text text-anchor="middle" x="2888.59" y="-251.8" font-family="Times-Roman" font-size="14.00">A $15 Minimum Wage Will Hurt</text>
<text text-anchor="middle" x="2888.59" y="-236.8" font-family="Times-Roman" font-size="14.00">Workers BSco6eBKOm8</text>
</g>
<!-- step4_current&#45;&gt;step4_opt3 -->
<g id="edge15" class="edge">
<title>step4_current&#45;&gt;step4_opt3</title>
<path fill="none" stroke="#888888" d="M2650.23,-291.57C2689.73,-284.32 2734.22,-276.16 2773.91,-268.87"/>
<polygon fill="#888888" stroke="#888888" points="2774.69,-272.28 2783.89,-267.04 2773.43,-265.4 2774.69,-272.28"/>
<text text-anchor="middle" x="2730.59" y="-280" font-family="Times-Roman" font-size="10.00">3</text>
</g>
<!-- step4_opt4 -->
<g id="node22" class="node">
<title>step4_opt4</title>
<path fill="#ffffff" stroke="black" d="M3002.09,-211C3002.09,-211 2775.09,-211 2775.09,-211 2769.09,-211 2763.09,-205 2763.09,-199 2763.09,-199 2763.09,-185 2763.09,-185 2763.09,-179 2769.09,-173 2775.09,-173 2775.09,-173 3002.09,-173 3002.09,-173 3008.09,-173 3014.09,-179 3014.09,-185 3014.09,-185 3014.09,-199 3014.09,-199 3014.09,-205 3008.09,-211 3002.09,-211"/>
<text text-anchor="middle" x="2888.59" y="-195.8" font-family="Times-Roman" font-size="14.00">What&#39;s the Right Minimum Wage?</text>
<text text-anchor="middle" x="2888.59" y="-180.8" font-family="Times-Roman" font-size="14.00">4j01L69eXdI</text>
</g>
<!-- step4_current&#45;&gt;step4_opt4 -->
<g id="edge16" class="edge">
<title>step4_current&#45;&gt;step4_opt4</title>
<path fill="none" stroke="#888888" d="M2590.39,-286.28C2632.87,-265.89 2695.21,-237.95 2752.09,-220 2759.34,-217.71 2766.86,-215.56 2774.49,-213.55"/>
<polygon fill="#888888" stroke="#888888" points="2775.36,-216.94 2784.19,-211.08 2773.63,-210.16 2775.36,-216.94"/>
<text text-anchor="middle" x="2730.59" y="-230" font-family="Times-Roman" font-size="10.00">4</text>
</g>
</g>
</svg>
